<svg width="282" height="189" viewBox="0 0 282 189" fill="none" xmlns="http://www.w3.org/2000/svg">
<circle cx="62" cy="65" r="26.5" stroke="black"/>
<path d="M55.4 71.2C54.8133 71.2 54.2267 71.1533 53.64 71.06C53.0533 70.98 52.5 70.8533 51.98 70.68C51.46 70.4933 50.9933 70.2667 50.58 70C50.34 69.84 50.1733 69.6467 50.08 69.42C49.9867 69.1933 49.9533 68.9733 49.98 68.76C50.02 68.5333 50.1067 68.34 50.24 68.18C50.3867 68.0067 50.5667 67.9 50.78 67.86C50.9933 67.82 51.2267 67.88 51.48 68.04C52.0667 68.3867 52.6867 68.64 53.34 68.8C53.9933 68.96 54.68 69.04 55.4 69.04C56.4533 69.04 57.22 68.8667 57.7 68.52C58.18 68.16 58.42 67.7 58.42 67.14C58.42 66.6733 58.2467 66.3067 57.9 66.04C57.5667 65.7733 56.9867 65.5533 56.16 65.38L53.96 64.92C52.6933 64.6533 51.7467 64.2067 51.12 63.58C50.5067 62.94 50.2 62.1 50.2 61.06C50.2 60.4067 50.3333 59.8133 50.6 59.28C50.8667 58.7467 51.24 58.2867 51.72 57.9C52.2133 57.5133 52.7933 57.22 53.46 57.02C54.14 56.8067 54.8867 56.7 55.7 56.7C56.5 56.7 57.26 56.8 57.98 57C58.7 57.2 59.3467 57.4933 59.92 57.88C60.1333 58.0267 60.2733 58.2067 60.34 58.42C60.42 58.6333 60.44 58.8467 60.4 59.06C60.36 59.26 60.2667 59.4333 60.12 59.58C59.9733 59.7267 59.7867 59.8133 59.56 59.84C59.3467 59.8667 59.1 59.8 58.82 59.64C58.3267 59.36 57.8267 59.16 57.32 59.04C56.8133 58.92 56.2667 58.86 55.68 58.86C55.0667 58.86 54.54 58.9467 54.1 59.12C53.66 59.2933 53.32 59.54 53.08 59.86C52.8533 60.1667 52.74 60.5333 52.74 60.96C52.74 61.44 52.9 61.8267 53.22 62.12C53.54 62.4 54.0867 62.62 54.86 62.78L57.04 63.24C58.36 63.52 59.34 63.96 59.98 64.56C60.6333 65.16 60.96 65.96 60.96 66.96C60.96 67.6 60.8267 68.18 60.56 68.7C60.3067 69.22 59.9333 69.6667 59.44 70.04C58.96 70.4133 58.38 70.7 57.7 70.9C57.02 71.1 56.2533 71.2 55.4 71.2ZM67.6172 71.2C65.9505 71.2 64.6772 70.5733 63.7972 69.32C62.9172 68.0533 62.4772 66.2533 62.4772 63.92C62.4772 62.3467 62.6705 61.0267 63.0572 59.96C63.4572 58.88 64.0372 58.0667 64.7972 57.52C65.5705 56.9733 66.5105 56.7 67.6172 56.7C69.2972 56.7 70.5705 57.3133 71.4372 58.54C72.3172 59.7667 72.7572 61.5533 72.7572 63.9C72.7572 65.46 72.5572 66.7867 72.1572 67.88C71.7705 68.96 71.1972 69.7867 70.4372 70.36C69.6772 70.92 68.7372 71.2 67.6172 71.2ZM67.6172 69.1C68.5239 69.1 69.1905 68.68 69.6172 67.84C70.0572 67 70.2772 65.6867 70.2772 63.9C70.2772 62.1133 70.0572 60.82 69.6172 60.02C69.1905 59.2067 68.5239 58.8 67.6172 58.8C66.7239 58.8 66.0572 59.2067 65.6172 60.02C65.1772 60.82 64.9572 62.1133 64.9572 63.9C64.9572 65.6867 65.1772 67 65.6172 67.84C66.0572 68.68 66.7239 69.1 67.6172 69.1Z" fill="black"/>
<circle cx="132" cy="162" r="26.5" stroke="black"/>
<path d="M125.4 168.2C124.813 168.2 124.227 168.153 123.64 168.06C123.053 167.98 122.5 167.853 121.98 167.68C121.46 167.493 120.993 167.267 120.58 167C120.34 166.84 120.173 166.647 120.08 166.42C119.987 166.193 119.953 165.973 119.98 165.76C120.02 165.533 120.107 165.34 120.24 165.18C120.387 165.007 120.567 164.9 120.78 164.86C120.993 164.82 121.227 164.88 121.48 165.04C122.067 165.387 122.687 165.64 123.34 165.8C123.993 165.96 124.68 166.04 125.4 166.04C126.453 166.04 127.22 165.867 127.7 165.52C128.18 165.16 128.42 164.7 128.42 164.14C128.42 163.673 128.247 163.307 127.9 163.04C127.567 162.773 126.987 162.553 126.16 162.38L123.96 161.92C122.693 161.653 121.747 161.207 121.12 160.58C120.507 159.94 120.2 159.1 120.2 158.06C120.2 157.407 120.333 156.813 120.6 156.28C120.867 155.747 121.24 155.287 121.72 154.9C122.213 154.513 122.793 154.22 123.46 154.02C124.14 153.807 124.887 153.7 125.7 153.7C126.5 153.7 127.26 153.8 127.98 154C128.7 154.2 129.347 154.493 129.92 154.88C130.133 155.027 130.273 155.207 130.34 155.42C130.42 155.633 130.44 155.847 130.4 156.06C130.36 156.26 130.267 156.433 130.12 156.58C129.973 156.727 129.787 156.813 129.56 156.84C129.347 156.867 129.1 156.8 128.82 156.64C128.327 156.36 127.827 156.16 127.32 156.04C126.813 155.92 126.267 155.86 125.68 155.86C125.067 155.86 124.54 155.947 124.1 156.12C123.66 156.293 123.32 156.54 123.08 156.86C122.853 157.167 122.74 157.533 122.74 157.96C122.74 158.44 122.9 158.827 123.22 159.12C123.54 159.4 124.087 159.62 124.86 159.78L127.04 160.24C128.36 160.52 129.34 160.96 129.98 161.56C130.633 162.16 130.96 162.96 130.96 163.96C130.96 164.6 130.827 165.18 130.56 165.7C130.307 166.22 129.933 166.667 129.44 167.04C128.96 167.413 128.38 167.7 127.7 167.9C127.02 168.1 126.253 168.2 125.4 168.2ZM134.277 168C133.851 168 133.537 167.907 133.337 167.72C133.151 167.52 133.057 167.233 133.057 166.86C133.057 166.633 133.117 166.413 133.237 166.2C133.357 165.987 133.531 165.76 133.757 165.52L137.777 161.24C138.391 160.6 138.831 160.02 139.097 159.5C139.364 158.967 139.497 158.433 139.497 157.9C139.497 157.233 139.284 156.727 138.857 156.38C138.444 156.033 137.837 155.86 137.037 155.86C136.584 155.86 136.131 155.927 135.677 156.06C135.224 156.18 134.764 156.393 134.297 156.7C134.057 156.86 133.831 156.927 133.617 156.9C133.417 156.873 133.237 156.787 133.077 156.64C132.931 156.493 132.831 156.313 132.777 156.1C132.724 155.887 132.731 155.673 132.797 155.46C132.877 155.233 133.037 155.04 133.277 154.88C133.851 154.493 134.491 154.2 135.197 154C135.917 153.8 136.637 153.7 137.357 153.7C138.371 153.7 139.224 153.853 139.917 154.16C140.611 154.467 141.137 154.913 141.497 155.5C141.857 156.087 142.037 156.8 142.037 157.64C142.037 158.2 141.944 158.747 141.757 159.28C141.584 159.813 141.311 160.353 140.937 160.9C140.577 161.447 140.104 162.027 139.517 162.64L135.757 166.56V165.88H141.637C141.997 165.88 142.271 165.967 142.457 166.14C142.644 166.313 142.737 166.573 142.737 166.92C142.737 167.267 142.644 167.533 142.457 167.72C142.271 167.907 141.997 168 141.637 168H134.277Z" fill="black"/>
<circle cx="201" cy="72" r="26.5" stroke="black"/>
<path d="M194.4 78.2C193.813 78.2 193.227 78.1533 192.64 78.06C192.053 77.98 191.5 77.8533 190.98 77.68C190.46 77.4933 189.993 77.2667 189.58 77C189.34 76.84 189.173 76.6467 189.08 76.42C188.987 76.1933 188.953 75.9733 188.98 75.76C189.02 75.5333 189.107 75.34 189.24 75.18C189.387 75.0067 189.567 74.9 189.78 74.86C189.993 74.82 190.227 74.88 190.48 75.04C191.067 75.3867 191.687 75.64 192.34 75.8C192.993 75.96 193.68 76.04 194.4 76.04C195.453 76.04 196.22 75.8667 196.7 75.52C197.18 75.16 197.42 74.7 197.42 74.14C197.42 73.6733 197.247 73.3067 196.9 73.04C196.567 72.7733 195.987 72.5533 195.16 72.38L192.96 71.92C191.693 71.6533 190.747 71.2067 190.12 70.58C189.507 69.94 189.2 69.1 189.2 68.06C189.2 67.4067 189.333 66.8133 189.6 66.28C189.867 65.7467 190.24 65.2867 190.72 64.9C191.213 64.5133 191.793 64.22 192.46 64.02C193.14 63.8067 193.887 63.7 194.7 63.7C195.5 63.7 196.26 63.8 196.98 64C197.7 64.2 198.347 64.4933 198.92 64.88C199.133 65.0267 199.273 65.2067 199.34 65.42C199.42 65.6333 199.44 65.8467 199.4 66.06C199.36 66.26 199.267 66.4333 199.12 66.58C198.973 66.7267 198.787 66.8133 198.56 66.84C198.347 66.8667 198.1 66.8 197.82 66.64C197.327 66.36 196.827 66.16 196.32 66.04C195.813 65.92 195.267 65.86 194.68 65.86C194.067 65.86 193.54 65.9467 193.1 66.12C192.66 66.2933 192.32 66.54 192.08 66.86C191.853 67.1667 191.74 67.5333 191.74 67.96C191.74 68.44 191.9 68.8267 192.22 69.12C192.54 69.4 193.087 69.62 193.86 69.78L196.04 70.24C197.36 70.52 198.34 70.96 198.98 71.56C199.633 72.16 199.96 72.96 199.96 73.96C199.96 74.6 199.827 75.18 199.56 75.7C199.307 76.22 198.933 76.6667 198.44 77.04C197.96 77.4133 197.38 77.7 196.7 77.9C196.02 78.1 195.253 78.2 194.4 78.2ZM203.737 78C203.391 78 203.117 77.9067 202.917 77.72C202.731 77.52 202.637 77.2533 202.637 76.92C202.637 76.5733 202.731 76.3133 202.917 76.14C203.117 75.9667 203.391 75.88 203.737 75.88H205.977V66.06H207.217L204.277 67.84C204.024 67.9867 203.784 68.0467 203.557 68.02C203.344 67.98 203.157 67.8867 202.997 67.74C202.851 67.58 202.751 67.3933 202.697 67.18C202.644 66.9667 202.657 66.7533 202.737 66.54C202.831 66.3133 203.004 66.1267 203.257 65.98L206.017 64.32C206.284 64.16 206.551 64.0267 206.817 63.92C207.084 63.8 207.331 63.74 207.557 63.74C207.837 63.74 208.071 63.82 208.257 63.98C208.444 64.1267 208.537 64.3733 208.537 64.72V75.88H210.577C210.924 75.88 211.191 75.9667 211.377 76.14C211.577 76.3133 211.677 76.5733 211.677 76.92C211.677 77.2667 211.577 77.5333 211.377 77.72C211.191 77.9067 210.924 78 210.577 78H203.737Z" fill="black"/>
<circle cx="132.5" cy="162.5" r="22" stroke="black"/>
<circle cx="201.5" cy="72.5" r="22" stroke="black"/>
<path d="M215 49.2307C215 49.2307 223.644 22.7932 237.951 22.027C252.258 21.2607 262.095 36.9698 260.902 51.5295C259.71 66.0892 252.258 78.7332 243.316 77.9669C234.374 77.2006 225.73 66.8555 225.73 66.8555M225.73 66.8555L229.307 77.9669M225.73 66.8555L234.374 69.1544" stroke="black"/>
<path d="M174.664 65.7479C175.077 65.3812 175.115 64.7492 174.748 64.3362L168.773 57.6053C168.407 57.1923 167.775 57.1546 167.362 57.5213C166.949 57.8879 166.911 58.5199 167.278 58.933L172.588 64.916L166.605 70.2267C166.192 70.5933 166.155 71.2254 166.521 71.6384C166.888 72.0515 167.52 72.0891 167.933 71.7225L174.664 65.7479ZM89.9406 60.9982L173.941 65.9982L174.059 64.0018L90.0594 59.0018L89.9406 60.9982Z" fill="black"/>
<path d="M109.788 144.977C110.327 145.094 110.86 144.752 110.977 144.212L112.889 135.418C113.006 134.878 112.664 134.346 112.124 134.228C111.585 134.111 111.052 134.453 110.935 134.993L109.235 142.81L101.418 141.111C100.878 140.994 100.346 141.336 100.228 141.876C100.111 142.415 100.453 142.948 100.993 143.065L109.788 144.977ZM73.1588 88.5408L109.159 144.541L110.841 143.459L74.8412 87.4592L73.1588 88.5408Z" fill="black"/>
<path d="M35.686 58.7276C36.0878 58.3487 36.1065 57.7158 35.7276 57.314L29.5535 50.7657C29.1746 50.3638 28.5417 50.3452 28.1399 50.7241C27.738 51.103 27.7194 51.7359 28.0983 52.1377L33.5864 57.9584L27.7657 63.4465C27.3638 63.8254 27.3452 64.4583 27.7241 64.8601C28.103 65.262 28.7359 65.2806 29.1377 64.9017L35.686 58.7276ZM0.970601 57.9996L34.9706 58.9996L35.0294 57.0004L1.0294 56.0004L0.970601 57.9996Z" fill="black"/>
<path d="M105.12 51C104.773 51 104.5 50.9067 104.3 50.72C104.113 50.52 104.02 50.2533 104.02 49.92C104.02 49.5733 104.113 49.3133 104.3 49.14C104.5 48.9667 104.773 48.88 105.12 48.88H107.36V39.06H108.6L105.66 40.84C105.407 40.9867 105.167 41.0467 104.94 41.02C104.727 40.98 104.54 40.8867 104.38 40.74C104.233 40.58 104.133 40.3933 104.08 40.18C104.027 39.9667 104.04 39.7533 104.12 39.54C104.213 39.3133 104.387 39.1267 104.64 38.98L107.4 37.32C107.667 37.16 107.933 37.0267 108.2 36.92C108.467 36.8 108.713 36.74 108.94 36.74C109.22 36.74 109.453 36.82 109.64 36.98C109.827 37.1267 109.92 37.3733 109.92 37.72V48.88H111.96C112.307 48.88 112.573 48.9667 112.76 49.14C112.96 49.3133 113.06 49.5733 113.06 49.92C113.06 50.2667 112.96 50.5333 112.76 50.72C112.573 50.9067 112.307 51 111.96 51H105.12ZM121.922 51.1C121.469 51.1 121.102 50.96 120.822 50.68C120.555 50.4 120.422 50.04 120.422 49.6C120.422 49.1733 120.555 48.8267 120.822 48.56C121.102 48.28 121.469 48.14 121.922 48.14C122.389 48.14 122.749 48.28 123.002 48.56C123.269 48.8267 123.402 49.1733 123.402 49.6C123.402 50.04 123.269 50.4 123.002 50.68C122.749 50.96 122.389 51.1 121.922 51.1ZM126.883 51.1C126.429 51.1 126.063 50.96 125.783 50.68C125.516 50.4 125.383 50.04 125.383 49.6C125.383 49.1733 125.516 48.8267 125.783 48.56C126.063 48.28 126.429 48.14 126.883 48.14C127.349 48.14 127.709 48.28 127.963 48.56C128.229 48.8267 128.363 49.1733 128.363 49.6C128.363 50.04 128.229 50.4 127.963 50.68C127.709 50.96 127.349 51.1 126.883 51.1ZM131.844 51.1C131.39 51.1 131.024 50.96 130.744 50.68C130.477 50.4 130.344 50.04 130.344 49.6C130.344 49.1733 130.477 48.8267 130.744 48.56C131.024 48.28 131.39 48.14 131.844 48.14C132.31 48.14 132.67 48.28 132.924 48.56C133.19 48.8267 133.324 49.1733 133.324 49.6C133.324 50.04 133.19 50.4 132.924 50.68C132.67 50.96 132.31 51.1 131.844 51.1ZM139.205 51.2C138.631 51.2 138.038 51.1133 137.425 50.94C136.811 50.7533 136.238 50.48 135.705 50.12C135.491 49.9867 135.351 49.8133 135.285 49.6C135.218 49.3867 135.205 49.18 135.245 48.98C135.298 48.7667 135.391 48.5867 135.525 48.44C135.671 48.28 135.851 48.1867 136.065 48.16C136.278 48.12 136.511 48.1733 136.765 48.32C137.218 48.5867 137.645 48.7733 138.045 48.88C138.445 48.9867 138.845 49.04 139.245 49.04C140.018 49.04 140.671 48.86 141.205 48.5C141.738 48.14 142.138 47.6 142.405 46.88C142.685 46.1467 142.825 45.2467 142.825 44.18V42.68H143.065C142.971 43.3467 142.751 43.9267 142.405 44.42C142.058 44.9133 141.618 45.2933 141.085 45.56C140.551 45.8133 139.958 45.94 139.305 45.94C138.505 45.94 137.785 45.7467 137.145 45.36C136.518 44.9733 136.025 44.44 135.665 43.76C135.305 43.0667 135.125 42.2867 135.125 41.42C135.125 40.5 135.318 39.6867 135.705 38.98C136.105 38.2733 136.658 37.72 137.365 37.32C138.071 36.9067 138.878 36.7 139.785 36.7C140.958 36.7 141.951 36.9733 142.765 37.52C143.578 38.0667 144.198 38.8667 144.625 39.92C145.051 40.96 145.265 42.22 145.265 43.7C145.265 44.9 145.125 45.9667 144.845 46.9C144.578 47.82 144.185 48.6 143.665 49.24C143.145 49.88 142.505 50.3667 141.745 50.7C140.998 51.0333 140.151 51.2 139.205 51.2ZM139.945 43.9C140.425 43.9 140.845 43.7933 141.205 43.58C141.578 43.3533 141.865 43.0467 142.065 42.66C142.265 42.26 142.365 41.8067 142.365 41.3C142.365 40.78 142.265 40.3267 142.065 39.94C141.865 39.5533 141.578 39.2533 141.205 39.04C140.845 38.8267 140.425 38.72 139.945 38.72C139.465 38.72 139.045 38.8267 138.685 39.04C138.325 39.2533 138.038 39.5533 137.825 39.94C137.625 40.3267 137.525 40.78 137.525 41.3C137.525 41.8067 137.625 42.26 137.825 42.66C138.038 43.0467 138.325 43.3533 138.685 43.58C139.045 43.7933 139.465 43.9 139.945 43.9Z" fill="black"/>
<path d="M230 20.2C228.333 20.2 227.06 19.5733 226.18 18.32C225.3 17.0533 224.86 15.2533 224.86 12.92C224.86 11.3467 225.053 10.0267 225.44 8.96C225.84 7.88 226.42 7.06667 227.18 6.52C227.953 5.97333 228.893 5.7 230 5.7C231.68 5.7 232.953 6.31333 233.82 7.54C234.7 8.76667 235.14 10.5533 235.14 12.9C235.14 14.46 234.94 15.7867 234.54 16.88C234.153 17.96 233.58 18.7867 232.82 19.36C232.06 19.92 231.12 20.2 230 20.2ZM230 18.1C230.907 18.1 231.573 17.68 232 16.84C232.44 16 232.66 14.6867 232.66 12.9C232.66 11.1133 232.44 9.82 232 9.02C231.573 8.20667 230.907 7.8 230 7.8C229.107 7.8 228.44 8.20667 228 9.02C227.56 9.82 227.34 11.1133 227.34 12.9C227.34 14.6867 227.56 16 228 16.84C228.44 17.68 229.107 18.1 230 18.1ZM243.922 20.1C243.469 20.1 243.102 19.96 242.822 19.68C242.555 19.4 242.422 19.04 242.422 18.6C242.422 18.1733 242.555 17.8267 242.822 17.56C243.102 17.28 243.469 17.14 243.922 17.14C244.389 17.14 244.749 17.28 245.002 17.56C245.269 17.8267 245.402 18.1733 245.402 18.6C245.402 19.04 245.269 19.4 245.002 19.68C244.749 19.96 244.389 20.1 243.922 20.1ZM248.883 20.1C248.429 20.1 248.063 19.96 247.783 19.68C247.516 19.4 247.383 19.04 247.383 18.6C247.383 18.1733 247.516 17.8267 247.783 17.56C248.063 17.28 248.429 17.14 248.883 17.14C249.349 17.14 249.709 17.28 249.963 17.56C250.229 17.8267 250.363 18.1733 250.363 18.6C250.363 19.04 250.229 19.4 249.963 19.68C249.709 19.96 249.349 20.1 248.883 20.1ZM253.844 20.1C253.39 20.1 253.024 19.96 252.744 19.68C252.477 19.4 252.344 19.04 252.344 18.6C252.344 18.1733 252.477 17.8267 252.744 17.56C253.024 17.28 253.39 17.14 253.844 17.14C254.31 17.14 254.67 17.28 254.924 17.56C255.19 17.8267 255.324 18.1733 255.324 18.6C255.324 19.04 255.19 19.4 254.924 19.68C254.67 19.96 254.31 20.1 253.844 20.1ZM266.634 20.2C266.061 20.2 265.468 20.1133 264.854 19.94C264.241 19.7533 263.668 19.48 263.134 19.12C262.921 18.9867 262.781 18.8133 262.714 18.6C262.648 18.3867 262.634 18.18 262.674 17.98C262.728 17.7667 262.821 17.5867 262.954 17.44C263.101 17.28 263.281 17.1867 263.494 17.16C263.708 17.12 263.941 17.1733 264.194 17.32C264.648 17.5867 265.074 17.7733 265.474 17.88C265.874 17.9867 266.274 18.04 266.674 18.04C267.448 18.04 268.101 17.86 268.634 17.5C269.168 17.14 269.568 16.6 269.834 15.88C270.114 15.1467 270.254 14.2467 270.254 13.18V11.68H270.494C270.401 12.3467 270.181 12.9267 269.834 13.42C269.488 13.9133 269.048 14.2933 268.514 14.56C267.981 14.8133 267.388 14.94 266.734 14.94C265.934 14.94 265.214 14.7467 264.574 14.36C263.948 13.9733 263.454 13.44 263.094 12.76C262.734 12.0667 262.554 11.2867 262.554 10.42C262.554 9.5 262.748 8.68667 263.134 7.98C263.534 7.27333 264.088 6.72 264.794 6.32C265.501 5.90667 266.308 5.7 267.214 5.7C268.388 5.7 269.381 5.97333 270.194 6.52C271.008 7.06667 271.628 7.86667 272.054 8.92C272.481 9.96 272.694 11.22 272.694 12.7C272.694 13.9 272.554 14.9667 272.274 15.9C272.008 16.82 271.614 17.6 271.094 18.24C270.574 18.88 269.934 19.3667 269.174 19.7C268.428 20.0333 267.581 20.2 266.634 20.2ZM267.374 12.9C267.854 12.9 268.274 12.7933 268.634 12.58C269.008 12.3533 269.294 12.0467 269.494 11.66C269.694 11.26 269.794 10.8067 269.794 10.3C269.794 9.78 269.694 9.32667 269.494 8.94C269.294 8.55333 269.008 8.25333 268.634 8.04C268.274 7.82667 267.854 7.72 267.374 7.72C266.894 7.72 266.474 7.82667 266.114 8.04C265.754 8.25333 265.468 8.55333 265.254 8.94C265.054 9.32667 264.954 9.78 264.954 10.3C264.954 10.8067 265.054 11.26 265.254 11.66C265.468 12.0467 265.754 12.3533 266.114 12.58C266.474 12.7933 266.894 12.9 267.374 12.9Z" fill="black"/>
<path d="M97 108.2C95.3333 108.2 94.06 107.573 93.18 106.32C92.3 105.053 91.86 103.253 91.86 100.92C91.86 99.3467 92.0533 98.0267 92.44 96.96C92.84 95.88 93.42 95.0667 94.18 94.52C94.9533 93.9733 95.8933 93.7 97 93.7C98.68 93.7 99.9533 94.3133 100.82 95.54C101.7 96.7667 102.14 98.5533 102.14 100.9C102.14 102.46 101.94 103.787 101.54 104.88C101.153 105.96 100.58 106.787 99.82 107.36C99.06 107.92 98.12 108.2 97 108.2ZM97 106.1C97.9067 106.1 98.5733 105.68 99 104.84C99.44 104 99.66 102.687 99.66 100.9C99.66 99.1133 99.44 97.82 99 97.02C98.5733 96.2067 97.9067 95.8 97 95.8C96.1067 95.8 95.44 96.2067 95 97.02C94.56 97.82 94.34 99.1133 94.34 100.9C94.34 102.687 94.56 104 95 104.84C95.44 105.68 96.1067 106.1 97 106.1Z" fill="black"/>
</svg>
