<svg width="161" height="133" viewBox="0 0 161 133" fill="none" xmlns="http://www.w3.org/2000/svg">
<path d="M72.0023 11.604C71.8743 11.604 71.7783 11.568 71.7143 11.496C71.6503 11.424 71.6183 11.328 71.6183 11.208V8.928H69.3743C69.2543 8.928 69.1583 8.896 69.0863 8.832C69.0223 8.768 68.9903 8.676 68.9903 8.556C68.9903 8.436 69.0223 8.344 69.0863 8.28C69.1583 8.216 69.2543 8.184 69.3743 8.184H71.6183V5.976C71.6183 5.848 71.6503 5.752 71.7143 5.688C71.7783 5.616 71.8743 5.58 72.0023 5.58C72.1303 5.58 72.2263 5.616 72.2903 5.688C72.3543 5.752 72.3863 5.848 72.3863 5.976V8.184H74.6303C74.7503 8.184 74.8423 8.216 74.9063 8.28C74.9783 8.344 75.0143 8.436 75.0143 8.556C75.0143 8.676 74.9783 8.768 74.9063 8.832C74.8423 8.896 74.7503 8.928 74.6303 8.928H72.3863V11.208C72.3863 11.328 72.3543 11.424 72.2903 11.496C72.2263 11.568 72.1303 11.604 72.0023 11.604Z" fill="black"/>
<path d="M34 40L39.6892 39.0167L35.9931 34.5814L34 40ZM63.6799 14.6159L37.1369 36.7351L37.7771 37.5033L64.3201 15.3841L63.6799 14.6159Z" fill="black"/>
<path d="M110 40L108.193 34.5166L104.348 38.8233L110 40ZM81.667 15.373L106.31 37.3759L106.976 36.63L82.333 14.627L81.667 15.373Z" fill="black"/>
<path d="M31.7837 52.072C31.6797 52.072 31.5877 52.04 31.5077 51.976C31.4277 51.912 31.3837 51.828 31.3757 51.724C31.3757 51.612 31.4277 51.496 31.5317 51.376L33.6317 48.736V49.24L31.6637 46.78C31.5597 46.652 31.5077 46.536 31.5077 46.432C31.5157 46.328 31.5597 46.244 31.6397 46.18C31.7197 46.116 31.8117 46.084 31.9157 46.084C32.0357 46.084 32.1357 46.108 32.2157 46.156C32.3037 46.196 32.3837 46.264 32.4557 46.36L34.1717 48.532H33.8357L35.5637 46.36C35.6357 46.264 35.7117 46.196 35.7917 46.156C35.8717 46.108 35.9717 46.084 36.0917 46.084C36.2037 46.084 36.2957 46.116 36.3677 46.18C36.4477 46.244 36.4877 46.332 36.4877 46.444C36.4957 46.548 36.4477 46.664 36.3437 46.792L34.3877 49.216V48.772L36.4877 51.376C36.5837 51.496 36.6277 51.612 36.6197 51.724C36.6197 51.828 36.5797 51.912 36.4997 51.976C36.4197 52.04 36.3237 52.072 36.2117 52.072C36.0997 52.072 35.9997 52.048 35.9117 52C35.8317 51.96 35.7517 51.892 35.6717 51.796L33.8237 49.468H34.1717L32.3237 51.796C32.2517 51.884 32.1717 51.952 32.0837 52C32.0037 52.048 31.9037 52.072 31.7837 52.072Z" fill="black"/>
<path d="M13 70L18.5768 68.5057L14.4943 64.4232L13 70ZM27.6464 54.6464L15.8284 66.4645L16.5355 67.1716L28.3536 55.3536L27.6464 54.6464Z" fill="black"/>
<path d="M52 70L50.9068 64.3309L46.5439 68.1122L52 70ZM38.6222 55.3275L48.675 66.9269L49.4307 66.2719L39.3778 54.6725L38.6222 55.3275Z" fill="black"/>
<path d="M13.5664 82.108C13.1664 82.108 12.8064 82.032 12.4864 81.88C12.1744 81.72 11.9264 81.504 11.7424 81.232C11.5584 80.96 11.4664 80.656 11.4664 80.32C11.4664 79.888 11.5744 79.548 11.7904 79.3C12.0144 79.052 12.3784 78.876 12.8824 78.772C13.3944 78.668 14.0904 78.616 14.9704 78.616H15.5104V79.252H14.9824C14.3344 79.252 13.8224 79.284 13.4464 79.348C13.0784 79.404 12.8184 79.504 12.6664 79.648C12.5224 79.792 12.4504 79.996 12.4504 80.26C12.4504 80.588 12.5624 80.856 12.7864 81.064C13.0184 81.272 13.3304 81.376 13.7224 81.376C14.0424 81.376 14.3224 81.3 14.5624 81.148C14.8104 80.996 15.0024 80.788 15.1384 80.524C15.2824 80.26 15.3544 79.956 15.3544 79.612V78.244C15.3544 77.748 15.2544 77.392 15.0544 77.176C14.8544 76.952 14.5264 76.84 14.0704 76.84C13.7904 76.84 13.5104 76.876 13.2304 76.948C12.9504 77.02 12.6544 77.136 12.3424 77.296C12.2304 77.352 12.1344 77.372 12.0544 77.356C11.9744 77.332 11.9104 77.288 11.8624 77.224C11.8144 77.16 11.7864 77.088 11.7784 77.008C11.7704 76.92 11.7864 76.836 11.8264 76.756C11.8744 76.676 11.9464 76.612 12.0424 76.564C12.3944 76.388 12.7424 76.26 13.0864 76.18C13.4304 76.1 13.7584 76.06 14.0704 76.06C14.5744 76.06 14.9904 76.144 15.3184 76.312C15.6464 76.472 15.8904 76.72 16.0504 77.056C16.2104 77.384 16.2904 77.808 16.2904 78.328V81.58C16.2904 81.74 16.2504 81.864 16.1704 81.952C16.0984 82.04 15.9904 82.084 15.8464 82.084C15.6944 82.084 15.5784 82.04 15.4984 81.952C15.4184 81.864 15.3784 81.74 15.3784 81.58V80.644H15.4864C15.4224 80.948 15.2984 81.208 15.1144 81.424C14.9384 81.64 14.7184 81.808 14.4544 81.928C14.1904 82.048 13.8944 82.108 13.5664 82.108Z" fill="black"/>
<path d="M32.5664 132.108C32.1664 132.108 31.8064 132.032 31.4864 131.88C31.1744 131.72 30.9264 131.504 30.7424 131.232C30.5584 130.96 30.4664 130.656 30.4664 130.32C30.4664 129.888 30.5744 129.548 30.7904 129.3C31.0144 129.052 31.3784 128.876 31.8824 128.772C32.3944 128.668 33.0904 128.616 33.9704 128.616H34.5104V129.252H33.9824C33.3344 129.252 32.8224 129.284 32.4464 129.348C32.0784 129.404 31.8184 129.504 31.6664 129.648C31.5224 129.792 31.4504 129.996 31.4504 130.26C31.4504 130.588 31.5624 130.856 31.7864 131.064C32.0184 131.272 32.3304 131.376 32.7224 131.376C33.0424 131.376 33.3224 131.3 33.5624 131.148C33.8104 130.996 34.0024 130.788 34.1384 130.524C34.2824 130.26 34.3544 129.956 34.3544 129.612V128.244C34.3544 127.748 34.2544 127.392 34.0544 127.176C33.8544 126.952 33.5264 126.84 33.0704 126.84C32.7904 126.84 32.5104 126.876 32.2304 126.948C31.9504 127.02 31.6544 127.136 31.3424 127.296C31.2304 127.352 31.1344 127.372 31.0544 127.356C30.9744 127.332 30.9104 127.288 30.8624 127.224C30.8144 127.16 30.7864 127.088 30.7784 127.008C30.7704 126.92 30.7864 126.836 30.8264 126.756C30.8744 126.676 30.9464 126.612 31.0424 126.564C31.3944 126.388 31.7424 126.26 32.0864 126.18C32.4304 126.1 32.7584 126.06 33.0704 126.06C33.5744 126.06 33.9904 126.144 34.3184 126.312C34.6464 126.472 34.8904 126.72 35.0504 127.056C35.2104 127.384 35.2904 127.808 35.2904 128.328V131.58C35.2904 131.74 35.2504 131.864 35.1704 131.952C35.0984 132.04 34.9904 132.084 34.8464 132.084C34.6944 132.084 34.5784 132.04 34.4984 131.952C34.4184 131.864 34.3784 131.74 34.3784 131.58V130.644H34.4864C34.4224 130.948 34.2984 131.208 34.1144 131.424C33.9384 131.64 33.7184 131.808 33.4544 131.928C33.1904 132.048 32.8944 132.108 32.5664 132.108Z" fill="black"/>
<path d="M148.366 91.108C147.838 91.108 147.382 90.972 146.998 90.7C146.622 90.428 146.37 90.064 146.242 89.608L146.374 89.476V90.58C146.374 90.74 146.33 90.864 146.242 90.952C146.162 91.04 146.046 91.084 145.894 91.084C145.734 91.084 145.614 91.04 145.534 90.952C145.454 90.864 145.414 90.74 145.414 90.58V82.948C145.414 82.788 145.454 82.668 145.534 82.588C145.614 82.5 145.734 82.456 145.894 82.456C146.046 82.456 146.166 82.5 146.254 82.588C146.342 82.668 146.386 82.788 146.386 82.948V86.524H146.242C146.378 86.076 146.634 85.72 147.01 85.456C147.386 85.192 147.838 85.06 148.366 85.06C148.894 85.06 149.35 85.184 149.734 85.432C150.118 85.672 150.414 86.02 150.622 86.476C150.838 86.924 150.946 87.46 150.946 88.084C150.946 88.7 150.838 89.236 150.622 89.692C150.414 90.14 150.114 90.488 149.722 90.736C149.338 90.984 148.886 91.108 148.366 91.108ZM148.162 90.328C148.53 90.328 148.846 90.24 149.11 90.064C149.382 89.888 149.59 89.632 149.734 89.296C149.886 88.96 149.962 88.556 149.962 88.084C149.962 87.356 149.798 86.8 149.47 86.416C149.15 86.032 148.714 85.84 148.162 85.84C147.802 85.84 147.486 85.928 147.214 86.104C146.942 86.272 146.73 86.524 146.578 86.86C146.434 87.188 146.362 87.596 146.362 88.084C146.362 88.804 146.526 89.36 146.854 89.752C147.182 90.136 147.618 90.328 148.162 90.328Z" fill="black"/>
<path d="M106.95 132C106.774 132 106.642 131.96 106.554 131.88C106.474 131.792 106.434 131.676 106.434 131.532C106.434 131.444 106.454 131.36 106.494 131.28C106.542 131.192 106.606 131.104 106.686 131.016L109.374 128.136C109.782 127.696 110.074 127.292 110.25 126.924C110.434 126.548 110.526 126.168 110.526 125.784C110.526 125.304 110.378 124.94 110.082 124.692C109.794 124.436 109.37 124.308 108.81 124.308C108.45 124.308 108.11 124.364 107.79 124.476C107.47 124.588 107.162 124.76 106.866 124.992C106.762 125.072 106.666 125.108 106.578 125.1C106.498 125.092 106.426 125.06 106.362 125.004C106.298 124.948 106.254 124.876 106.23 124.788C106.206 124.7 106.206 124.612 106.23 124.524C106.262 124.436 106.326 124.356 106.422 124.284C106.734 124.028 107.11 123.824 107.55 123.672C107.99 123.512 108.438 123.432 108.894 123.432C109.462 123.432 109.942 123.52 110.334 123.696C110.726 123.872 111.022 124.132 111.222 124.476C111.422 124.812 111.522 125.224 111.522 125.712C111.522 126.048 111.466 126.38 111.354 126.708C111.25 127.028 111.086 127.356 110.862 127.692C110.646 128.028 110.362 128.376 110.01 128.736L107.454 131.436V131.16H111.498C111.65 131.16 111.762 131.196 111.834 131.268C111.914 131.332 111.954 131.432 111.954 131.568C111.954 131.712 111.914 131.82 111.834 131.892C111.762 131.964 111.65 132 111.498 132H106.95Z" fill="black"/>
<path d="M49.9503 82C49.7743 82 49.6423 81.96 49.5543 81.88C49.4743 81.792 49.4343 81.676 49.4343 81.532C49.4343 81.444 49.4543 81.36 49.4943 81.28C49.5423 81.192 49.6063 81.104 49.6863 81.016L52.3743 78.136C52.7823 77.696 53.0743 77.292 53.2503 76.924C53.4343 76.548 53.5263 76.168 53.5263 75.784C53.5263 75.304 53.3783 74.94 53.0823 74.692C52.7943 74.436 52.3703 74.308 51.8103 74.308C51.4503 74.308 51.1103 74.364 50.7903 74.476C50.4703 74.588 50.1623 74.76 49.8663 74.992C49.7623 75.072 49.6663 75.108 49.5783 75.1C49.4983 75.092 49.4263 75.06 49.3623 75.004C49.2983 74.948 49.2543 74.876 49.2303 74.788C49.2063 74.7 49.2063 74.612 49.2303 74.524C49.2623 74.436 49.3263 74.356 49.4223 74.284C49.7343 74.028 50.1103 73.824 50.5503 73.672C50.9903 73.512 51.4383 73.432 51.8943 73.432C52.4623 73.432 52.9423 73.52 53.3343 73.696C53.7263 73.872 54.0223 74.132 54.2223 74.476C54.4223 74.812 54.5223 75.224 54.5223 75.712C54.5223 76.048 54.4663 76.38 54.3543 76.708C54.2503 77.028 54.0863 77.356 53.8623 77.692C53.6463 78.028 53.3623 78.376 53.0103 78.736L50.4543 81.436V81.16H54.4983C54.6503 81.16 54.7623 81.196 54.8343 81.268C54.9143 81.332 54.9543 81.432 54.9543 81.568C54.9543 81.712 54.9143 81.82 54.8343 81.892C54.7623 81.964 54.6503 82 54.4983 82H49.9503Z" fill="black"/>
<path d="M107.784 52.072C107.68 52.072 107.588 52.04 107.508 51.976C107.428 51.912 107.384 51.828 107.376 51.724C107.376 51.612 107.428 51.496 107.532 51.376L109.632 48.736V49.24L107.664 46.78C107.56 46.652 107.508 46.536 107.508 46.432C107.516 46.328 107.56 46.244 107.64 46.18C107.72 46.116 107.812 46.084 107.916 46.084C108.036 46.084 108.136 46.108 108.216 46.156C108.304 46.196 108.384 46.264 108.456 46.36L110.172 48.532H109.836L111.564 46.36C111.636 46.264 111.712 46.196 111.792 46.156C111.872 46.108 111.972 46.084 112.092 46.084C112.204 46.084 112.296 46.116 112.368 46.18C112.448 46.244 112.488 46.332 112.488 46.444C112.496 46.548 112.448 46.664 112.344 46.792L110.388 49.216V48.772L112.488 51.376C112.584 51.496 112.628 51.612 112.62 51.724C112.62 51.828 112.58 51.912 112.5 51.976C112.42 52.04 112.324 52.072 112.212 52.072C112.1 52.072 112 52.048 111.912 52C111.832 51.96 111.752 51.892 111.672 51.796L109.824 49.468H110.172L108.324 51.796C108.252 51.884 108.172 51.952 108.084 52C108.004 52.048 107.904 52.072 107.784 52.072Z" fill="black"/>
<path d="M72 80L77.6892 79.0167L73.9931 74.5814L72 80ZM101.68 54.6159L75.1369 76.7351L75.7771 77.5033L102.32 55.3841L101.68 54.6159Z" fill="black"/>
<path d="M148 80L146.193 74.5166L142.348 78.8233L148 80ZM119.667 55.373L144.31 77.3759L144.976 76.63L120.333 54.627L119.667 55.373Z" fill="black"/>
<path d="M68.7837 92.072C68.6797 92.072 68.5877 92.04 68.5077 91.976C68.4277 91.912 68.3837 91.828 68.3757 91.724C68.3757 91.612 68.4277 91.496 68.5317 91.376L70.6317 88.736V89.24L68.6637 86.78C68.5597 86.652 68.5077 86.536 68.5077 86.432C68.5157 86.328 68.5597 86.244 68.6397 86.18C68.7197 86.116 68.8117 86.084 68.9157 86.084C69.0357 86.084 69.1357 86.108 69.2157 86.156C69.3037 86.196 69.3837 86.264 69.4557 86.36L71.1717 88.532H70.8357L72.5637 86.36C72.6357 86.264 72.7117 86.196 72.7917 86.156C72.8717 86.108 72.9717 86.084 73.0917 86.084C73.2037 86.084 73.2957 86.116 73.3677 86.18C73.4477 86.244 73.4877 86.332 73.4877 86.444C73.4957 86.548 73.4477 86.664 73.3437 86.792L71.3877 89.216V88.772L73.4877 91.376C73.5837 91.496 73.6277 91.612 73.6197 91.724C73.6197 91.828 73.5797 91.912 73.4997 91.976C73.4197 92.04 73.3237 92.072 73.2117 92.072C73.0997 92.072 72.9997 92.048 72.9117 92C72.8317 91.96 72.7517 91.892 72.6717 91.796L70.8237 89.468H71.1717L69.3237 91.796C69.2517 91.884 69.1717 91.952 69.0837 92C69.0037 92.048 68.9037 92.072 68.7837 92.072Z" fill="black"/>
<path d="M33 120L38.6892 119.017L34.9931 114.581L33 120ZM62.6799 94.6159L36.1369 116.735L36.7771 117.503L63.3201 95.3841L62.6799 94.6159Z" fill="black"/>
<path d="M109 120L107.193 114.517L103.348 118.823L109 120ZM80.667 95.373L105.31 117.376L105.976 116.63L81.333 94.627L80.667 95.373Z" fill="black"/>
</svg>
