<svg width="180" height="152" viewBox="0 0 180 152" fill="none" xmlns="http://www.w3.org/2000/svg">
<path d="M88.2852 12C88.1092 12 87.9732 11.956 87.8772 11.868C87.7892 11.772 87.7452 11.636 87.7452 11.46V4.08C87.7452 3.904 87.7892 3.772 87.8772 3.684C87.9732 3.588 88.1092 3.54 88.2852 3.54H92.7492C92.8852 3.54 92.9892 3.576 93.0612 3.648C93.1332 3.72 93.1692 3.82 93.1692 3.948C93.1692 4.084 93.1332 4.188 93.0612 4.26C92.9892 4.332 92.8852 4.368 92.7492 4.368H88.7052V7.296H92.4972C92.6332 7.296 92.7372 7.332 92.8092 7.404C92.8812 7.468 92.9172 7.568 92.9172 7.704C92.9172 7.84 92.8812 7.944 92.8092 8.016C92.7372 8.088 92.6332 8.124 92.4972 8.124H88.7052V11.172H92.7492C92.8852 11.172 92.9892 11.208 93.0612 11.28C93.1332 11.352 93.1692 11.452 93.1692 11.58C93.1692 11.716 93.1332 11.82 93.0612 11.892C92.9892 11.964 92.8852 12 92.7492 12H88.2852ZM94.6333 12.072C94.5293 12.072 94.4373 12.04 94.3573 11.976C94.2773 11.912 94.2333 11.828 94.2253 11.724C94.2253 11.612 94.2773 11.496 94.3813 11.376L96.4813 8.736V9.24L94.5133 6.78C94.4093 6.652 94.3573 6.536 94.3573 6.432C94.3653 6.328 94.4093 6.244 94.4893 6.18C94.5693 6.116 94.6613 6.084 94.7653 6.084C94.8853 6.084 94.9853 6.108 95.0653 6.156C95.1533 6.196 95.2333 6.264 95.3053 6.36L97.0213 8.532H96.6853L98.4133 6.36C98.4853 6.264 98.5613 6.196 98.6413 6.156C98.7213 6.108 98.8213 6.084 98.9413 6.084C99.0533 6.084 99.1453 6.116 99.2173 6.18C99.2973 6.244 99.3373 6.332 99.3373 6.444C99.3453 6.548 99.2973 6.664 99.1933 6.792L97.2373 9.216V8.772L99.3373 11.376C99.4333 11.496 99.4773 11.612 99.4693 11.724C99.4693 11.828 99.4293 11.912 99.3493 11.976C99.2693 12.04 99.1733 12.072 99.0613 12.072C98.9493 12.072 98.8493 12.048 98.7613 12C98.6813 11.96 98.6013 11.892 98.5213 11.796L96.6733 9.468H97.0213L95.1733 11.796C95.1013 11.884 95.0213 11.952 94.9333 12C94.8533 12.048 94.7533 12.072 94.6333 12.072ZM101.394 14.244C101.234 14.244 101.114 14.2 101.034 14.112C100.954 14.032 100.914 13.912 100.914 13.752V6.576C100.914 6.416 100.954 6.296 101.034 6.216C101.114 6.128 101.23 6.084 101.382 6.084C101.542 6.084 101.662 6.128 101.742 6.216C101.83 6.296 101.874 6.416 101.874 6.576V7.716L101.742 7.548C101.87 7.092 102.122 6.732 102.498 6.468C102.882 6.196 103.338 6.06 103.866 6.06C104.386 6.06 104.838 6.184 105.222 6.432C105.614 6.672 105.914 7.02 106.122 7.476C106.338 7.924 106.446 8.46 106.446 9.084C106.446 9.7 106.338 10.236 106.122 10.692C105.914 11.14 105.618 11.488 105.234 11.736C104.85 11.984 104.394 12.108 103.866 12.108C103.338 12.108 102.886 11.976 102.51 11.712C102.134 11.44 101.878 11.08 101.742 10.632H101.886V13.752C101.886 13.912 101.842 14.032 101.754 14.112C101.666 14.2 101.546 14.244 101.394 14.244ZM103.662 11.328C104.03 11.328 104.346 11.24 104.61 11.064C104.882 10.888 105.09 10.632 105.234 10.296C105.386 9.96 105.462 9.556 105.462 9.084C105.462 8.356 105.298 7.8 104.97 7.416C104.65 7.032 104.214 6.84 103.662 6.84C103.302 6.84 102.986 6.928 102.714 7.104C102.442 7.272 102.23 7.524 102.078 7.86C101.934 8.188 101.862 8.596 101.862 9.084C101.862 9.804 102.026 10.36 102.354 10.752C102.682 11.136 103.118 11.328 103.662 11.328ZM108.402 12.084C108.242 12.084 108.118 12.04 108.03 11.952C107.95 11.864 107.91 11.74 107.91 11.58V6.576C107.91 6.416 107.95 6.296 108.03 6.216C108.11 6.128 108.226 6.084 108.378 6.084C108.53 6.084 108.646 6.128 108.726 6.216C108.814 6.296 108.858 6.416 108.858 6.576V7.548H108.738C108.866 7.076 109.11 6.712 109.47 6.456C109.83 6.2 110.274 6.064 110.802 6.048C110.922 6.04 111.018 6.068 111.09 6.132C111.162 6.188 111.202 6.288 111.21 6.432C111.218 6.568 111.186 6.676 111.114 6.756C111.042 6.836 110.93 6.884 110.778 6.9L110.586 6.924C110.042 6.972 109.622 7.148 109.326 7.452C109.038 7.748 108.894 8.156 108.894 8.676V11.58C108.894 11.74 108.85 11.864 108.762 11.952C108.682 12.04 108.562 12.084 108.402 12.084Z" fill="black"/>
<path d="M61 40L66.7723 39.8806L63.7827 34.9414L61 40ZM98.7411 16.5722L64.5909 37.2421L65.1087 38.0976L99.2589 17.4278L98.7411 16.5722Z" fill="black"/>
<path d="M153 40L149.531 35.3848L147.269 40.6966L153 40ZM98.8041 17.46L148.664 38.6966L149.056 37.7766L99.1959 16.54L98.8041 17.46Z" fill="black"/>
<path d="M108 40L108.866 34.2919L103.49 36.3957L108 40ZM98.5344 17.1822L105.895 35.9916L106.826 35.6272L99.4656 16.8178L98.5344 17.1822Z" fill="black"/>
<path d="M108 74L110.887 69H105.113L108 74ZM107.5 55V69.5H108.5V55H107.5Z" fill="black"/>
<path d="M50.2852 52C50.1092 52 49.9732 51.956 49.8772 51.868C49.7892 51.772 49.7452 51.636 49.7452 51.46V44.08C49.7452 43.904 49.7892 43.772 49.8772 43.684C49.9732 43.588 50.1092 43.54 50.2852 43.54H54.7492C54.8852 43.54 54.9892 43.576 55.0612 43.648C55.1332 43.72 55.1692 43.82 55.1692 43.948C55.1692 44.084 55.1332 44.188 55.0612 44.26C54.9892 44.332 54.8852 44.368 54.7492 44.368H50.7052V47.296H54.4972C54.6332 47.296 54.7372 47.332 54.8092 47.404C54.8812 47.468 54.9172 47.568 54.9172 47.704C54.9172 47.84 54.8812 47.944 54.8092 48.016C54.7372 48.088 54.6332 48.124 54.4972 48.124H50.7052V51.172H54.7492C54.8852 51.172 54.9892 51.208 55.0612 51.28C55.1332 51.352 55.1692 51.452 55.1692 51.58C55.1692 51.716 55.1332 51.82 55.0612 51.892C54.9892 51.964 54.8852 52 54.7492 52H50.2852ZM56.6333 52.072C56.5293 52.072 56.4373 52.04 56.3573 51.976C56.2773 51.912 56.2333 51.828 56.2253 51.724C56.2253 51.612 56.2773 51.496 56.3813 51.376L58.4813 48.736V49.24L56.5133 46.78C56.4093 46.652 56.3573 46.536 56.3573 46.432C56.3653 46.328 56.4093 46.244 56.4893 46.18C56.5693 46.116 56.6613 46.084 56.7653 46.084C56.8853 46.084 56.9853 46.108 57.0653 46.156C57.1533 46.196 57.2333 46.264 57.3053 46.36L59.0213 48.532H58.6853L60.4133 46.36C60.4853 46.264 60.5613 46.196 60.6413 46.156C60.7213 46.108 60.8213 46.084 60.9413 46.084C61.0533 46.084 61.1453 46.116 61.2173 46.18C61.2973 46.244 61.3373 46.332 61.3373 46.444C61.3453 46.548 61.2973 46.664 61.1933 46.792L59.2373 49.216V48.772L61.3373 51.376C61.4333 51.496 61.4773 51.612 61.4693 51.724C61.4693 51.828 61.4293 51.912 61.3493 51.976C61.2693 52.04 61.1733 52.072 61.0613 52.072C60.9493 52.072 60.8493 52.048 60.7613 52C60.6813 51.96 60.6013 51.892 60.5213 51.796L58.6733 49.468H59.0213L57.1733 51.796C57.1013 51.884 57.0213 51.952 56.9333 52C56.8533 52.048 56.7533 52.072 56.6333 52.072ZM63.394 54.244C63.234 54.244 63.114 54.2 63.034 54.112C62.954 54.032 62.914 53.912 62.914 53.752V46.576C62.914 46.416 62.954 46.296 63.034 46.216C63.114 46.128 63.23 46.084 63.382 46.084C63.542 46.084 63.662 46.128 63.742 46.216C63.83 46.296 63.874 46.416 63.874 46.576V47.716L63.742 47.548C63.87 47.092 64.122 46.732 64.498 46.468C64.882 46.196 65.338 46.06 65.866 46.06C66.386 46.06 66.838 46.184 67.222 46.432C67.614 46.672 67.914 47.02 68.122 47.476C68.338 47.924 68.446 48.46 68.446 49.084C68.446 49.7 68.338 50.236 68.122 50.692C67.914 51.14 67.618 51.488 67.234 51.736C66.85 51.984 66.394 52.108 65.866 52.108C65.338 52.108 64.886 51.976 64.51 51.712C64.134 51.44 63.878 51.08 63.742 50.632H63.886V53.752C63.886 53.912 63.842 54.032 63.754 54.112C63.666 54.2 63.546 54.244 63.394 54.244ZM65.662 51.328C66.03 51.328 66.346 51.24 66.61 51.064C66.882 50.888 67.09 50.632 67.234 50.296C67.386 49.96 67.462 49.556 67.462 49.084C67.462 48.356 67.298 47.8 66.97 47.416C66.65 47.032 66.214 46.84 65.662 46.84C65.302 46.84 64.986 46.928 64.714 47.104C64.442 47.272 64.23 47.524 64.078 47.86C63.934 48.188 63.862 48.596 63.862 49.084C63.862 49.804 64.026 50.36 64.354 50.752C64.682 51.136 65.118 51.328 65.662 51.328ZM70.402 52.084C70.242 52.084 70.118 52.04 70.03 51.952C69.95 51.864 69.91 51.74 69.91 51.58V46.576C69.91 46.416 69.95 46.296 70.03 46.216C70.11 46.128 70.226 46.084 70.378 46.084C70.53 46.084 70.646 46.128 70.726 46.216C70.814 46.296 70.858 46.416 70.858 46.576V47.548H70.738C70.866 47.076 71.11 46.712 71.47 46.456C71.83 46.2 72.274 46.064 72.802 46.048C72.922 46.04 73.018 46.068 73.09 46.132C73.162 46.188 73.202 46.288 73.21 46.432C73.218 46.568 73.186 46.676 73.114 46.756C73.042 46.836 72.93 46.884 72.778 46.9L72.586 46.924C72.042 46.972 71.622 47.148 71.326 47.452C71.038 47.748 70.894 48.156 70.894 48.676V51.58C70.894 51.74 70.85 51.864 70.762 51.952C70.682 52.04 70.562 52.084 70.402 52.084Z" fill="black"/>
<path d="M104.498 52.108C103.714 52.108 103.03 51.932 102.446 51.58C101.87 51.22 101.422 50.716 101.102 50.068C100.79 49.42 100.634 48.652 100.634 47.764C100.634 47.092 100.722 46.492 100.898 45.964C101.082 45.428 101.342 44.976 101.678 44.608C102.014 44.232 102.418 43.944 102.89 43.744C103.37 43.536 103.906 43.432 104.498 43.432C105.298 43.432 105.986 43.608 106.562 43.96C107.146 44.312 107.594 44.812 107.906 45.46C108.226 46.1 108.386 46.864 108.386 47.752C108.386 48.424 108.294 49.028 108.11 49.564C107.926 50.1 107.666 50.556 107.33 50.932C106.994 51.308 106.586 51.6 106.106 51.808C105.634 52.008 105.098 52.108 104.498 52.108ZM104.498 51.232C105.106 51.232 105.618 51.096 106.034 50.824C106.458 50.552 106.782 50.156 107.006 49.636C107.23 49.116 107.342 48.492 107.342 47.764C107.342 46.668 107.094 45.82 106.598 45.22C106.11 44.612 105.41 44.308 104.498 44.308C103.906 44.308 103.398 44.444 102.974 44.716C102.558 44.988 102.238 45.384 102.014 45.904C101.79 46.416 101.678 47.036 101.678 47.764C101.678 48.852 101.926 49.704 102.422 50.32C102.918 50.928 103.61 51.232 104.498 51.232ZM110.494 54.244C110.334 54.244 110.214 54.2 110.134 54.112C110.054 54.032 110.014 53.912 110.014 53.752V46.576C110.014 46.416 110.054 46.296 110.134 46.216C110.214 46.128 110.33 46.084 110.482 46.084C110.642 46.084 110.762 46.128 110.842 46.216C110.93 46.296 110.974 46.416 110.974 46.576V47.716L110.842 47.548C110.97 47.092 111.222 46.732 111.598 46.468C111.982 46.196 112.438 46.06 112.966 46.06C113.486 46.06 113.938 46.184 114.322 46.432C114.714 46.672 115.014 47.02 115.222 47.476C115.438 47.924 115.546 48.46 115.546 49.084C115.546 49.7 115.438 50.236 115.222 50.692C115.014 51.14 114.718 51.488 114.334 51.736C113.95 51.984 113.494 52.108 112.966 52.108C112.438 52.108 111.986 51.976 111.61 51.712C111.234 51.44 110.978 51.08 110.842 50.632H110.986V53.752C110.986 53.912 110.942 54.032 110.854 54.112C110.766 54.2 110.646 54.244 110.494 54.244ZM112.762 51.328C113.13 51.328 113.446 51.24 113.71 51.064C113.982 50.888 114.19 50.632 114.334 50.296C114.486 49.96 114.562 49.556 114.562 49.084C114.562 48.356 114.398 47.8 114.07 47.416C113.75 47.032 113.314 46.84 112.762 46.84C112.402 46.84 112.086 46.928 111.814 47.104C111.542 47.272 111.33 47.524 111.178 47.86C111.034 48.188 110.962 48.596 110.962 49.084C110.962 49.804 111.126 50.36 111.454 50.752C111.782 51.136 112.218 51.328 112.762 51.328Z" fill="black"/>
<path d="M37 74L42.712 73.1598L39.1284 68.6331L37 74ZM60.6896 54.608L40.2179 70.8148L40.8386 71.5989L61.3104 55.392L60.6896 54.608Z" fill="black"/>
<path d="M84 74L81.9837 68.59L78.3067 73.0412L84 74ZM60.6816 55.3855L80.2122 71.5195L80.8491 70.7486L61.3184 54.6145L60.6816 55.3855Z" fill="black"/>
<path d="M61 74L63.8868 69H58.1132L61 74ZM60.5 55V69.5H61.5V55H60.5Z" fill="black"/>
<path d="M37.6157 88.028C37.1677 87.204 36.8397 86.36 36.6317 85.496C36.4237 84.624 36.3197 83.74 36.3197 82.844C36.3197 82.244 36.3637 81.652 36.4517 81.068C36.5477 80.484 36.6917 79.908 36.8837 79.34C37.0757 78.772 37.3197 78.212 37.6157 77.66C37.6717 77.556 37.7477 77.492 37.8437 77.468C37.9477 77.444 38.0437 77.452 38.1317 77.492C38.2277 77.524 38.2957 77.592 38.3357 77.696C38.3757 77.792 38.3677 77.916 38.3117 78.068C38.1037 78.596 37.9277 79.124 37.7837 79.652C37.6397 80.18 37.5317 80.708 37.4597 81.236C37.3877 81.764 37.3517 82.3 37.3517 82.844C37.3517 83.388 37.3877 83.924 37.4597 84.452C37.5397 84.98 37.6517 85.504 37.7957 86.024C37.9397 86.552 38.1117 87.084 38.3117 87.62C38.3757 87.772 38.3837 87.896 38.3357 87.992C38.2957 88.096 38.2277 88.164 38.1317 88.196C38.0437 88.236 37.9477 88.244 37.8437 88.22C37.7477 88.196 37.6717 88.132 37.6157 88.028Z" fill="black"/>
<path d="M57.4983 119.108C56.7143 119.108 56.0303 118.932 55.4463 118.58C54.8703 118.22 54.4223 117.716 54.1023 117.068C53.7903 116.42 53.6343 115.652 53.6343 114.764C53.6343 114.092 53.7223 113.492 53.8983 112.964C54.0823 112.428 54.3423 111.976 54.6783 111.608C55.0143 111.232 55.4183 110.944 55.8903 110.744C56.3703 110.536 56.9063 110.432 57.4983 110.432C58.2983 110.432 58.9863 110.608 59.5623 110.96C60.1463 111.312 60.5943 111.812 60.9063 112.46C61.2263 113.1 61.3863 113.864 61.3863 114.752C61.3863 115.424 61.2943 116.028 61.1103 116.564C60.9263 117.1 60.6663 117.556 60.3303 117.932C59.9943 118.308 59.5863 118.6 59.1063 118.808C58.6343 119.008 58.0983 119.108 57.4983 119.108ZM57.4983 118.232C58.1063 118.232 58.6183 118.096 59.0343 117.824C59.4583 117.552 59.7823 117.156 60.0063 116.636C60.2303 116.116 60.3423 115.492 60.3423 114.764C60.3423 113.668 60.0943 112.82 59.5983 112.22C59.1103 111.612 58.4103 111.308 57.4983 111.308C56.9063 111.308 56.3983 111.444 55.9743 111.716C55.5583 111.988 55.2383 112.384 55.0143 112.904C54.7903 113.416 54.6783 114.036 54.6783 114.764C54.6783 115.852 54.9263 116.704 55.4223 117.32C55.9183 117.928 56.6103 118.232 57.4983 118.232ZM63.4936 121.244C63.3336 121.244 63.2136 121.2 63.1336 121.112C63.0536 121.032 63.0136 120.912 63.0136 120.752V113.576C63.0136 113.416 63.0536 113.296 63.1336 113.216C63.2136 113.128 63.3296 113.084 63.4816 113.084C63.6416 113.084 63.7616 113.128 63.8416 113.216C63.9296 113.296 63.9736 113.416 63.9736 113.576V114.716L63.8416 114.548C63.9696 114.092 64.2216 113.732 64.5976 113.468C64.9816 113.196 65.4376 113.06 65.9656 113.06C66.4856 113.06 66.9376 113.184 67.3216 113.432C67.7136 113.672 68.0136 114.02 68.2216 114.476C68.4376 114.924 68.5456 115.46 68.5456 116.084C68.5456 116.7 68.4376 117.236 68.2216 117.692C68.0136 118.14 67.7176 118.488 67.3336 118.736C66.9496 118.984 66.4936 119.108 65.9656 119.108C65.4376 119.108 64.9856 118.976 64.6096 118.712C64.2336 118.44 63.9776 118.08 63.8416 117.632H63.9856V120.752C63.9856 120.912 63.9416 121.032 63.8536 121.112C63.7656 121.2 63.6456 121.244 63.4936 121.244ZM65.7616 118.328C66.1296 118.328 66.4456 118.24 66.7096 118.064C66.9816 117.888 67.1896 117.632 67.3336 117.296C67.4856 116.96 67.5616 116.556 67.5616 116.084C67.5616 115.356 67.3976 114.8 67.0696 114.416C66.7496 114.032 66.3136 113.84 65.7616 113.84C65.4016 113.84 65.0856 113.928 64.8136 114.104C64.5416 114.272 64.3296 114.524 64.1776 114.86C64.0336 115.188 63.9616 115.596 63.9616 116.084C63.9616 116.804 64.1256 117.36 64.4536 117.752C64.7816 118.136 65.2176 118.328 65.7616 118.328Z" fill="black"/>
<path d="M16.2852 119C16.1092 119 15.9732 118.956 15.8772 118.868C15.7892 118.772 15.7452 118.636 15.7452 118.46V111.08C15.7452 110.904 15.7892 110.772 15.8772 110.684C15.9732 110.588 16.1092 110.54 16.2852 110.54H20.7492C20.8852 110.54 20.9892 110.576 21.0612 110.648C21.1332 110.72 21.1692 110.82 21.1692 110.948C21.1692 111.084 21.1332 111.188 21.0612 111.26C20.9892 111.332 20.8852 111.368 20.7492 111.368H16.7052V114.296H20.4972C20.6332 114.296 20.7372 114.332 20.8092 114.404C20.8812 114.468 20.9172 114.568 20.9172 114.704C20.9172 114.84 20.8812 114.944 20.8092 115.016C20.7372 115.088 20.6332 115.124 20.4972 115.124H16.7052V118.172H20.7492C20.8852 118.172 20.9892 118.208 21.0612 118.28C21.1332 118.352 21.1692 118.452 21.1692 118.58C21.1692 118.716 21.1332 118.82 21.0612 118.892C20.9892 118.964 20.8852 119 20.7492 119H16.2852ZM22.6333 119.072C22.5293 119.072 22.4373 119.04 22.3573 118.976C22.2773 118.912 22.2333 118.828 22.2253 118.724C22.2253 118.612 22.2773 118.496 22.3813 118.376L24.4813 115.736V116.24L22.5133 113.78C22.4093 113.652 22.3573 113.536 22.3573 113.432C22.3653 113.328 22.4093 113.244 22.4893 113.18C22.5693 113.116 22.6613 113.084 22.7653 113.084C22.8853 113.084 22.9853 113.108 23.0653 113.156C23.1533 113.196 23.2333 113.264 23.3053 113.36L25.0213 115.532H24.6853L26.4133 113.36C26.4853 113.264 26.5613 113.196 26.6413 113.156C26.7213 113.108 26.8213 113.084 26.9413 113.084C27.0533 113.084 27.1453 113.116 27.2173 113.18C27.2973 113.244 27.3373 113.332 27.3373 113.444C27.3453 113.548 27.2973 113.664 27.1933 113.792L25.2373 116.216V115.772L27.3373 118.376C27.4333 118.496 27.4773 118.612 27.4693 118.724C27.4693 118.828 27.4293 118.912 27.3493 118.976C27.2693 119.04 27.1733 119.072 27.0613 119.072C26.9493 119.072 26.8493 119.048 26.7613 119C26.6813 118.96 26.6013 118.892 26.5213 118.796L24.6733 116.468H25.0213L23.1733 118.796C23.1013 118.884 23.0213 118.952 22.9333 119C22.8533 119.048 22.7533 119.072 22.6333 119.072ZM29.394 121.244C29.234 121.244 29.114 121.2 29.034 121.112C28.954 121.032 28.914 120.912 28.914 120.752V113.576C28.914 113.416 28.954 113.296 29.034 113.216C29.114 113.128 29.23 113.084 29.382 113.084C29.542 113.084 29.662 113.128 29.742 113.216C29.83 113.296 29.874 113.416 29.874 113.576V114.716L29.742 114.548C29.87 114.092 30.122 113.732 30.498 113.468C30.882 113.196 31.338 113.06 31.866 113.06C32.386 113.06 32.838 113.184 33.222 113.432C33.614 113.672 33.914 114.02 34.122 114.476C34.338 114.924 34.446 115.46 34.446 116.084C34.446 116.7 34.338 117.236 34.122 117.692C33.914 118.14 33.618 118.488 33.234 118.736C32.85 118.984 32.394 119.108 31.866 119.108C31.338 119.108 30.886 118.976 30.51 118.712C30.134 118.44 29.878 118.08 29.742 117.632H29.886V120.752C29.886 120.912 29.842 121.032 29.754 121.112C29.666 121.2 29.546 121.244 29.394 121.244ZM31.662 118.328C32.03 118.328 32.346 118.24 32.61 118.064C32.882 117.888 33.09 117.632 33.234 117.296C33.386 116.96 33.462 116.556 33.462 116.084C33.462 115.356 33.298 114.8 32.97 114.416C32.65 114.032 32.214 113.84 31.662 113.84C31.302 113.84 30.986 113.928 30.714 114.104C30.442 114.272 30.23 114.524 30.078 114.86C29.934 115.188 29.862 115.596 29.862 116.084C29.862 116.804 30.026 117.36 30.354 117.752C30.682 118.136 31.118 118.328 31.662 118.328ZM36.402 119.084C36.242 119.084 36.118 119.04 36.03 118.952C35.95 118.864 35.91 118.74 35.91 118.58V113.576C35.91 113.416 35.95 113.296 36.03 113.216C36.11 113.128 36.226 113.084 36.378 113.084C36.53 113.084 36.646 113.128 36.726 113.216C36.814 113.296 36.858 113.416 36.858 113.576V114.548H36.738C36.866 114.076 37.11 113.712 37.47 113.456C37.83 113.2 38.274 113.064 38.802 113.048C38.922 113.04 39.018 113.068 39.09 113.132C39.162 113.188 39.202 113.288 39.21 113.432C39.218 113.568 39.186 113.676 39.114 113.756C39.042 113.836 38.93 113.884 38.778 113.9L38.586 113.924C38.042 113.972 37.622 114.148 37.326 114.452C37.038 114.748 36.894 115.156 36.894 115.676V118.58C36.894 118.74 36.85 118.864 36.762 118.952C36.682 119.04 36.562 119.084 36.402 119.084Z" fill="black"/>
<path d="M12.325 146.632L8.741 144.928C8.629 144.869 8.573 144.795 8.573 144.704C8.573 144.656 8.58633 144.613 8.613 144.576C8.645 144.539 8.68767 144.507 8.741 144.48L12.325 142.776C12.3677 142.755 12.405 142.749 12.437 142.76C12.4743 142.765 12.5037 142.781 12.525 142.808C12.5463 142.829 12.557 142.859 12.557 142.896C12.5623 142.928 12.557 142.96 12.541 142.992C12.5303 143.019 12.5037 143.043 12.461 143.064L8.797 144.792V144.616L12.461 146.344C12.5037 146.365 12.5303 146.392 12.541 146.424C12.557 146.451 12.5623 146.483 12.557 146.52C12.557 146.552 12.5463 146.581 12.525 146.608C12.5037 146.629 12.4743 146.645 12.437 146.656C12.405 146.661 12.3677 146.653 12.325 146.632ZM13.7699 147.048C13.7165 147.048 13.6739 147.032 13.6419 147C13.6152 146.968 13.6019 146.925 13.6019 146.872V143.256C13.6019 143.197 13.6152 143.155 13.6419 143.128C13.6739 143.096 13.7165 143.08 13.7699 143.08C13.8232 143.08 13.8632 143.096 13.8899 143.128C13.9165 143.155 13.9299 143.197 13.9299 143.256V144.072H13.8419C13.9485 143.736 14.1325 143.485 14.3939 143.32C14.6552 143.149 14.9565 143.064 15.2979 143.064C15.6072 143.064 15.8632 143.117 16.0659 143.224C16.2739 143.331 16.4285 143.493 16.5299 143.712C16.6312 143.931 16.6819 144.205 16.6819 144.536V146.872C16.6819 146.925 16.6659 146.968 16.6339 147C16.6072 147.032 16.5672 147.048 16.5139 147.048C16.4605 147.048 16.4179 147.032 16.3859 147C16.3592 146.968 16.3459 146.925 16.3459 146.872V144.568C16.3459 144.157 16.2632 143.856 16.0979 143.664C15.9325 143.472 15.6659 143.376 15.2979 143.376C14.8872 143.376 14.5565 143.504 14.3059 143.76C14.0605 144.011 13.9379 144.349 13.9379 144.776V146.872C13.9379 146.989 13.8819 147.048 13.7699 147.048ZM19.1918 147.064C18.9411 147.064 18.7144 147.013 18.5118 146.912C18.3091 146.811 18.1491 146.675 18.0318 146.504C17.9144 146.328 17.8558 146.133 17.8558 145.92C17.8558 145.632 17.9251 145.408 18.0638 145.248C18.2078 145.083 18.4504 144.968 18.7918 144.904C19.1384 144.835 19.6131 144.8 20.2158 144.8H20.5438V145.096H20.2318C19.7038 145.096 19.2931 145.12 18.9998 145.168C18.7118 145.211 18.5091 145.291 18.3918 145.408C18.2798 145.52 18.2238 145.68 18.2238 145.888C18.2238 146.144 18.3118 146.355 18.4878 146.52C18.6691 146.68 18.9118 146.76 19.2158 146.76C19.4611 146.76 19.6744 146.701 19.8558 146.584C20.0424 146.461 20.1891 146.299 20.2958 146.096C20.4024 145.888 20.4558 145.653 20.4558 145.392V144.48C20.4558 144.096 20.3811 143.816 20.2318 143.64C20.0824 143.464 19.8424 143.376 19.5118 143.376C19.2984 143.376 19.0931 143.405 18.8958 143.464C18.7038 143.523 18.5011 143.613 18.2878 143.736C18.2398 143.763 18.1971 143.773 18.1598 143.768C18.1278 143.763 18.1011 143.749 18.0798 143.728C18.0584 143.701 18.0424 143.672 18.0318 143.64C18.0264 143.603 18.0291 143.568 18.0398 143.536C18.0558 143.504 18.0824 143.477 18.1198 143.456C18.3384 143.323 18.5651 143.224 18.7998 143.16C19.0344 143.096 19.2664 143.064 19.4958 143.064C19.7891 143.064 20.0318 143.115 20.2238 143.216C20.4158 143.317 20.5571 143.472 20.6478 143.68C20.7438 143.888 20.7918 144.155 20.7918 144.48V146.872C20.7918 146.925 20.7784 146.968 20.7518 147C20.7251 147.032 20.6851 147.048 20.6318 147.048C20.5784 147.048 20.5358 147.032 20.5038 147C20.4771 146.968 20.4638 146.925 20.4638 146.872V146.032H20.5518C20.4984 146.245 20.4078 146.429 20.2798 146.584C20.1518 146.739 19.9944 146.859 19.8078 146.944C19.6264 147.024 19.4211 147.064 19.1918 147.064ZM22.3171 147.048C22.2638 147.048 22.2211 147.032 22.1891 147C22.1625 146.968 22.1491 146.925 22.1491 146.872V143.256C22.1491 143.197 22.1625 143.155 22.1891 143.128C22.2211 143.096 22.2638 143.08 22.3171 143.08C22.3705 143.08 22.4105 143.096 22.4371 143.128C22.4638 143.155 22.4771 143.197 22.4771 143.256V144.072H22.3891C22.4851 143.741 22.6478 143.491 22.8771 143.32C23.1065 143.149 23.3838 143.064 23.7091 143.064C24.0558 143.064 24.3305 143.149 24.5331 143.32C24.7411 143.485 24.8745 143.739 24.9331 144.08H24.8131C24.8985 143.771 25.0638 143.525 25.3091 143.344C25.5598 143.157 25.8585 143.064 26.2051 143.064C26.4878 143.064 26.7225 143.12 26.9091 143.232C27.0958 143.339 27.2371 143.501 27.3331 143.72C27.4291 143.933 27.4771 144.205 27.4771 144.536V146.872C27.4771 146.925 27.4611 146.968 27.4291 147C27.4025 147.032 27.3625 147.048 27.3091 147.048C27.2558 147.048 27.2131 147.032 27.1811 147C27.1545 146.968 27.1411 146.925 27.1411 146.872V144.568C27.1411 144.157 27.0665 143.856 26.9171 143.664C26.7731 143.472 26.5305 143.376 26.1891 143.376C25.8211 143.376 25.5278 143.504 25.3091 143.76C25.0905 144.011 24.9811 144.349 24.9811 144.776V146.872C24.9811 146.925 24.9651 146.968 24.9331 147C24.9065 147.032 24.8665 147.048 24.8131 147.048C24.7598 147.048 24.7171 147.032 24.6851 147C24.6585 146.968 24.6451 146.925 24.6451 146.872V144.568C24.6451 144.157 24.5705 143.856 24.4211 143.664C24.2771 143.472 24.0345 143.376 23.6931 143.376C23.3251 143.376 23.0318 143.504 22.8131 143.76C22.5945 144.011 22.4851 144.349 22.4851 144.776V146.872C22.4851 146.989 22.4291 147.048 22.3171 147.048ZM30.4443 147.064C30.0603 147.064 29.7296 146.984 29.4523 146.824C29.1749 146.664 28.9589 146.437 28.8043 146.144C28.6549 145.845 28.5803 145.491 28.5803 145.08C28.5803 144.675 28.6549 144.323 28.8043 144.024C28.9589 143.72 29.1696 143.485 29.4363 143.32C29.7083 143.149 30.0203 143.064 30.3723 143.064C30.6229 143.064 30.8443 143.107 31.0363 143.192C31.2336 143.277 31.3989 143.4 31.5323 143.56C31.6709 143.72 31.7749 143.915 31.8443 144.144C31.9189 144.373 31.9563 144.632 31.9563 144.92C31.9563 144.989 31.9403 145.043 31.9083 145.08C31.8816 145.112 31.8389 145.128 31.7803 145.128H28.7963V144.832H31.7803L31.6443 144.928C31.6443 144.603 31.5963 144.325 31.5003 144.096C31.4043 143.861 31.2603 143.683 31.0683 143.56C30.8816 143.432 30.6469 143.368 30.3643 143.368C30.0549 143.368 29.7909 143.443 29.5723 143.592C29.3589 143.736 29.1963 143.933 29.0843 144.184C28.9776 144.435 28.9243 144.72 28.9243 145.04V145.08C28.9243 145.613 29.0549 146.027 29.3163 146.32C29.5829 146.608 29.9536 146.752 30.4283 146.752C30.6416 146.752 30.8416 146.725 31.0283 146.672C31.2149 146.613 31.3989 146.512 31.5803 146.368C31.6176 146.336 31.6549 146.32 31.6923 146.32C31.7349 146.315 31.7696 146.323 31.7963 146.344C31.8283 146.36 31.8496 146.384 31.8603 146.416C31.8763 146.443 31.8789 146.475 31.8683 146.512C31.8576 146.549 31.8309 146.584 31.7883 146.616C31.6229 146.755 31.4203 146.864 31.1803 146.944C30.9403 147.024 30.6949 147.064 30.4443 147.064ZM35.1765 147.68C35.1392 147.728 35.0992 147.755 35.0565 147.76C35.0192 147.771 34.9872 147.765 34.9605 147.744C34.9338 147.723 34.9178 147.691 34.9125 147.648C34.9125 147.611 34.9312 147.565 34.9685 147.512C35.0325 147.421 35.0778 147.325 35.1045 147.224C35.1365 147.128 35.1525 147.037 35.1525 146.952L35.1765 147.024C35.0805 147.024 35.0032 146.995 34.9445 146.936C34.8858 146.877 34.8565 146.805 34.8565 146.72C34.8565 146.629 34.8832 146.557 34.9365 146.504C34.9898 146.445 35.0592 146.416 35.1445 146.416C35.2352 146.416 35.3072 146.448 35.3605 146.512C35.4192 146.576 35.4485 146.672 35.4485 146.8C35.4485 146.891 35.4378 146.989 35.4165 147.096C35.4005 147.203 35.3712 147.307 35.3285 147.408C35.2912 147.509 35.2405 147.6 35.1765 147.68ZM39.8168 147.064C39.5661 147.064 39.3394 147.013 39.1368 146.912C38.9341 146.811 38.7741 146.675 38.6568 146.504C38.5394 146.328 38.4808 146.133 38.4808 145.92C38.4808 145.632 38.5501 145.408 38.6888 145.248C38.8328 145.083 39.0754 144.968 39.4168 144.904C39.7634 144.835 40.2381 144.8 40.8408 144.8H41.1688V145.096H40.8568C40.3288 145.096 39.9181 145.12 39.6248 145.168C39.3368 145.211 39.1341 145.291 39.0168 145.408C38.9048 145.52 38.8488 145.68 38.8488 145.888C38.8488 146.144 38.9368 146.355 39.1128 146.52C39.2941 146.68 39.5368 146.76 39.8408 146.76C40.0861 146.76 40.2994 146.701 40.4808 146.584C40.6674 146.461 40.8141 146.299 40.9208 146.096C41.0274 145.888 41.0808 145.653 41.0808 145.392V144.48C41.0808 144.096 41.0061 143.816 40.8568 143.64C40.7074 143.464 40.4674 143.376 40.1368 143.376C39.9234 143.376 39.7181 143.405 39.5208 143.464C39.3288 143.523 39.1261 143.613 38.9128 143.736C38.8648 143.763 38.8221 143.773 38.7848 143.768C38.7528 143.763 38.7261 143.749 38.7048 143.728C38.6834 143.701 38.6674 143.672 38.6568 143.64C38.6514 143.603 38.6541 143.568 38.6648 143.536C38.6808 143.504 38.7074 143.477 38.7448 143.456C38.9634 143.323 39.1901 143.224 39.4248 143.16C39.6594 143.096 39.8914 143.064 40.1208 143.064C40.4141 143.064 40.6568 143.115 40.8488 143.216C41.0408 143.317 41.1821 143.472 41.2728 143.68C41.3688 143.888 41.4168 144.155 41.4168 144.48V146.872C41.4168 146.925 41.4034 146.968 41.3768 147C41.3501 147.032 41.3101 147.048 41.2568 147.048C41.2034 147.048 41.1608 147.032 41.1288 147C41.1021 146.968 41.0888 146.925 41.0888 146.872V146.032H41.1768C41.1234 146.245 41.0328 146.429 40.9048 146.584C40.7768 146.739 40.6194 146.859 40.4328 146.944C40.2514 147.024 40.0461 147.064 39.8168 147.064ZM42.6781 146.632C42.6355 146.653 42.5955 146.661 42.5581 146.656C42.5261 146.645 42.4995 146.629 42.4781 146.608C42.4568 146.581 42.4435 146.552 42.4381 146.52C42.4381 146.483 42.4461 146.451 42.4621 146.424C42.4781 146.392 42.5048 146.365 42.5421 146.344L46.2061 144.616V144.792L42.5421 143.064C42.5048 143.043 42.4781 143.019 42.4621 142.992C42.4461 142.96 42.4381 142.928 42.4381 142.896C42.4435 142.859 42.4568 142.829 42.4781 142.808C42.4995 142.781 42.5261 142.765 42.5581 142.76C42.5955 142.749 42.6355 142.755 42.6781 142.776L46.2621 144.48C46.3741 144.533 46.4301 144.608 46.4301 144.704C46.4301 144.752 46.4168 144.795 46.3901 144.832C46.3635 144.869 46.3208 144.901 46.2621 144.928L42.6781 146.632Z" fill="black"/>
<path d="M61.5016 146.728C61.4482 146.728 61.4082 146.715 61.3816 146.688C61.3549 146.656 61.3416 146.613 61.3416 146.56V144.864H59.6696C59.6162 144.864 59.5736 144.851 59.5416 144.824C59.5149 144.792 59.5016 144.752 59.5016 144.704C59.5016 144.656 59.5149 144.619 59.5416 144.592C59.5736 144.565 59.6162 144.552 59.6696 144.552H61.3416V142.896C61.3416 142.843 61.3549 142.803 61.3816 142.776C61.4082 142.744 61.4482 142.728 61.5016 142.728C61.5549 142.728 61.5949 142.744 61.6216 142.776C61.6482 142.803 61.6616 142.843 61.6616 142.896V144.552H63.3336C63.3869 144.552 63.4269 144.565 63.4536 144.592C63.4856 144.619 63.5016 144.656 63.5016 144.704C63.5016 144.757 63.4856 144.797 63.4536 144.824C63.4269 144.851 63.3869 144.864 63.3336 144.864H61.6616V146.56C61.6616 146.613 61.6482 146.656 61.6216 146.688C61.5949 146.715 61.5549 146.728 61.5016 146.728Z" fill="black"/>
<path d="M84.1063 116.632L80.5223 114.928C80.4103 114.869 80.3543 114.795 80.3543 114.704C80.3543 114.656 80.3676 114.613 80.3943 114.576C80.4263 114.539 80.4689 114.507 80.5223 114.48L84.1063 112.776C84.1489 112.755 84.1863 112.749 84.2183 112.76C84.2556 112.765 84.2849 112.781 84.3063 112.808C84.3276 112.829 84.3383 112.859 84.3383 112.896C84.3436 112.928 84.3383 112.96 84.3223 112.992C84.3116 113.019 84.2849 113.043 84.2423 113.064L80.5783 114.792V114.616L84.2423 116.344C84.2849 116.365 84.3116 116.392 84.3223 116.424C84.3383 116.451 84.3436 116.483 84.3383 116.52C84.3383 116.552 84.3276 116.581 84.3063 116.608C84.2849 116.629 84.2556 116.645 84.2183 116.656C84.1863 116.661 84.1489 116.653 84.1063 116.632ZM85.5511 117.048C85.4978 117.048 85.4551 117.032 85.4231 117C85.3965 116.968 85.3831 116.925 85.3831 116.872V113.256C85.3831 113.197 85.3965 113.155 85.4231 113.128C85.4551 113.096 85.4978 113.08 85.5511 113.08C85.6045 113.08 85.6445 113.096 85.6711 113.128C85.6978 113.155 85.7111 113.197 85.7111 113.256V114.072H85.6231C85.7298 113.736 85.9138 113.485 86.1751 113.32C86.4365 113.149 86.7378 113.064 87.0791 113.064C87.3885 113.064 87.6445 113.117 87.8471 113.224C88.0551 113.331 88.2098 113.493 88.3111 113.712C88.4125 113.931 88.4631 114.205 88.4631 114.536V116.872C88.4631 116.925 88.4471 116.968 88.4151 117C88.3885 117.032 88.3485 117.048 88.2951 117.048C88.2418 117.048 88.1991 117.032 88.1671 117C88.1405 116.968 88.1271 116.925 88.1271 116.872V114.568C88.1271 114.157 88.0445 113.856 87.8791 113.664C87.7138 113.472 87.4471 113.376 87.0791 113.376C86.6685 113.376 86.3378 113.504 86.0871 113.76C85.8418 114.011 85.7191 114.349 85.7191 114.776V116.872C85.7191 116.989 85.6631 117.048 85.5511 117.048ZM90.973 117.064C90.7223 117.064 90.4957 117.013 90.293 116.912C90.0903 116.811 89.9303 116.675 89.813 116.504C89.6957 116.328 89.637 116.133 89.637 115.92C89.637 115.632 89.7063 115.408 89.845 115.248C89.989 115.083 90.2317 114.968 90.573 114.904C90.9197 114.835 91.3943 114.8 91.997 114.8H92.325V115.096H92.013C91.485 115.096 91.0743 115.12 90.781 115.168C90.493 115.211 90.2903 115.291 90.173 115.408C90.061 115.52 90.005 115.68 90.005 115.888C90.005 116.144 90.093 116.355 90.269 116.52C90.4503 116.68 90.693 116.76 90.997 116.76C91.2423 116.76 91.4557 116.701 91.637 116.584C91.8237 116.461 91.9703 116.299 92.077 116.096C92.1837 115.888 92.237 115.653 92.237 115.392V114.48C92.237 114.096 92.1623 113.816 92.013 113.64C91.8637 113.464 91.6237 113.376 91.293 113.376C91.0797 113.376 90.8743 113.405 90.677 113.464C90.485 113.523 90.2823 113.613 90.069 113.736C90.021 113.763 89.9783 113.773 89.941 113.768C89.909 113.763 89.8823 113.749 89.861 113.728C89.8397 113.701 89.8237 113.672 89.813 113.64C89.8077 113.603 89.8103 113.568 89.821 113.536C89.837 113.504 89.8637 113.477 89.901 113.456C90.1197 113.323 90.3463 113.224 90.581 113.16C90.8157 113.096 91.0477 113.064 91.277 113.064C91.5703 113.064 91.813 113.115 92.005 113.216C92.197 113.317 92.3383 113.472 92.429 113.68C92.525 113.888 92.573 114.155 92.573 114.48V116.872C92.573 116.925 92.5597 116.968 92.533 117C92.5063 117.032 92.4663 117.048 92.413 117.048C92.3597 117.048 92.317 117.032 92.285 117C92.2583 116.968 92.245 116.925 92.245 116.872V116.032H92.333C92.2797 116.245 92.189 116.429 92.061 116.584C91.933 116.739 91.7757 116.859 91.589 116.944C91.4077 117.024 91.2023 117.064 90.973 117.064ZM94.0984 117.048C94.045 117.048 94.0024 117.032 93.9704 117C93.9437 116.968 93.9304 116.925 93.9304 116.872V113.256C93.9304 113.197 93.9437 113.155 93.9704 113.128C94.0024 113.096 94.045 113.08 94.0984 113.08C94.1517 113.08 94.1917 113.096 94.2184 113.128C94.245 113.155 94.2584 113.197 94.2584 113.256V114.072H94.1704C94.2664 113.741 94.429 113.491 94.6584 113.32C94.8877 113.149 95.165 113.064 95.4904 113.064C95.837 113.064 96.1117 113.149 96.3144 113.32C96.5224 113.485 96.6557 113.739 96.7144 114.08H96.5944C96.6797 113.771 96.845 113.525 97.0904 113.344C97.341 113.157 97.6397 113.064 97.9864 113.064C98.269 113.064 98.5037 113.12 98.6904 113.232C98.877 113.339 99.0184 113.501 99.1144 113.72C99.2104 113.933 99.2584 114.205 99.2584 114.536V116.872C99.2584 116.925 99.2424 116.968 99.2104 117C99.1837 117.032 99.1437 117.048 99.0904 117.048C99.037 117.048 98.9944 117.032 98.9624 117C98.9357 116.968 98.9224 116.925 98.9224 116.872V114.568C98.9224 114.157 98.8477 113.856 98.6984 113.664C98.5544 113.472 98.3117 113.376 97.9704 113.376C97.6024 113.376 97.309 113.504 97.0904 113.76C96.8717 114.011 96.7624 114.349 96.7624 114.776V116.872C96.7624 116.925 96.7464 116.968 96.7144 117C96.6877 117.032 96.6477 117.048 96.5944 117.048C96.541 117.048 96.4984 117.032 96.4664 117C96.4397 116.968 96.4264 116.925 96.4264 116.872V114.568C96.4264 114.157 96.3517 113.856 96.2024 113.664C96.0584 113.472 95.8157 113.376 95.4744 113.376C95.1064 113.376 94.813 113.504 94.5944 113.76C94.3757 114.011 94.2664 114.349 94.2664 114.776V116.872C94.2664 116.989 94.2104 117.048 94.0984 117.048ZM102.226 117.064C101.842 117.064 101.511 116.984 101.234 116.824C100.956 116.664 100.74 116.437 100.586 116.144C100.436 115.845 100.362 115.491 100.362 115.08C100.362 114.675 100.436 114.323 100.586 114.024C100.74 113.72 100.951 113.485 101.218 113.32C101.49 113.149 101.802 113.064 102.154 113.064C102.404 113.064 102.626 113.107 102.818 113.192C103.015 113.277 103.18 113.4 103.314 113.56C103.452 113.72 103.556 113.915 103.626 114.144C103.7 114.373 103.738 114.632 103.738 114.92C103.738 114.989 103.722 115.043 103.69 115.08C103.663 115.112 103.62 115.128 103.562 115.128H100.578V114.832H103.562L103.426 114.928C103.426 114.603 103.378 114.325 103.282 114.096C103.186 113.861 103.042 113.683 102.85 113.56C102.663 113.432 102.428 113.368 102.146 113.368C101.836 113.368 101.572 113.443 101.354 113.592C101.14 113.736 100.978 113.933 100.866 114.184C100.759 114.435 100.706 114.72 100.706 115.04V115.08C100.706 115.613 100.836 116.027 101.098 116.32C101.364 116.608 101.735 116.752 102.21 116.752C102.423 116.752 102.623 116.725 102.81 116.672C102.996 116.613 103.18 116.512 103.362 116.368C103.399 116.336 103.436 116.32 103.474 116.32C103.516 116.315 103.551 116.323 103.578 116.344C103.61 116.36 103.631 116.384 103.642 116.416C103.658 116.443 103.66 116.475 103.65 116.512C103.639 116.549 103.612 116.584 103.57 116.616C103.404 116.755 103.202 116.864 102.962 116.944C102.722 117.024 102.476 117.064 102.226 117.064ZM106.958 117.68C106.92 117.728 106.88 117.755 106.838 117.76C106.8 117.771 106.768 117.765 106.742 117.744C106.715 117.723 106.699 117.691 106.694 117.648C106.694 117.611 106.712 117.565 106.75 117.512C106.814 117.421 106.859 117.325 106.886 117.224C106.918 117.128 106.934 117.037 106.934 116.952L106.958 117.024C106.862 117.024 106.784 116.995 106.726 116.936C106.667 116.877 106.638 116.805 106.638 116.72C106.638 116.629 106.664 116.557 106.718 116.504C106.771 116.445 106.84 116.416 106.926 116.416C107.016 116.416 107.088 116.448 107.142 116.512C107.2 116.576 107.23 116.672 107.23 116.8C107.23 116.891 107.219 116.989 107.198 117.096C107.182 117.203 107.152 117.307 107.11 117.408C107.072 117.509 107.022 117.6 106.958 117.68ZM112.15 117.064C111.777 117.064 111.459 116.968 111.198 116.776C110.942 116.579 110.769 116.317 110.678 115.992H110.766V116.872C110.766 116.925 110.75 116.968 110.718 117C110.691 117.032 110.651 117.048 110.598 117.048C110.545 117.048 110.502 117.032 110.47 117C110.443 116.968 110.43 116.925 110.43 116.872V111.488C110.43 111.429 110.443 111.387 110.47 111.36C110.502 111.328 110.545 111.312 110.598 111.312C110.651 111.312 110.691 111.328 110.718 111.36C110.75 111.387 110.766 111.429 110.766 111.488V114.136H110.678C110.769 113.805 110.942 113.544 111.198 113.352C111.459 113.16 111.777 113.064 112.15 113.064C112.502 113.064 112.806 113.147 113.062 113.312C113.323 113.472 113.523 113.701 113.662 114C113.801 114.299 113.87 114.653 113.87 115.064C113.87 115.469 113.798 115.824 113.654 116.128C113.515 116.427 113.318 116.659 113.062 116.824C112.806 116.984 112.502 117.064 112.15 117.064ZM112.142 116.752C112.425 116.752 112.67 116.685 112.878 116.552C113.086 116.419 113.246 116.227 113.358 115.976C113.47 115.72 113.526 115.416 113.526 115.064C113.526 114.531 113.401 114.117 113.15 113.824C112.905 113.525 112.569 113.376 112.142 113.376C111.859 113.376 111.614 113.443 111.406 113.576C111.198 113.709 111.038 113.901 110.926 114.152C110.814 114.403 110.758 114.707 110.758 115.064C110.758 115.597 110.883 116.013 111.134 116.312C111.385 116.605 111.721 116.752 112.142 116.752ZM114.897 116.632C114.854 116.653 114.814 116.661 114.777 116.656C114.745 116.645 114.718 116.629 114.697 116.608C114.676 116.581 114.662 116.552 114.657 116.52C114.657 116.483 114.665 116.451 114.681 116.424C114.697 116.392 114.724 116.365 114.761 116.344L118.425 114.616V114.792L114.761 113.064C114.724 113.043 114.697 113.019 114.681 112.992C114.665 112.96 114.657 112.928 114.657 112.896C114.662 112.859 114.676 112.829 114.697 112.808C114.718 112.781 114.745 112.765 114.777 112.76C114.814 112.749 114.854 112.755 114.897 112.776L118.481 114.48C118.593 114.533 118.649 114.608 118.649 114.704C118.649 114.752 118.636 114.795 118.609 114.832C118.582 114.869 118.54 114.901 118.481 114.928L114.897 116.632Z" fill="black"/>
<path d="M138.559 49.632L134.975 47.928C134.863 47.8693 134.807 47.7947 134.807 47.704C134.807 47.656 134.821 47.6133 134.847 47.576C134.879 47.5387 134.922 47.5067 134.975 47.48L138.559 45.776C138.602 45.7547 138.639 45.7493 138.671 45.76C138.709 45.7653 138.738 45.7813 138.759 45.808C138.781 45.8293 138.791 45.8587 138.791 45.896C138.797 45.928 138.791 45.96 138.775 45.992C138.765 46.0187 138.738 46.0427 138.695 46.064L135.031 47.792V47.616L138.695 49.344C138.738 49.3653 138.765 49.392 138.775 49.424C138.791 49.4507 138.797 49.4827 138.791 49.52C138.791 49.552 138.781 49.5813 138.759 49.608C138.738 49.6293 138.709 49.6453 138.671 49.656C138.639 49.6613 138.602 49.6533 138.559 49.632ZM140.004 50.048C139.951 50.048 139.908 50.032 139.876 50C139.85 49.968 139.836 49.9253 139.836 49.872V46.256C139.836 46.1973 139.85 46.1547 139.876 46.128C139.908 46.096 139.951 46.08 140.004 46.08C140.058 46.08 140.098 46.096 140.124 46.128C140.151 46.1547 140.164 46.1973 140.164 46.256V47.072H140.076C140.183 46.736 140.367 46.4853 140.628 46.32C140.89 46.1493 141.191 46.064 141.532 46.064C141.842 46.064 142.098 46.1173 142.3 46.224C142.508 46.3307 142.663 46.4933 142.764 46.712C142.866 46.9307 142.916 47.2053 142.916 47.536V49.872C142.916 49.9253 142.9 49.968 142.868 50C142.842 50.032 142.802 50.048 142.748 50.048C142.695 50.048 142.652 50.032 142.62 50C142.594 49.968 142.58 49.9253 142.58 49.872V47.568C142.58 47.1573 142.498 46.856 142.332 46.664C142.167 46.472 141.9 46.376 141.532 46.376C141.122 46.376 140.791 46.504 140.54 46.76C140.295 47.0107 140.172 47.3493 140.172 47.776V49.872C140.172 49.9893 140.116 50.048 140.004 50.048ZM145.426 50.064C145.175 50.064 144.949 50.0133 144.746 49.912C144.543 49.8107 144.383 49.6747 144.266 49.504C144.149 49.328 144.09 49.1333 144.09 48.92C144.09 48.632 144.159 48.408 144.298 48.248C144.442 48.0827 144.685 47.968 145.026 47.904C145.373 47.8347 145.847 47.8 146.45 47.8H146.778V48.096H146.466C145.938 48.096 145.527 48.12 145.234 48.168C144.946 48.2107 144.743 48.2907 144.626 48.408C144.514 48.52 144.458 48.68 144.458 48.888C144.458 49.144 144.546 49.3547 144.722 49.52C144.903 49.68 145.146 49.76 145.45 49.76C145.695 49.76 145.909 49.7013 146.09 49.584C146.277 49.4613 146.423 49.2987 146.53 49.096C146.637 48.888 146.69 48.6533 146.69 48.392V47.48C146.69 47.096 146.615 46.816 146.466 46.64C146.317 46.464 146.077 46.376 145.746 46.376C145.533 46.376 145.327 46.4053 145.13 46.464C144.938 46.5227 144.735 46.6133 144.522 46.736C144.474 46.7627 144.431 46.7733 144.394 46.768C144.362 46.7627 144.335 46.7493 144.314 46.728C144.293 46.7013 144.277 46.672 144.266 46.64C144.261 46.6027 144.263 46.568 144.274 46.536C144.29 46.504 144.317 46.4773 144.354 46.456C144.573 46.3227 144.799 46.224 145.034 46.16C145.269 46.096 145.501 46.064 145.73 46.064C146.023 46.064 146.266 46.1147 146.458 46.216C146.65 46.3173 146.791 46.472 146.882 46.68C146.978 46.888 147.026 47.1547 147.026 47.48V49.872C147.026 49.9253 147.013 49.968 146.986 50C146.959 50.032 146.919 50.048 146.866 50.048C146.813 50.048 146.77 50.032 146.738 50C146.711 49.968 146.698 49.9253 146.698 49.872V49.032H146.786C146.733 49.2453 146.642 49.4293 146.514 49.584C146.386 49.7387 146.229 49.8587 146.042 49.944C145.861 50.024 145.655 50.064 145.426 50.064ZM148.552 50.048C148.498 50.048 148.456 50.032 148.424 50C148.397 49.968 148.384 49.9253 148.384 49.872V46.256C148.384 46.1973 148.397 46.1547 148.424 46.128C148.456 46.096 148.498 46.08 148.552 46.08C148.605 46.08 148.645 46.096 148.672 46.128C148.698 46.1547 148.712 46.1973 148.712 46.256V47.072H148.624C148.72 46.7413 148.882 46.4907 149.112 46.32C149.341 46.1493 149.618 46.064 149.944 46.064C150.29 46.064 150.565 46.1493 150.768 46.32C150.976 46.4853 151.109 46.7387 151.168 47.08H151.048C151.133 46.7707 151.298 46.5253 151.544 46.344C151.794 46.1573 152.093 46.064 152.44 46.064C152.722 46.064 152.957 46.12 153.144 46.232C153.33 46.3387 153.472 46.5013 153.568 46.72C153.664 46.9333 153.712 47.2053 153.712 47.536V49.872C153.712 49.9253 153.696 49.968 153.664 50C153.637 50.032 153.597 50.048 153.544 50.048C153.49 50.048 153.448 50.032 153.416 50C153.389 49.968 153.376 49.9253 153.376 49.872V47.568C153.376 47.1573 153.301 46.856 153.152 46.664C153.008 46.472 152.765 46.376 152.424 46.376C152.056 46.376 151.762 46.504 151.544 46.76C151.325 47.0107 151.216 47.3493 151.216 47.776V49.872C151.216 49.9253 151.2 49.968 151.168 50C151.141 50.032 151.101 50.048 151.048 50.048C150.994 50.048 150.952 50.032 150.92 50C150.893 49.968 150.88 49.9253 150.88 49.872V47.568C150.88 47.1573 150.805 46.856 150.656 46.664C150.512 46.472 150.269 46.376 149.928 46.376C149.56 46.376 149.266 46.504 149.048 46.76C148.829 47.0107 148.72 47.3493 148.72 47.776V49.872C148.72 49.9893 148.664 50.048 148.552 50.048ZM156.679 50.064C156.295 50.064 155.964 49.984 155.687 49.824C155.409 49.664 155.193 49.4373 155.039 49.144C154.889 48.8453 154.815 48.4907 154.815 48.08C154.815 47.6747 154.889 47.3227 155.039 47.024C155.193 46.72 155.404 46.4853 155.671 46.32C155.943 46.1493 156.255 46.064 156.607 46.064C156.857 46.064 157.079 46.1067 157.271 46.192C157.468 46.2773 157.633 46.4 157.767 46.56C157.905 46.72 158.009 46.9147 158.079 47.144C158.153 47.3733 158.191 47.632 158.191 47.92C158.191 47.9893 158.175 48.0427 158.143 48.08C158.116 48.112 158.073 48.128 158.015 48.128H155.031V47.832H158.015L157.879 47.928C157.879 47.6027 157.831 47.3253 157.735 47.096C157.639 46.8613 157.495 46.6827 157.303 46.56C157.116 46.432 156.881 46.368 156.599 46.368C156.289 46.368 156.025 46.4427 155.807 46.592C155.593 46.736 155.431 46.9333 155.319 47.184C155.212 47.4347 155.159 47.72 155.159 48.04V48.08C155.159 48.6133 155.289 49.0267 155.551 49.32C155.817 49.608 156.188 49.752 156.663 49.752C156.876 49.752 157.076 49.7253 157.263 49.672C157.449 49.6133 157.633 49.512 157.815 49.368C157.852 49.336 157.889 49.32 157.927 49.32C157.969 49.3147 158.004 49.3227 158.031 49.344C158.063 49.36 158.084 49.384 158.095 49.416C158.111 49.4427 158.113 49.4747 158.103 49.512C158.092 49.5493 158.065 49.584 158.023 49.616C157.857 49.7547 157.655 49.864 157.415 49.944C157.175 50.024 156.929 50.064 156.679 50.064ZM161.411 50.68C161.374 50.728 161.334 50.7547 161.291 50.76C161.254 50.7707 161.222 50.7653 161.195 50.744C161.168 50.7227 161.152 50.6907 161.147 50.648C161.147 50.6107 161.166 50.5653 161.203 50.512C161.267 50.4213 161.312 50.3253 161.339 50.224C161.371 50.128 161.387 50.0373 161.387 49.952L161.411 50.024C161.315 50.024 161.238 49.9947 161.179 49.936C161.12 49.8773 161.091 49.8053 161.091 49.72C161.091 49.6293 161.118 49.5573 161.171 49.504C161.224 49.4453 161.294 49.416 161.379 49.416C161.47 49.416 161.542 49.448 161.595 49.512C161.654 49.576 161.683 49.672 161.683 49.8C161.683 49.8907 161.672 49.9893 161.651 50.096C161.635 50.2027 161.606 50.3067 161.563 50.408C161.526 50.5093 161.475 50.6 161.411 50.68ZM166.395 50.064C166.027 50.064 165.71 49.9787 165.443 49.808C165.182 49.6373 164.979 49.4 164.835 49.096C164.696 48.792 164.627 48.4373 164.627 48.032C164.627 47.728 164.667 47.456 164.747 47.216C164.827 46.9707 164.942 46.7627 165.091 46.592C165.246 46.4213 165.432 46.2907 165.651 46.2C165.87 46.1093 166.118 46.064 166.395 46.064C166.598 46.064 166.803 46.1013 167.011 46.176C167.224 46.2453 167.414 46.3627 167.579 46.528C167.606 46.5547 167.619 46.584 167.619 46.616C167.624 46.648 167.619 46.68 167.603 46.712C167.592 46.7387 167.574 46.76 167.547 46.776C167.52 46.792 167.488 46.8 167.451 46.8C167.414 46.7947 167.376 46.7733 167.339 46.736C167.184 46.5973 167.024 46.504 166.859 46.456C166.699 46.4027 166.542 46.376 166.387 46.376C166.158 46.376 165.955 46.4133 165.779 46.488C165.603 46.5627 165.454 46.672 165.331 46.816C165.214 46.9547 165.123 47.128 165.059 47.336C165 47.5387 164.971 47.7733 164.971 48.04C164.971 48.5733 165.094 48.992 165.339 49.296C165.584 49.6 165.934 49.752 166.387 49.752C166.542 49.752 166.699 49.728 166.859 49.68C167.024 49.6267 167.184 49.5307 167.339 49.392C167.376 49.3547 167.414 49.336 167.451 49.336C167.488 49.3307 167.52 49.336 167.547 49.352C167.574 49.368 167.592 49.392 167.603 49.424C167.619 49.4507 167.624 49.48 167.619 49.512C167.619 49.544 167.606 49.5733 167.579 49.6C167.414 49.7653 167.224 49.8853 167.011 49.96C166.803 50.0293 166.598 50.064 166.395 50.064ZM168.444 49.632C168.401 49.6533 168.361 49.6613 168.324 49.656C168.292 49.6453 168.265 49.6293 168.244 49.608C168.222 49.5813 168.209 49.552 168.204 49.52C168.204 49.4827 168.212 49.4507 168.228 49.424C168.244 49.392 168.27 49.3653 168.308 49.344L171.972 47.616V47.792L168.308 46.064C168.27 46.0427 168.244 46.0187 168.228 45.992C168.212 45.96 168.204 45.928 168.204 45.896C168.209 45.8587 168.222 45.8293 168.244 45.808C168.265 45.7813 168.292 45.7653 168.324 45.76C168.361 45.7493 168.401 45.7547 168.444 45.776L172.028 47.48C172.14 47.5333 172.196 47.608 172.196 47.704C172.196 47.752 172.182 47.7947 172.156 47.832C172.129 47.8693 172.086 47.9013 172.028 47.928L168.444 49.632Z" fill="black"/>
<path d="M106.957 81.056C106.925 81.056 106.893 81.0453 106.861 81.024C106.834 81.0027 106.818 80.9733 106.813 80.936C106.813 80.8933 106.834 80.8453 106.877 80.792L108.381 78.896V79.104L106.973 77.344C106.93 77.2907 106.909 77.2453 106.909 77.208C106.914 77.1653 106.93 77.1333 106.957 77.112C106.989 77.0907 107.021 77.08 107.053 77.08C107.095 77.08 107.133 77.0907 107.165 77.112C107.197 77.128 107.226 77.1547 107.253 77.192L108.565 78.84H108.445L109.757 77.192C109.783 77.1547 109.813 77.128 109.845 77.112C109.877 77.0907 109.914 77.08 109.957 77.08C109.989 77.08 110.018 77.0907 110.045 77.112C110.077 77.1333 110.093 77.1653 110.093 77.208C110.098 77.2453 110.079 77.2907 110.037 77.344L108.645 79.08V78.928L110.133 80.792C110.175 80.8453 110.194 80.8933 110.189 80.936C110.189 80.9733 110.173 81.0027 110.141 81.024C110.114 81.0453 110.085 81.056 110.053 81.056C110.01 81.056 109.97 81.0453 109.933 81.024C109.901 81.008 109.869 80.9813 109.837 80.944L108.437 79.184H108.565L107.165 80.944C107.138 80.9813 107.106 81.008 107.069 81.024C107.037 81.0453 106.999 81.056 106.957 81.056Z" fill="black"/>
<path d="M83.3917 88.028C83.3277 88.132 83.2477 88.196 83.1517 88.22C83.0557 88.244 82.9597 88.236 82.8637 88.196C82.7677 88.156 82.6997 88.088 82.6597 87.992C82.6197 87.896 82.6277 87.772 82.6837 87.62C82.8997 87.084 83.0757 86.552 83.2117 86.024C83.3557 85.504 83.4637 84.98 83.5357 84.452C83.6077 83.924 83.6437 83.388 83.6437 82.844C83.6437 82.3 83.6037 81.764 83.5237 81.236C83.4517 80.708 83.3437 80.184 83.1997 79.664C83.0637 79.136 82.8917 78.604 82.6837 78.068C82.6277 77.916 82.6197 77.792 82.6597 77.696C82.7077 77.592 82.7757 77.524 82.8637 77.492C82.9517 77.452 83.0437 77.444 83.1397 77.468C83.2437 77.492 83.3277 77.556 83.3917 77.66C83.8317 78.476 84.1557 79.32 84.3637 80.192C84.5717 81.064 84.6757 81.948 84.6757 82.844C84.6757 83.444 84.6277 84.04 84.5317 84.632C84.4437 85.216 84.3037 85.792 84.1117 86.36C83.9277 86.928 83.6877 87.484 83.3917 88.028Z" fill="black"/>
<path d="M27 107L32.7398 107.623L30.4094 102.341L27 107ZM60.7982 91.5425L30.9153 104.726L31.319 105.641L61.2018 92.4575L60.7982 91.5425Z" fill="black"/>
<path d="M99 107L95.4091 102.479L93.2893 107.849L99 107ZM60.8164 92.4651L94.6307 105.813L94.9979 104.883L61.1836 91.5349L60.8164 92.4651Z" fill="black"/>
<path d="M61 107L63.8868 102H58.1132L61 107ZM60.5 92V102.5H61.5V92H60.5Z" fill="black"/>
<path d="M61 140L63.8868 135H58.1132L61 140ZM60.5 125V135.5H61.5V125H60.5Z" fill="black"/>
<path d="M27 140L29.8868 135H24.1132L27 140ZM26.5 125V135.5H27.5V125H26.5Z" fill="black"/>
<path d="M49.2852 87C49.1092 87 48.9732 86.956 48.8772 86.868C48.7892 86.772 48.7452 86.636 48.7452 86.46V79.08C48.7452 78.904 48.7892 78.772 48.8772 78.684C48.9732 78.588 49.1092 78.54 49.2852 78.54H53.7492C53.8852 78.54 53.9892 78.576 54.0612 78.648C54.1332 78.72 54.1692 78.82 54.1692 78.948C54.1692 79.084 54.1332 79.188 54.0612 79.26C53.9892 79.332 53.8852 79.368 53.7492 79.368H49.7052V82.296H53.4972C53.6332 82.296 53.7372 82.332 53.8092 82.404C53.8812 82.468 53.9172 82.568 53.9172 82.704C53.9172 82.84 53.8812 82.944 53.8092 83.016C53.7372 83.088 53.6332 83.124 53.4972 83.124H49.7052V86.172H53.7492C53.8852 86.172 53.9892 86.208 54.0612 86.28C54.1332 86.352 54.1692 86.452 54.1692 86.58C54.1692 86.716 54.1332 86.82 54.0612 86.892C53.9892 86.964 53.8852 87 53.7492 87H49.2852ZM55.6333 87.072C55.5293 87.072 55.4373 87.04 55.3573 86.976C55.2773 86.912 55.2333 86.828 55.2253 86.724C55.2253 86.612 55.2773 86.496 55.3813 86.376L57.4813 83.736V84.24L55.5133 81.78C55.4093 81.652 55.3573 81.536 55.3573 81.432C55.3653 81.328 55.4093 81.244 55.4893 81.18C55.5693 81.116 55.6613 81.084 55.7653 81.084C55.8853 81.084 55.9853 81.108 56.0653 81.156C56.1533 81.196 56.2333 81.264 56.3053 81.36L58.0213 83.532H57.6853L59.4133 81.36C59.4853 81.264 59.5613 81.196 59.6413 81.156C59.7213 81.108 59.8213 81.084 59.9413 81.084C60.0533 81.084 60.1453 81.116 60.2173 81.18C60.2973 81.244 60.3373 81.332 60.3373 81.444C60.3453 81.548 60.2973 81.664 60.1933 81.792L58.2373 84.216V83.772L60.3373 86.376C60.4333 86.496 60.4773 86.612 60.4693 86.724C60.4693 86.828 60.4293 86.912 60.3493 86.976C60.2693 87.04 60.1733 87.072 60.0613 87.072C59.9493 87.072 59.8493 87.048 59.7613 87C59.6813 86.96 59.6013 86.892 59.5213 86.796L57.6733 84.468H58.0213L56.1733 86.796C56.1013 86.884 56.0213 86.952 55.9333 87C55.8533 87.048 55.7533 87.072 55.6333 87.072ZM62.394 89.244C62.234 89.244 62.114 89.2 62.034 89.112C61.954 89.032 61.914 88.912 61.914 88.752V81.576C61.914 81.416 61.954 81.296 62.034 81.216C62.114 81.128 62.23 81.084 62.382 81.084C62.542 81.084 62.662 81.128 62.742 81.216C62.83 81.296 62.874 81.416 62.874 81.576V82.716L62.742 82.548C62.87 82.092 63.122 81.732 63.498 81.468C63.882 81.196 64.338 81.06 64.866 81.06C65.386 81.06 65.838 81.184 66.222 81.432C66.614 81.672 66.914 82.02 67.122 82.476C67.338 82.924 67.446 83.46 67.446 84.084C67.446 84.7 67.338 85.236 67.122 85.692C66.914 86.14 66.618 86.488 66.234 86.736C65.85 86.984 65.394 87.108 64.866 87.108C64.338 87.108 63.886 86.976 63.51 86.712C63.134 86.44 62.878 86.08 62.742 85.632H62.886V88.752C62.886 88.912 62.842 89.032 62.754 89.112C62.666 89.2 62.546 89.244 62.394 89.244ZM64.662 86.328C65.03 86.328 65.346 86.24 65.61 86.064C65.882 85.888 66.09 85.632 66.234 85.296C66.386 84.96 66.462 84.556 66.462 84.084C66.462 83.356 66.298 82.8 65.97 82.416C65.65 82.032 65.214 81.84 64.662 81.84C64.302 81.84 63.986 81.928 63.714 82.104C63.442 82.272 63.23 82.524 63.078 82.86C62.934 83.188 62.862 83.596 62.862 84.084C62.862 84.804 63.026 85.36 63.354 85.752C63.682 86.136 64.118 86.328 64.662 86.328ZM69.402 87.084C69.242 87.084 69.118 87.04 69.03 86.952C68.95 86.864 68.91 86.74 68.91 86.58V81.576C68.91 81.416 68.95 81.296 69.03 81.216C69.11 81.128 69.226 81.084 69.378 81.084C69.53 81.084 69.646 81.128 69.726 81.216C69.814 81.296 69.858 81.416 69.858 81.576V82.548H69.738C69.866 82.076 70.11 81.712 70.47 81.456C70.83 81.2 71.274 81.064 71.802 81.048C71.922 81.04 72.018 81.068 72.09 81.132C72.162 81.188 72.202 81.288 72.21 81.432C72.218 81.568 72.186 81.676 72.114 81.756C72.042 81.836 71.93 81.884 71.778 81.9L71.586 81.924C71.042 81.972 70.622 82.148 70.326 82.452C70.038 82.748 69.894 83.156 69.894 83.676V86.58C69.894 86.74 69.85 86.864 69.762 86.952C69.682 87.04 69.562 87.084 69.402 87.084Z" fill="black"/>
</svg>
