<svg width="351" height="109" viewBox="0 0 351 109" fill="none" xmlns="http://www.w3.org/2000/svg">
<path d="M66.745 18.1213C66.9449 17.9302 66.9524 17.6137 66.7619 17.4144L63.6565 14.1676C63.466 13.9683 63.1494 13.9618 62.9496 14.1529C62.7497 14.3441 62.7421 14.6606 62.9327 14.8598L65.693 17.7459L62.7976 20.5151C62.5978 20.7063 62.5902 21.0227 62.7808 21.222C62.9713 21.4212 63.2878 21.4278 63.4877 21.2366L66.745 18.1213ZM41.5891 17.7475L66.388 18.2604L66.4119 17.2607L41.613 16.7478L41.5891 17.7475Z" fill="black"/>
<rect x="66.6428" y="0.917358" width="75.6011" height="33.3634" stroke="black"/>
<path d="M73.45 22.077C73.3033 22.077 73.1897 22.0367 73.109 21.956C73.0357 21.868 72.999 21.7507 72.999 21.604V14.641C72.999 14.487 73.0357 14.3697 73.109 14.289C73.1897 14.2083 73.3033 14.168 73.45 14.168C73.5967 14.168 73.7067 14.2083 73.78 14.289C73.8607 14.3697 73.901 14.487 73.901 14.641V21.604C73.901 21.7507 73.8643 21.868 73.791 21.956C73.7177 22.0367 73.604 22.077 73.45 22.077ZM76.1432 22.077C75.9965 22.077 75.8865 22.0367 75.8132 21.956C75.7399 21.8753 75.7032 21.7617 75.7032 21.615V17.028C75.7032 16.8813 75.7399 16.7713 75.8132 16.698C75.8865 16.6173 75.9929 16.577 76.1322 16.577C76.2715 16.577 76.3779 16.6173 76.4512 16.698C76.5319 16.7713 76.5722 16.8813 76.5722 17.028V17.974L76.4512 17.842C76.6052 17.4167 76.8545 17.0977 77.1992 16.885C77.5512 16.665 77.9545 16.555 78.4092 16.555C78.8345 16.555 79.1865 16.632 79.4652 16.786C79.7512 16.94 79.9639 17.1747 80.1032 17.49C80.2425 17.798 80.3122 18.1903 80.3122 18.667V21.615C80.3122 21.7617 80.2719 21.8753 80.1912 21.956C80.1179 22.0367 80.0115 22.077 79.8722 22.077C79.7255 22.077 79.6119 22.0367 79.5312 21.956C79.4579 21.8753 79.4212 21.7617 79.4212 21.615V18.722C79.4212 18.2233 79.3222 17.8603 79.1242 17.633C78.9335 17.3983 78.6255 17.281 78.2002 17.281C77.7089 17.281 77.3165 17.435 77.0232 17.743C76.7372 18.0437 76.5942 18.447 76.5942 18.953V21.615C76.5942 21.923 76.4439 22.077 76.1432 22.077ZM82.3951 24.057C82.2485 24.057 82.1385 24.0167 82.0651 23.936C81.9918 23.8627 81.9551 23.7527 81.9551 23.606V17.028C81.9551 16.8813 81.9918 16.7713 82.0651 16.698C82.1385 16.6173 82.2448 16.577 82.3841 16.577C82.5308 16.577 82.6408 16.6173 82.7141 16.698C82.7948 16.7713 82.8351 16.8813 82.8351 17.028V18.073L82.7141 17.919C82.8315 17.501 83.0625 17.171 83.4071 16.929C83.7591 16.6797 84.1771 16.555 84.6611 16.555C85.1378 16.555 85.5521 16.6687 85.9041 16.896C86.2635 17.116 86.5385 17.435 86.7291 17.853C86.9271 18.2637 87.0261 18.755 87.0261 19.327C87.0261 19.8917 86.9271 20.383 86.7291 20.801C86.5385 21.2117 86.2671 21.5307 85.9151 21.758C85.5631 21.9853 85.1451 22.099 84.6611 22.099C84.1771 22.099 83.7628 21.978 83.4181 21.736C83.0735 21.4867 82.8388 21.1567 82.7141 20.746H82.8461V23.606C82.8461 23.7527 82.8058 23.8627 82.7251 23.936C82.6445 24.0167 82.5345 24.057 82.3951 24.057ZM84.4741 21.384C84.8115 21.384 85.1011 21.3033 85.3431 21.142C85.5925 20.9807 85.7831 20.746 85.9151 20.438C86.0545 20.13 86.1241 19.7597 86.1241 19.327C86.1241 18.6597 85.9738 18.15 85.6731 17.798C85.3798 17.446 84.9801 17.27 84.4741 17.27C84.1441 17.27 83.8545 17.3507 83.6051 17.512C83.3558 17.666 83.1615 17.897 83.0221 18.205C82.8901 18.5057 82.8241 18.8797 82.8241 19.327C82.8241 19.987 82.9745 20.4967 83.2751 20.856C83.5758 21.208 83.9755 21.384 84.4741 21.384ZM90.2602 22.099C89.8276 22.099 89.4682 22.022 89.1822 21.868C88.9036 21.7067 88.6909 21.4683 88.5442 21.153C88.4049 20.8377 88.3352 20.4453 88.3352 19.976V17.028C88.3352 16.874 88.3719 16.7603 88.4452 16.687C88.5259 16.6137 88.6359 16.577 88.7752 16.577C88.9219 16.577 89.0319 16.6137 89.1052 16.687C89.1859 16.7603 89.2262 16.874 89.2262 17.028V19.965C89.2262 20.4343 89.3216 20.7863 89.5122 21.021C89.7102 21.2483 90.0182 21.362 90.4362 21.362C90.8909 21.362 91.2612 21.208 91.5472 20.9C91.8332 20.592 91.9762 20.1887 91.9762 19.69V17.028C91.9762 16.874 92.0129 16.7603 92.0862 16.687C92.1669 16.6137 92.2806 16.577 92.4272 16.577C92.5666 16.577 92.6729 16.6137 92.7462 16.687C92.8269 16.7603 92.8672 16.874 92.8672 17.028V21.615C92.8672 21.923 92.7242 22.077 92.4382 22.077C92.2989 22.077 92.1889 22.0367 92.1082 21.956C92.0349 21.8753 91.9982 21.7617 91.9982 21.615V20.614L92.1412 20.768C91.9946 21.2007 91.7526 21.5307 91.4152 21.758C91.0852 21.9853 90.7002 22.099 90.2602 22.099ZM96.6792 22.099C96.2612 22.099 95.9092 22.0257 95.6232 21.879C95.3446 21.725 95.1356 21.505 94.9962 21.219C94.8569 20.9257 94.7872 20.57 94.7872 20.152V17.347H94.0502C93.9256 17.347 93.8302 17.3177 93.7642 17.259C93.6982 17.193 93.6652 17.105 93.6652 16.995C93.6652 16.885 93.6982 16.8007 93.7642 16.742C93.8302 16.6833 93.9256 16.654 94.0502 16.654H94.7872V15.389C94.7872 15.2423 94.8276 15.1323 94.9082 15.059C94.9889 14.9783 95.0989 14.938 95.2382 14.938C95.3776 14.938 95.4839 14.9783 95.5572 15.059C95.6379 15.1323 95.6782 15.2423 95.6782 15.389V16.654H97.0642C97.1889 16.654 97.2842 16.6833 97.3502 16.742C97.4162 16.8007 97.4492 16.885 97.4492 16.995C97.4492 17.105 97.4162 17.193 97.3502 17.259C97.2842 17.3177 97.1889 17.347 97.0642 17.347H95.6782V20.064C95.6782 20.482 95.7662 20.801 95.9422 21.021C96.1182 21.2337 96.4042 21.34 96.8002 21.34C96.9396 21.34 97.0569 21.3253 97.1522 21.296C97.2549 21.2667 97.3392 21.252 97.4052 21.252C97.4712 21.2447 97.5262 21.2667 97.5702 21.318C97.6142 21.3693 97.6362 21.4573 97.6362 21.582C97.6362 21.67 97.6179 21.7507 97.5812 21.824C97.5519 21.8973 97.4969 21.9487 97.4162 21.978C97.3282 22.0073 97.2109 22.033 97.0642 22.055C96.9249 22.0843 96.7966 22.099 96.6792 22.099ZM103.845 22.099C103.5 22.099 103.163 22.0697 102.833 22.011C102.503 21.9523 102.195 21.868 101.909 21.758C101.63 21.648 101.377 21.5087 101.15 21.34C101.062 21.274 101 21.2007 100.963 21.12C100.934 21.032 100.926 20.9477 100.941 20.867C100.963 20.779 101 20.7057 101.051 20.647C101.11 20.5883 101.179 20.5553 101.26 20.548C101.341 20.5407 101.429 20.5663 101.524 20.625C101.854 20.8597 102.206 21.032 102.58 21.142C102.954 21.2447 103.376 21.296 103.845 21.296C104.505 21.296 104.993 21.175 105.308 20.933C105.631 20.6837 105.792 20.3573 105.792 19.954C105.792 19.624 105.675 19.3673 105.44 19.184C105.213 18.9933 104.828 18.843 104.285 18.733L103.141 18.502C102.452 18.3553 101.935 18.117 101.59 17.787C101.253 17.4497 101.084 17.0023 101.084 16.445C101.084 16.1003 101.154 15.7887 101.293 15.51C101.432 15.224 101.627 14.982 101.876 14.784C102.125 14.5787 102.422 14.421 102.767 14.311C103.112 14.201 103.493 14.146 103.911 14.146C104.373 14.146 104.802 14.212 105.198 14.344C105.601 14.4687 105.964 14.6593 106.287 14.916C106.368 14.982 106.423 15.059 106.452 15.147C106.481 15.2277 106.485 15.3083 106.463 15.389C106.441 15.4623 106.401 15.5247 106.342 15.576C106.291 15.6273 106.221 15.6567 106.133 15.664C106.052 15.6713 105.961 15.642 105.858 15.576C105.565 15.356 105.26 15.1983 104.945 15.103C104.63 15.0003 104.281 14.949 103.9 14.949C103.511 14.949 103.174 15.0077 102.888 15.125C102.609 15.2423 102.389 15.4147 102.228 15.642C102.074 15.862 101.997 16.1187 101.997 16.412C101.997 16.764 102.103 17.0427 102.316 17.248C102.536 17.4533 102.892 17.6037 103.383 17.699L104.527 17.941C105.268 18.095 105.814 18.3297 106.166 18.645C106.525 18.953 106.705 19.3747 106.705 19.91C106.705 20.2327 106.639 20.5297 106.507 20.801C106.375 21.0723 106.184 21.307 105.935 21.505C105.686 21.6957 105.385 21.8423 105.033 21.945C104.681 22.0477 104.285 22.099 103.845 22.099ZM110.107 22.099C109.689 22.099 109.337 22.0257 109.051 21.879C108.772 21.725 108.563 21.505 108.424 21.219C108.285 20.9257 108.215 20.57 108.215 20.152V17.347H107.478C107.353 17.347 107.258 17.3177 107.192 17.259C107.126 17.193 107.093 17.105 107.093 16.995C107.093 16.885 107.126 16.8007 107.192 16.742C107.258 16.6833 107.353 16.654 107.478 16.654H108.215V15.389C108.215 15.2423 108.255 15.1323 108.336 15.059C108.417 14.9783 108.527 14.938 108.666 14.938C108.805 14.938 108.912 14.9783 108.985 15.059C109.066 15.1323 109.106 15.2423 109.106 15.389V16.654H110.492C110.617 16.654 110.712 16.6833 110.778 16.742C110.844 16.8007 110.877 16.885 110.877 16.995C110.877 17.105 110.844 17.193 110.778 17.259C110.712 17.3177 110.617 17.347 110.492 17.347H109.106V20.064C109.106 20.482 109.194 20.801 109.37 21.021C109.546 21.2337 109.832 21.34 110.228 21.34C110.367 21.34 110.485 21.3253 110.58 21.296C110.683 21.2667 110.767 21.252 110.833 21.252C110.899 21.2447 110.954 21.2667 110.998 21.318C111.042 21.3693 111.064 21.4573 111.064 21.582C111.064 21.67 111.046 21.7507 111.009 21.824C110.98 21.8973 110.925 21.9487 110.844 21.978C110.756 22.0073 110.639 22.033 110.492 22.055C110.353 22.0843 110.224 22.099 110.107 22.099ZM112.259 22.077C112.112 22.077 111.998 22.0367 111.918 21.956C111.844 21.8753 111.808 21.7617 111.808 21.615V17.028C111.808 16.8813 111.844 16.7713 111.918 16.698C111.991 16.6173 112.097 16.577 112.237 16.577C112.376 16.577 112.482 16.6173 112.556 16.698C112.636 16.7713 112.677 16.8813 112.677 17.028V17.919H112.567C112.684 17.4863 112.908 17.1527 113.238 16.918C113.568 16.6833 113.975 16.5587 114.459 16.544C114.569 16.5367 114.657 16.5623 114.723 16.621C114.789 16.6723 114.825 16.764 114.833 16.896C114.84 17.0207 114.811 17.1197 114.745 17.193C114.679 17.2663 114.576 17.3103 114.437 17.325L114.261 17.347C113.762 17.391 113.377 17.5523 113.106 17.831C112.842 18.1023 112.71 18.4763 112.71 18.953V21.615C112.71 21.7617 112.669 21.8753 112.589 21.956C112.515 22.0367 112.405 22.077 112.259 22.077ZM118.095 22.099C117.53 22.099 117.042 21.989 116.632 21.769C116.228 21.5417 115.913 21.2227 115.686 20.812C115.466 20.4013 115.356 19.91 115.356 19.338C115.356 18.7807 115.466 18.2967 115.686 17.886C115.906 17.468 116.206 17.1417 116.588 16.907C116.976 16.6723 117.424 16.555 117.93 16.555C118.289 16.555 118.612 16.6173 118.898 16.742C119.184 16.8593 119.426 17.0317 119.624 17.259C119.829 17.4863 119.983 17.7613 120.086 18.084C120.196 18.4067 120.251 18.7697 120.251 19.173C120.251 19.2903 120.218 19.3783 120.152 19.437C120.086 19.4883 119.99 19.514 119.866 19.514H116.038V18.931H119.657L119.481 19.074C119.481 18.678 119.422 18.3443 119.305 18.073C119.187 17.7943 119.015 17.5817 118.788 17.435C118.568 17.2883 118.289 17.215 117.952 17.215C117.578 17.215 117.259 17.303 116.995 17.479C116.738 17.6477 116.544 17.886 116.412 18.194C116.28 18.4947 116.214 18.8467 116.214 19.25V19.316C116.214 19.9907 116.375 20.504 116.698 20.856C117.028 21.208 117.493 21.384 118.095 21.384C118.344 21.384 118.59 21.351 118.832 21.285C119.081 21.219 119.323 21.109 119.558 20.955C119.66 20.889 119.752 20.8597 119.833 20.867C119.921 20.867 119.99 20.8927 120.042 20.944C120.093 20.988 120.126 21.0467 120.141 21.12C120.163 21.186 120.155 21.2593 120.119 21.34C120.089 21.4207 120.027 21.4903 119.932 21.549C119.69 21.725 119.404 21.8607 119.074 21.956C118.744 22.0513 118.417 22.099 118.095 22.099ZM123.223 22.099C122.856 22.099 122.526 22.0293 122.233 21.89C121.947 21.7433 121.72 21.5453 121.551 21.296C121.382 21.0467 121.298 20.768 121.298 20.46C121.298 20.064 121.397 19.7523 121.595 19.525C121.8 19.2977 122.134 19.1363 122.596 19.041C123.065 18.9457 123.703 18.898 124.51 18.898H125.005V19.481H124.521C123.927 19.481 123.458 19.5103 123.113 19.569C122.776 19.6203 122.537 19.712 122.398 19.844C122.266 19.976 122.2 20.163 122.2 20.405C122.2 20.7057 122.303 20.9513 122.508 21.142C122.721 21.3327 123.007 21.428 123.366 21.428C123.659 21.428 123.916 21.3583 124.136 21.219C124.363 21.0797 124.539 20.889 124.664 20.647C124.796 20.405 124.862 20.1263 124.862 19.811V18.557C124.862 18.1023 124.77 17.776 124.587 17.578C124.404 17.3727 124.103 17.27 123.685 17.27C123.428 17.27 123.172 17.303 122.915 17.369C122.658 17.435 122.387 17.5413 122.101 17.688C121.998 17.7393 121.91 17.7577 121.837 17.743C121.764 17.721 121.705 17.6807 121.661 17.622C121.617 17.5633 121.591 17.4973 121.584 17.424C121.577 17.3433 121.591 17.2663 121.628 17.193C121.672 17.1197 121.738 17.061 121.826 17.017C122.149 16.8557 122.468 16.7383 122.783 16.665C123.098 16.5917 123.399 16.555 123.685 16.555C124.147 16.555 124.528 16.632 124.829 16.786C125.13 16.9327 125.353 17.16 125.5 17.468C125.647 17.7687 125.72 18.1573 125.72 18.634V21.615C125.72 21.7617 125.683 21.8753 125.61 21.956C125.544 22.0367 125.445 22.077 125.313 22.077C125.174 22.077 125.067 22.0367 124.994 21.956C124.921 21.8753 124.884 21.7617 124.884 21.615V20.757H124.983C124.924 21.0357 124.811 21.274 124.642 21.472C124.481 21.67 124.279 21.824 124.037 21.934C123.795 22.044 123.524 22.099 123.223 22.099ZM127.835 22.077C127.688 22.077 127.578 22.0367 127.505 21.956C127.432 21.8753 127.395 21.7617 127.395 21.615V17.028C127.395 16.8813 127.432 16.7713 127.505 16.698C127.578 16.6173 127.685 16.577 127.824 16.577C127.963 16.577 128.07 16.6173 128.143 16.698C128.224 16.7713 128.264 16.8813 128.264 17.028V17.996L128.143 17.842C128.282 17.4313 128.506 17.116 128.814 16.896C129.129 16.6687 129.503 16.555 129.936 16.555C130.391 16.555 130.757 16.665 131.036 16.885C131.322 17.0977 131.513 17.4313 131.608 17.886H131.443C131.575 17.4753 131.81 17.1527 132.147 16.918C132.492 16.676 132.891 16.555 133.346 16.555C133.749 16.555 134.079 16.632 134.336 16.786C134.6 16.94 134.798 17.1747 134.93 17.49C135.062 17.798 135.128 18.1903 135.128 18.667V21.615C135.128 21.7617 135.088 21.8753 135.007 21.956C134.934 22.0367 134.824 22.077 134.677 22.077C134.538 22.077 134.428 22.0367 134.347 21.956C134.274 21.8753 134.237 21.7617 134.237 21.615V18.711C134.237 18.2197 134.153 17.8603 133.984 17.633C133.815 17.3983 133.529 17.281 133.126 17.281C132.686 17.281 132.338 17.435 132.081 17.743C131.832 18.0437 131.707 18.4543 131.707 18.975V21.615C131.707 21.7617 131.667 21.8753 131.586 21.956C131.513 22.0367 131.403 22.077 131.256 22.077C131.117 22.077 131.007 22.0367 130.926 21.956C130.853 21.8753 130.816 21.7617 130.816 21.615V18.711C130.816 18.2197 130.728 17.8603 130.552 17.633C130.383 17.3983 130.101 17.281 129.705 17.281C129.265 17.281 128.917 17.435 128.66 17.743C128.411 18.0437 128.286 18.4543 128.286 18.975V21.615C128.286 21.923 128.136 22.077 127.835 22.077Z" fill="black"/>
<path d="M170.994 19.8214C171.19 19.6262 171.19 19.3096 170.994 19.1143L167.812 15.9324C167.617 15.7371 167.301 15.7371 167.105 15.9324C166.91 16.1276 166.91 16.4442 167.105 16.6395L169.934 19.4679L167.105 22.2963C166.91 22.4916 166.91 22.8082 167.105 23.0034C167.301 23.1987 167.617 23.1987 167.812 23.0034L170.994 19.8214ZM142.947 19.9679H170.641V18.9679H142.947V19.9679Z" fill="black"/>
<rect x="171.607" y="1.84827" width="75.6011" height="33.3634" stroke="black"/>
<path d="M189.375 16.077C189.235 16.077 189.125 16.0367 189.045 15.956C188.964 15.868 188.924 15.7507 188.924 15.604V9.026H186.449C186.317 9.026 186.214 8.98933 186.141 8.916C186.067 8.84267 186.031 8.74733 186.031 8.63C186.031 8.50533 186.067 8.41 186.141 8.344C186.214 8.278 186.317 8.245 186.449 8.245H192.312C192.444 8.245 192.546 8.278 192.62 8.344C192.693 8.41 192.73 8.50533 192.73 8.63C192.73 8.75467 192.693 8.85367 192.62 8.927C192.546 8.993 192.444 9.026 192.312 9.026H189.837V15.604C189.837 15.7507 189.796 15.868 189.716 15.956C189.642 16.0367 189.529 16.077 189.375 16.077ZM194.901 16.099C194.38 16.099 193.929 15.9853 193.548 15.758C193.167 15.5307 192.87 15.2117 192.657 14.801C192.452 14.383 192.349 13.8917 192.349 13.327C192.349 12.9017 192.408 12.5203 192.525 12.183C192.642 11.8383 192.815 11.545 193.042 11.303C193.269 11.061 193.537 10.8777 193.845 10.753C194.16 10.621 194.512 10.555 194.901 10.555C195.422 10.555 195.873 10.6687 196.254 10.896C196.635 11.1233 196.929 11.446 197.134 11.864C197.347 12.2747 197.453 12.7623 197.453 13.327C197.453 13.7523 197.394 14.1337 197.277 14.471C197.16 14.8083 196.987 15.1017 196.76 15.351C196.533 15.593 196.261 15.78 195.946 15.912C195.638 16.0367 195.29 16.099 194.901 16.099ZM194.901 15.384C195.231 15.384 195.521 15.3033 195.77 15.142C196.019 14.9807 196.21 14.746 196.342 14.438C196.481 14.13 196.551 13.7597 196.551 13.327C196.551 12.6597 196.401 12.15 196.1 11.798C195.807 11.446 195.407 11.27 194.901 11.27C194.564 11.27 194.27 11.3507 194.021 11.512C193.779 11.666 193.588 11.897 193.449 12.205C193.317 12.5057 193.251 12.8797 193.251 13.327C193.251 13.987 193.401 14.4967 193.702 14.856C194.003 15.208 194.402 15.384 194.901 15.384ZM199.231 16.077C199.085 16.077 198.975 16.0367 198.901 15.956C198.828 15.8753 198.791 15.7617 198.791 15.615V8.619C198.791 8.47233 198.828 8.36233 198.901 8.289C198.975 8.20833 199.085 8.168 199.231 8.168C199.371 8.168 199.481 8.20833 199.561 8.289C199.642 8.36233 199.682 8.47233 199.682 8.619V13.03H199.704L201.959 10.874C202.062 10.7787 202.15 10.7053 202.223 10.654C202.304 10.6027 202.41 10.577 202.542 10.577C202.66 10.577 202.751 10.61 202.817 10.676C202.883 10.7347 202.913 10.8117 202.905 10.907C202.905 10.995 202.861 11.0903 202.773 11.193L200.375 13.47V12.986L202.982 15.439C203.085 15.5417 203.136 15.6407 203.136 15.736C203.136 15.8313 203.1 15.912 203.026 15.978C202.96 16.044 202.872 16.077 202.762 16.077C202.63 16.077 202.524 16.0513 202.443 16C202.363 15.9413 202.264 15.857 202.146 15.747L199.704 13.492H199.682V15.615C199.682 15.923 199.532 16.077 199.231 16.077ZM206.561 16.099C205.996 16.099 205.508 15.989 205.098 15.769C204.694 15.5417 204.379 15.2227 204.152 14.812C203.932 14.4013 203.822 13.91 203.822 13.338C203.822 12.7807 203.932 12.2967 204.152 11.886C204.372 11.468 204.672 11.1417 205.054 10.907C205.442 10.6723 205.89 10.555 206.396 10.555C206.755 10.555 207.078 10.6173 207.364 10.742C207.65 10.8593 207.892 11.0317 208.09 11.259C208.295 11.4863 208.449 11.7613 208.552 12.084C208.662 12.4067 208.717 12.7697 208.717 13.173C208.717 13.2903 208.684 13.3783 208.618 13.437C208.552 13.4883 208.456 13.514 208.332 13.514H204.504V12.931H208.123L207.947 13.074C207.947 12.678 207.888 12.3443 207.771 12.073C207.653 11.7943 207.481 11.5817 207.254 11.435C207.034 11.2883 206.755 11.215 206.418 11.215C206.044 11.215 205.725 11.303 205.461 11.479C205.204 11.6477 205.01 11.886 204.878 12.194C204.746 12.4947 204.68 12.8467 204.68 13.25V13.316C204.68 13.9907 204.841 14.504 205.164 14.856C205.494 15.208 205.959 15.384 206.561 15.384C206.81 15.384 207.056 15.351 207.298 15.285C207.547 15.219 207.789 15.109 208.024 14.955C208.126 14.889 208.218 14.8597 208.299 14.867C208.387 14.867 208.456 14.8927 208.508 14.944C208.559 14.988 208.592 15.0467 208.607 15.12C208.629 15.186 208.621 15.2593 208.585 15.34C208.555 15.4207 208.493 15.4903 208.398 15.549C208.156 15.725 207.87 15.8607 207.54 15.956C207.21 16.0513 206.883 16.099 206.561 16.099ZM210.446 16.077C210.3 16.077 210.19 16.0367 210.116 15.956C210.043 15.8753 210.006 15.7617 210.006 15.615V11.028C210.006 10.8813 210.043 10.7713 210.116 10.698C210.19 10.6173 210.296 10.577 210.435 10.577C210.575 10.577 210.681 10.6173 210.754 10.698C210.835 10.7713 210.875 10.8813 210.875 11.028V11.974L210.754 11.842C210.908 11.4167 211.158 11.0977 211.502 10.885C211.854 10.665 212.258 10.555 212.712 10.555C213.138 10.555 213.49 10.632 213.768 10.786C214.054 10.94 214.267 11.1747 214.406 11.49C214.546 11.798 214.615 12.1903 214.615 12.667V15.615C214.615 15.7617 214.575 15.8753 214.494 15.956C214.421 16.0367 214.315 16.077 214.175 16.077C214.029 16.077 213.915 16.0367 213.834 15.956C213.761 15.8753 213.724 15.7617 213.724 15.615V12.722C213.724 12.2233 213.625 11.8603 213.427 11.633C213.237 11.3983 212.929 11.281 212.503 11.281C212.012 11.281 211.62 11.435 211.326 11.743C211.04 12.0437 210.897 12.447 210.897 12.953V15.615C210.897 15.923 210.747 16.077 210.446 16.077ZM216.698 16.055C216.552 16.055 216.442 16.0147 216.368 15.934C216.295 15.846 216.258 15.725 216.258 15.571V11.072C216.258 10.918 216.295 10.8007 216.368 10.72C216.442 10.6393 216.552 10.599 216.698 10.599C216.838 10.599 216.948 10.6393 217.028 10.72C217.109 10.8007 217.149 10.918 217.149 11.072V15.571C217.149 15.725 217.109 15.846 217.028 15.934C216.955 16.0147 216.845 16.055 216.698 16.055ZM216.698 9.367C216.515 9.367 216.372 9.31933 216.269 9.224C216.167 9.12133 216.115 8.98567 216.115 8.817C216.115 8.641 216.167 8.509 216.269 8.421C216.372 8.32567 216.515 8.278 216.698 8.278C216.889 8.278 217.032 8.32567 217.127 8.421C217.23 8.509 217.281 8.641 217.281 8.817C217.281 8.98567 217.23 9.12133 217.127 9.224C217.032 9.31933 216.889 9.367 216.698 9.367ZM218.914 16C218.819 16 218.742 15.978 218.683 15.934C218.624 15.89 218.584 15.8313 218.562 15.758C218.54 15.6847 218.54 15.604 218.562 15.516C218.584 15.428 218.632 15.3437 218.705 15.263L221.807 11.116V11.347H218.87C218.753 11.347 218.661 11.3177 218.595 11.259C218.536 11.193 218.507 11.105 218.507 10.995C218.507 10.885 218.536 10.8007 218.595 10.742C218.661 10.6833 218.753 10.654 218.87 10.654H222.247C222.357 10.654 222.445 10.676 222.511 10.72C222.584 10.764 222.632 10.8227 222.654 10.896C222.676 10.962 222.676 11.039 222.654 11.127C222.639 11.2077 222.599 11.2883 222.533 11.369L219.376 15.56V15.307H222.467C222.709 15.307 222.83 15.4207 222.83 15.648C222.83 15.758 222.797 15.846 222.731 15.912C222.672 15.9707 222.584 16 222.467 16H218.914ZM226.208 16.099C225.644 16.099 225.156 15.989 224.745 15.769C224.342 15.5417 224.027 15.2227 223.799 14.812C223.579 14.4013 223.469 13.91 223.469 13.338C223.469 12.7807 223.579 12.2967 223.799 11.886C224.019 11.468 224.32 11.1417 224.701 10.907C225.09 10.6723 225.537 10.555 226.043 10.555C226.403 10.555 226.725 10.6173 227.011 10.742C227.297 10.8593 227.539 11.0317 227.737 11.259C227.943 11.4863 228.097 11.7613 228.199 12.084C228.309 12.4067 228.364 12.7697 228.364 13.173C228.364 13.2903 228.331 13.3783 228.265 13.437C228.199 13.4883 228.104 13.514 227.979 13.514H224.151V12.931H227.77L227.594 13.074C227.594 12.678 227.536 12.3443 227.418 12.073C227.301 11.7943 227.129 11.5817 226.901 11.435C226.681 11.2883 226.403 11.215 226.065 11.215C225.691 11.215 225.372 11.303 225.108 11.479C224.852 11.6477 224.657 11.886 224.525 12.194C224.393 12.4947 224.327 12.8467 224.327 13.25V13.316C224.327 13.9907 224.489 14.504 224.811 14.856C225.141 15.208 225.607 15.384 226.208 15.384C226.458 15.384 226.703 15.351 226.945 15.285C227.195 15.219 227.437 15.109 227.671 14.955C227.774 14.889 227.866 14.8597 227.946 14.867C228.034 14.867 228.104 14.8927 228.155 14.944C228.207 14.988 228.24 15.0467 228.254 15.12C228.276 15.186 228.269 15.2593 228.232 15.34C228.203 15.4207 228.141 15.4903 228.045 15.549C227.803 15.725 227.517 15.8607 227.187 15.956C226.857 16.0513 226.531 16.099 226.208 16.099ZM230.105 16.077C229.958 16.077 229.844 16.0367 229.764 15.956C229.69 15.8753 229.654 15.7617 229.654 15.615V11.028C229.654 10.8813 229.69 10.7713 229.764 10.698C229.837 10.6173 229.943 10.577 230.083 10.577C230.222 10.577 230.328 10.6173 230.402 10.698C230.482 10.7713 230.523 10.8813 230.523 11.028V11.919H230.413C230.53 11.4863 230.754 11.1527 231.084 10.918C231.414 10.6833 231.821 10.5587 232.305 10.544C232.415 10.5367 232.503 10.5623 232.569 10.621C232.635 10.6723 232.671 10.764 232.679 10.896C232.686 11.0207 232.657 11.1197 232.591 11.193C232.525 11.2663 232.422 11.3103 232.283 11.325L232.107 11.347C231.608 11.391 231.223 11.5523 230.952 11.831C230.688 12.1023 230.556 12.4763 230.556 12.953V15.615C230.556 15.7617 230.515 15.8753 230.435 15.956C230.361 16.0367 230.251 16.077 230.105 16.077ZM183.469 32.98C183.227 32.98 183.021 32.936 182.853 32.848C182.691 32.7673 182.567 32.6427 182.479 32.474C182.398 32.3053 182.358 32.1 182.358 31.858V29.361C182.358 29.053 182.295 28.8293 182.171 28.69C182.053 28.5507 181.841 28.4773 181.533 28.47C181.437 28.47 181.36 28.4333 181.302 28.36C181.243 28.2867 181.214 28.2023 181.214 28.107C181.214 28.0043 181.243 27.92 181.302 27.854C181.36 27.788 181.437 27.7513 181.533 27.744C181.841 27.7367 182.053 27.6633 182.171 27.524C182.295 27.3847 182.358 27.1647 182.358 26.864V24.367C182.358 24.0003 182.453 23.7217 182.644 23.531C182.834 23.3403 183.109 23.245 183.469 23.245H184.228C184.338 23.245 184.429 23.278 184.503 23.344C184.576 23.41 184.613 23.4943 184.613 23.597C184.613 23.6923 184.58 23.7767 184.514 23.85C184.455 23.916 184.374 23.949 184.272 23.949H183.722C183.568 23.949 183.45 23.9893 183.37 24.07C183.289 24.1507 183.249 24.2753 183.249 24.444V26.952C183.249 27.172 183.205 27.3737 183.117 27.557C183.029 27.733 182.911 27.8723 182.765 27.975C182.618 28.0777 182.446 28.129 182.248 28.129V28.085C182.446 28.085 182.618 28.1363 182.765 28.239C182.911 28.3417 183.029 28.4847 183.117 28.668C183.205 28.844 183.249 29.042 183.249 29.262V31.781C183.249 31.9497 183.289 32.0743 183.37 32.155C183.45 32.2357 183.568 32.276 183.722 32.276H184.272C184.374 32.276 184.455 32.309 184.514 32.375C184.58 32.4483 184.613 32.5327 184.613 32.628C184.613 32.7233 184.576 32.804 184.503 32.87C184.429 32.9433 184.338 32.98 184.228 32.98H183.469ZM186.027 31.077C185.88 31.077 185.767 31.0367 185.686 30.956C185.613 30.868 185.576 30.7507 185.576 30.604V23.641C185.576 23.487 185.613 23.3697 185.686 23.289C185.767 23.2083 185.88 23.168 186.027 23.168C186.174 23.168 186.284 23.2083 186.357 23.289C186.438 23.3697 186.478 23.487 186.478 23.641V26.677H191.131V23.641C191.131 23.487 191.168 23.3697 191.241 23.289C191.322 23.2083 191.435 23.168 191.582 23.168C191.729 23.168 191.839 23.2083 191.912 23.289C191.993 23.3697 192.033 23.487 192.033 23.641V30.604C192.033 30.7507 191.993 30.868 191.912 30.956C191.839 31.0367 191.729 31.077 191.582 31.077C191.435 31.077 191.322 31.0367 191.241 30.956C191.168 30.868 191.131 30.7507 191.131 30.604V27.458H186.478V30.604C186.478 30.7507 186.441 30.868 186.368 30.956C186.295 31.0367 186.181 31.077 186.027 31.077ZM195.011 33.057C194.901 33.057 194.813 33.0277 194.747 32.969C194.681 32.9103 194.641 32.8297 194.626 32.727C194.619 32.6317 194.637 32.5327 194.681 32.43L195.44 30.725V31.11L193.328 26.204C193.284 26.094 193.269 25.9913 193.284 25.896C193.299 25.8007 193.343 25.7237 193.416 25.665C193.489 25.6063 193.592 25.577 193.724 25.577C193.841 25.577 193.933 25.6027 193.999 25.654C194.065 25.7053 194.124 25.797 194.175 25.929L195.979 30.351H195.682L197.508 25.929C197.567 25.797 197.629 25.7053 197.695 25.654C197.761 25.6027 197.856 25.577 197.981 25.577C198.098 25.577 198.186 25.6063 198.245 25.665C198.311 25.7237 198.348 25.8007 198.355 25.896C198.37 25.984 198.355 26.083 198.311 26.193L195.495 32.705C195.436 32.837 195.37 32.9287 195.297 32.98C195.231 33.0313 195.136 33.057 195.011 33.057ZM202.18 31.099C201.696 31.099 201.278 30.9743 200.926 30.725C200.581 30.4757 200.35 30.142 200.233 29.724L200.354 29.603V30.615C200.354 30.7617 200.313 30.8753 200.233 30.956C200.159 31.0367 200.053 31.077 199.914 31.077C199.767 31.077 199.657 31.0367 199.584 30.956C199.51 30.8753 199.474 30.7617 199.474 30.615V23.619C199.474 23.4723 199.51 23.3623 199.584 23.289C199.657 23.2083 199.767 23.168 199.914 23.168C200.053 23.168 200.163 23.2083 200.244 23.289C200.324 23.3623 200.365 23.4723 200.365 23.619V26.897H200.233C200.357 26.4863 200.592 26.16 200.937 25.918C201.281 25.676 201.696 25.555 202.18 25.555C202.664 25.555 203.082 25.6687 203.434 25.896C203.786 26.116 204.057 26.435 204.248 26.853C204.446 27.2637 204.545 27.755 204.545 28.327C204.545 28.8917 204.446 29.383 204.248 29.801C204.057 30.2117 203.782 30.5307 203.423 30.758C203.071 30.9853 202.656 31.099 202.18 31.099ZM201.993 30.384C202.33 30.384 202.62 30.3033 202.862 30.142C203.111 29.9807 203.302 29.746 203.434 29.438C203.573 29.13 203.643 28.7597 203.643 28.327C203.643 27.6597 203.492 27.15 203.192 26.798C202.898 26.446 202.499 26.27 201.993 26.27C201.663 26.27 201.373 26.3507 201.124 26.512C200.874 26.666 200.68 26.897 200.541 27.205C200.409 27.5057 200.343 27.8797 200.343 28.327C200.343 28.987 200.493 29.4967 200.794 29.856C201.094 30.208 201.494 30.384 201.993 30.384ZM206.338 31.077C206.191 31.077 206.077 31.0367 205.997 30.956C205.923 30.8753 205.887 30.7617 205.887 30.615V26.028C205.887 25.8813 205.923 25.7713 205.997 25.698C206.07 25.6173 206.176 25.577 206.316 25.577C206.455 25.577 206.561 25.6173 206.635 25.698C206.715 25.7713 206.756 25.8813 206.756 26.028V26.919H206.646C206.763 26.4863 206.987 26.1527 207.317 25.918C207.647 25.6833 208.054 25.5587 208.538 25.544C208.648 25.5367 208.736 25.5623 208.802 25.621C208.868 25.6723 208.904 25.764 208.912 25.896C208.919 26.0207 208.89 26.1197 208.824 26.193C208.758 26.2663 208.655 26.3103 208.516 26.325L208.34 26.347C207.841 26.391 207.456 26.5523 207.185 26.831C206.921 27.1023 206.789 27.4763 206.789 27.953V30.615C206.789 30.7617 206.748 30.8753 206.668 30.956C206.594 31.0367 206.484 31.077 206.338 31.077ZM210.269 31.055C210.122 31.055 210.012 31.0147 209.939 30.934C209.866 30.846 209.829 30.725 209.829 30.571V26.072C209.829 25.918 209.866 25.8007 209.939 25.72C210.012 25.6393 210.122 25.599 210.269 25.599C210.408 25.599 210.518 25.6393 210.599 25.72C210.68 25.8007 210.72 25.918 210.72 26.072V30.571C210.72 30.725 210.68 30.846 210.599 30.934C210.526 31.0147 210.416 31.055 210.269 31.055ZM210.269 24.367C210.086 24.367 209.943 24.3193 209.84 24.224C209.737 24.1213 209.686 23.9857 209.686 23.817C209.686 23.641 209.737 23.509 209.84 23.421C209.943 23.3257 210.086 23.278 210.269 23.278C210.46 23.278 210.603 23.3257 210.698 23.421C210.801 23.509 210.852 23.641 210.852 23.817C210.852 23.9857 210.801 24.1213 210.698 24.224C210.603 24.3193 210.46 24.367 210.269 24.367ZM214.421 31.099C213.944 31.099 213.526 30.9853 213.167 30.758C212.815 30.5307 212.54 30.2117 212.342 29.801C212.151 29.383 212.056 28.8917 212.056 28.327C212.056 27.755 212.151 27.2637 212.342 26.853C212.54 26.435 212.815 26.116 213.167 25.896C213.526 25.6687 213.944 25.555 214.421 25.555C214.905 25.555 215.319 25.676 215.664 25.918C216.008 26.16 216.239 26.4863 216.357 26.897H216.236V23.619C216.236 23.4723 216.272 23.3623 216.346 23.289C216.426 23.2083 216.54 23.168 216.687 23.168C216.826 23.168 216.932 23.2083 217.006 23.289C217.086 23.3623 217.127 23.4723 217.127 23.619V30.615C217.127 30.7617 217.09 30.8753 217.017 30.956C216.943 31.0367 216.833 31.077 216.687 31.077C216.547 31.077 216.437 31.0367 216.357 30.956C216.283 30.8753 216.247 30.7617 216.247 30.615V29.57L216.368 29.724C216.25 30.142 216.016 30.4757 215.664 30.725C215.319 30.9743 214.905 31.099 214.421 31.099ZM214.608 30.384C214.938 30.384 215.227 30.3033 215.477 30.142C215.726 29.9807 215.917 29.746 216.049 29.438C216.188 29.13 216.258 28.7597 216.258 28.327C216.258 27.6597 216.107 27.15 215.807 26.798C215.513 26.446 215.114 26.27 214.608 26.27C214.27 26.27 213.977 26.3507 213.728 26.512C213.486 26.666 213.295 26.897 213.156 27.205C213.024 27.5057 212.958 27.8797 212.958 28.327C212.958 28.987 213.108 29.4967 213.409 29.856C213.709 30.208 214.109 30.384 214.608 30.384ZM222.24 31.077C222.086 31.077 221.965 31.0367 221.877 30.956C221.796 30.868 221.756 30.7433 221.756 30.582V23.74C221.756 23.5787 221.796 23.4577 221.877 23.377C221.965 23.289 222.089 23.245 222.251 23.245H226.244C226.368 23.245 226.464 23.278 226.53 23.344C226.596 23.41 226.629 23.5017 226.629 23.619C226.629 23.7437 226.596 23.839 226.53 23.905C226.464 23.971 226.368 24.004 226.244 24.004H222.658V26.71H226.013C226.137 26.71 226.233 26.743 226.299 26.809C226.372 26.875 226.409 26.9667 226.409 27.084C226.409 27.2087 226.372 27.304 226.299 27.37C226.233 27.436 226.137 27.469 226.013 27.469H222.658V30.582C222.658 30.912 222.518 31.077 222.24 31.077ZM226.983 31.077C226.866 31.077 226.771 31.0513 226.697 31C226.631 30.9413 226.591 30.868 226.576 30.78C226.569 30.6847 226.591 30.5783 226.642 30.461L229.667 23.575C229.733 23.4283 229.81 23.3257 229.898 23.267C229.994 23.201 230.096 23.168 230.206 23.168C230.316 23.168 230.415 23.201 230.503 23.267C230.599 23.3257 230.676 23.4283 230.734 23.575L233.77 30.461C233.829 30.5783 233.851 30.6847 233.836 30.78C233.829 30.8753 233.792 30.9487 233.726 31C233.66 31.0513 233.569 31.077 233.451 31.077C233.319 31.077 233.213 31.044 233.132 30.978C233.052 30.9047 232.986 30.802 232.934 30.67L232.12 28.789L232.56 29.02H227.83L228.281 28.789L227.478 30.67C227.412 30.8093 227.343 30.912 227.269 30.978C227.196 31.044 227.101 31.077 226.983 31.077ZM230.195 24.301L228.424 28.47L228.16 28.261H232.23L231.988 28.47L230.217 24.301H230.195ZM234.601 32.98C234.491 32.98 234.399 32.9433 234.326 32.87C234.253 32.804 234.216 32.7233 234.216 32.628C234.216 32.5327 234.245 32.4483 234.304 32.375C234.37 32.309 234.454 32.276 234.557 32.276H235.107C235.268 32.276 235.386 32.2357 235.459 32.155C235.54 32.0743 235.58 31.9497 235.58 31.781V29.262C235.58 29.042 235.624 28.844 235.712 28.668C235.8 28.4847 235.917 28.3417 236.064 28.239C236.218 28.1363 236.39 28.085 236.581 28.085V28.129C236.39 28.129 236.218 28.0777 236.064 27.975C235.917 27.8723 235.8 27.733 235.712 27.557C235.624 27.3737 235.58 27.172 235.58 26.952V24.444C235.58 24.2753 235.54 24.1507 235.459 24.07C235.386 23.9893 235.268 23.949 235.107 23.949H234.557C234.454 23.949 234.37 23.916 234.304 23.85C234.245 23.7767 234.216 23.6923 234.216 23.597C234.216 23.4943 234.253 23.41 234.326 23.344C234.399 23.278 234.491 23.245 234.601 23.245H235.371C235.606 23.245 235.804 23.289 235.965 23.377C236.134 23.4577 236.258 23.5823 236.339 23.751C236.427 23.9197 236.471 24.125 236.471 24.367V26.864C236.471 27.1647 236.53 27.3847 236.647 27.524C236.772 27.6633 236.988 27.7367 237.296 27.744C237.399 27.7513 237.476 27.7917 237.527 27.865C237.586 27.931 237.615 28.0117 237.615 28.107C237.615 28.2023 237.586 28.2867 237.527 28.36C237.476 28.4333 237.399 28.47 237.296 28.47C236.988 28.4773 236.772 28.5507 236.647 28.69C236.53 28.8293 236.471 29.053 236.471 29.361V31.858C236.471 32.2247 236.376 32.5033 236.185 32.694C236.002 32.8847 235.73 32.98 235.371 32.98H234.601Z" fill="black"/>
<path d="M274.201 18.7007C274.396 18.5055 274.396 18.1889 274.201 17.9936L271.019 14.8116C270.823 14.6164 270.507 14.6164 270.311 14.8116C270.116 15.0069 270.116 15.3235 270.311 15.5187L273.14 18.3472L270.311 21.1756C270.116 21.3709 270.116 21.6874 270.311 21.8827C270.507 22.078 270.823 22.078 271.019 21.8827L274.201 18.7007ZM247.959 18.8472H273.847V17.8472H247.959V18.8472Z" fill="black"/>
<path d="M208.646 67.3536C208.842 67.5488 209.158 67.5488 209.354 67.3536L212.536 64.1716C212.731 63.9763 212.731 63.6597 212.536 63.4645C212.34 63.2692 212.024 63.2692 211.828 63.4645L209 66.2929L206.172 63.4645C205.976 63.2692 205.66 63.2692 205.464 63.4645C205.269 63.6597 205.269 63.9763 205.464 64.1716L208.646 67.3536ZM208.5 36V67H209.5V36H208.5Z" fill="black"/>
<rect x="274.109" y="1.84827" width="75.6011" height="33.3634" stroke="black"/>
<path d="M301.044 16.077C300.904 16.077 300.794 16.0367 300.714 15.956C300.633 15.868 300.593 15.7507 300.593 15.604V9.026H298.118C297.986 9.026 297.883 8.98933 297.81 8.916C297.736 8.84267 297.7 8.74733 297.7 8.63C297.7 8.50533 297.736 8.41 297.81 8.344C297.883 8.278 297.986 8.245 298.118 8.245H303.981C304.113 8.245 304.215 8.278 304.289 8.344C304.362 8.41 304.399 8.50533 304.399 8.63C304.399 8.75467 304.362 8.85367 304.289 8.927C304.215 8.993 304.113 9.026 303.981 9.026H301.506V15.604C301.506 15.7507 301.465 15.868 301.385 15.956C301.311 16.0367 301.198 16.077 301.044 16.077ZM306.57 16.099C306.049 16.099 305.598 15.9853 305.217 15.758C304.836 15.5307 304.539 15.2117 304.326 14.801C304.121 14.383 304.018 13.8917 304.018 13.327C304.018 12.9017 304.077 12.5203 304.194 12.183C304.311 11.8383 304.484 11.545 304.711 11.303C304.938 11.061 305.206 10.8777 305.514 10.753C305.829 10.621 306.181 10.555 306.57 10.555C307.091 10.555 307.542 10.6687 307.923 10.896C308.304 11.1233 308.598 11.446 308.803 11.864C309.016 12.2747 309.122 12.7623 309.122 13.327C309.122 13.7523 309.063 14.1337 308.946 14.471C308.829 14.8083 308.656 15.1017 308.429 15.351C308.202 15.593 307.93 15.78 307.615 15.912C307.307 16.0367 306.959 16.099 306.57 16.099ZM306.57 15.384C306.9 15.384 307.19 15.3033 307.439 15.142C307.688 14.9807 307.879 14.746 308.011 14.438C308.15 14.13 308.22 13.7597 308.22 13.327C308.22 12.6597 308.07 12.15 307.769 11.798C307.476 11.446 307.076 11.27 306.57 11.27C306.233 11.27 305.939 11.3507 305.69 11.512C305.448 11.666 305.257 11.897 305.118 12.205C304.986 12.5057 304.92 12.8797 304.92 13.327C304.92 13.987 305.07 14.4967 305.371 14.856C305.672 15.208 306.071 15.384 306.57 15.384ZM310.9 16.077C310.754 16.077 310.644 16.0367 310.57 15.956C310.497 15.8753 310.46 15.7617 310.46 15.615V8.619C310.46 8.47233 310.497 8.36233 310.57 8.289C310.644 8.20833 310.754 8.168 310.9 8.168C311.04 8.168 311.15 8.20833 311.23 8.289C311.311 8.36233 311.351 8.47233 311.351 8.619V13.03H311.373L313.628 10.874C313.731 10.7787 313.819 10.7053 313.892 10.654C313.973 10.6027 314.079 10.577 314.211 10.577C314.329 10.577 314.42 10.61 314.486 10.676C314.552 10.7347 314.582 10.8117 314.574 10.907C314.574 10.995 314.53 11.0903 314.442 11.193L312.044 13.47V12.986L314.651 15.439C314.754 15.5417 314.805 15.6407 314.805 15.736C314.805 15.8313 314.769 15.912 314.695 15.978C314.629 16.044 314.541 16.077 314.431 16.077C314.299 16.077 314.193 16.0513 314.112 16C314.032 15.9413 313.933 15.857 313.815 15.747L311.373 13.492H311.351V15.615C311.351 15.923 311.201 16.077 310.9 16.077ZM318.23 16.099C317.665 16.099 317.177 15.989 316.767 15.769C316.363 15.5417 316.048 15.2227 315.821 14.812C315.601 14.4013 315.491 13.91 315.491 13.338C315.491 12.7807 315.601 12.2967 315.821 11.886C316.041 11.468 316.341 11.1417 316.723 10.907C317.111 10.6723 317.559 10.555 318.065 10.555C318.424 10.555 318.747 10.6173 319.033 10.742C319.319 10.8593 319.561 11.0317 319.759 11.259C319.964 11.4863 320.118 11.7613 320.221 12.084C320.331 12.4067 320.386 12.7697 320.386 13.173C320.386 13.2903 320.353 13.3783 320.287 13.437C320.221 13.4883 320.125 13.514 320.001 13.514H316.173V12.931H319.792L319.616 13.074C319.616 12.678 319.557 12.3443 319.44 12.073C319.322 11.7943 319.15 11.5817 318.923 11.435C318.703 11.2883 318.424 11.215 318.087 11.215C317.713 11.215 317.394 11.303 317.13 11.479C316.873 11.6477 316.679 11.886 316.547 12.194C316.415 12.4947 316.349 12.8467 316.349 13.25V13.316C316.349 13.9907 316.51 14.504 316.833 14.856C317.163 15.208 317.628 15.384 318.23 15.384C318.479 15.384 318.725 15.351 318.967 15.285C319.216 15.219 319.458 15.109 319.693 14.955C319.795 14.889 319.887 14.8597 319.968 14.867C320.056 14.867 320.125 14.8927 320.177 14.944C320.228 14.988 320.261 15.0467 320.276 15.12C320.298 15.186 320.29 15.2593 320.254 15.34C320.224 15.4207 320.162 15.4903 320.067 15.549C319.825 15.725 319.539 15.8607 319.209 15.956C318.879 16.0513 318.552 16.099 318.23 16.099ZM322.115 16.077C321.969 16.077 321.859 16.0367 321.785 15.956C321.712 15.8753 321.675 15.7617 321.675 15.615V11.028C321.675 10.8813 321.712 10.7713 321.785 10.698C321.859 10.6173 321.965 10.577 322.104 10.577C322.244 10.577 322.35 10.6173 322.423 10.698C322.504 10.7713 322.544 10.8813 322.544 11.028V11.974L322.423 11.842C322.577 11.4167 322.827 11.0977 323.171 10.885C323.523 10.665 323.927 10.555 324.381 10.555C324.807 10.555 325.159 10.632 325.437 10.786C325.723 10.94 325.936 11.1747 326.075 11.49C326.215 11.798 326.284 12.1903 326.284 12.667V15.615C326.284 15.7617 326.244 15.8753 326.163 15.956C326.09 16.0367 325.984 16.077 325.844 16.077C325.698 16.077 325.584 16.0367 325.503 15.956C325.43 15.8753 325.393 15.7617 325.393 15.615V12.722C325.393 12.2233 325.294 11.8603 325.096 11.633C324.906 11.3983 324.598 11.281 324.172 11.281C323.681 11.281 323.289 11.435 322.995 11.743C322.709 12.0437 322.566 12.447 322.566 12.953V15.615C322.566 15.923 322.416 16.077 322.115 16.077ZM289.663 31.099C288.835 31.099 288.134 30.9413 287.562 30.626C286.998 30.3107 286.569 29.856 286.275 29.262C285.982 28.668 285.835 27.9567 285.835 27.128C285.835 26.512 285.916 25.9583 286.077 25.467C286.246 24.9757 286.488 24.5613 286.803 24.224C287.126 23.8793 287.515 23.6153 287.969 23.432C288.431 23.2413 288.952 23.146 289.531 23.146C289.993 23.146 290.441 23.212 290.873 23.344C291.306 23.4687 291.691 23.6703 292.028 23.949C292.116 24.015 292.171 24.0883 292.193 24.169C292.215 24.2497 292.212 24.3303 292.182 24.411C292.16 24.4917 292.12 24.5613 292.061 24.62C292.01 24.6713 291.94 24.7007 291.852 24.708C291.772 24.7153 291.687 24.6897 291.599 24.631C291.299 24.3963 290.98 24.2277 290.642 24.125C290.305 24.015 289.931 23.96 289.52 23.96C288.934 23.96 288.435 24.0847 288.024 24.334C287.621 24.5833 287.313 24.9427 287.1 25.412C286.895 25.8813 286.792 26.4533 286.792 27.128C286.792 28.1547 287.031 28.9393 287.507 29.482C287.991 30.0247 288.717 30.296 289.685 30.296C290.037 30.296 290.382 30.263 290.719 30.197C291.057 30.1237 291.376 30.0247 291.676 29.9L291.478 30.417V27.678H289.905C289.773 27.678 289.674 27.645 289.608 27.579C289.542 27.513 289.509 27.425 289.509 27.315C289.509 27.1977 289.542 27.1097 289.608 27.051C289.674 26.9923 289.773 26.963 289.905 26.963H291.874C291.999 26.963 292.094 26.996 292.16 27.062C292.226 27.128 292.259 27.2233 292.259 27.348V30.219C292.259 30.329 292.241 30.4207 292.204 30.494C292.168 30.5673 292.105 30.6223 292.017 30.659C291.709 30.7837 291.339 30.89 290.906 30.978C290.481 31.0587 290.067 31.099 289.663 31.099ZM296.391 31.099C295.826 31.099 295.339 30.989 294.928 30.769C294.525 30.5417 294.209 30.2227 293.982 29.812C293.762 29.4013 293.652 28.91 293.652 28.338C293.652 27.7807 293.762 27.2967 293.982 26.886C294.202 26.468 294.503 26.1417 294.884 25.907C295.273 25.6723 295.72 25.555 296.226 25.555C296.585 25.555 296.908 25.6173 297.194 25.742C297.48 25.8593 297.722 26.0317 297.92 26.259C298.125 26.4863 298.279 26.7613 298.382 27.084C298.492 27.4067 298.547 27.7697 298.547 28.173C298.547 28.2903 298.514 28.3783 298.448 28.437C298.382 28.4883 298.287 28.514 298.162 28.514H294.334V27.931H297.953L297.777 28.074C297.777 27.678 297.718 27.3443 297.601 27.073C297.484 26.7943 297.311 26.5817 297.084 26.435C296.864 26.2883 296.585 26.215 296.248 26.215C295.874 26.215 295.555 26.303 295.291 26.479C295.034 26.6477 294.84 26.886 294.708 27.194C294.576 27.4947 294.51 27.8467 294.51 28.25V28.316C294.51 28.9907 294.671 29.504 294.994 29.856C295.324 30.208 295.79 30.384 296.391 30.384C296.64 30.384 296.886 30.351 297.128 30.285C297.377 30.219 297.619 30.109 297.854 29.955C297.957 29.889 298.048 29.8597 298.129 29.867C298.217 29.867 298.287 29.8927 298.338 29.944C298.389 29.988 298.422 30.0467 298.437 30.12C298.459 30.186 298.452 30.2593 298.415 30.34C298.386 30.4207 298.323 30.4903 298.228 30.549C297.986 30.725 297.7 30.8607 297.37 30.956C297.04 31.0513 296.714 31.099 296.391 31.099ZM300.276 31.077C300.13 31.077 300.02 31.0367 299.946 30.956C299.873 30.8753 299.836 30.7617 299.836 30.615V26.028C299.836 25.8813 299.873 25.7713 299.946 25.698C300.02 25.6173 300.126 25.577 300.265 25.577C300.405 25.577 300.511 25.6173 300.584 25.698C300.665 25.7713 300.705 25.8813 300.705 26.028V26.974L300.584 26.842C300.738 26.4167 300.988 26.0977 301.332 25.885C301.684 25.665 302.088 25.555 302.542 25.555C302.968 25.555 303.32 25.632 303.598 25.786C303.884 25.94 304.097 26.1747 304.236 26.49C304.376 26.798 304.445 27.1903 304.445 27.667V30.615C304.445 30.7617 304.405 30.8753 304.324 30.956C304.251 31.0367 304.145 31.077 304.005 31.077C303.859 31.077 303.745 31.0367 303.664 30.956C303.591 30.8753 303.554 30.7617 303.554 30.615V27.722C303.554 27.2233 303.455 26.8603 303.257 26.633C303.067 26.3983 302.759 26.281 302.333 26.281C301.842 26.281 301.45 26.435 301.156 26.743C300.87 27.0437 300.727 27.447 300.727 27.953V30.615C300.727 30.923 300.577 31.077 300.276 31.077ZM308.497 31.099C307.933 31.099 307.445 30.989 307.034 30.769C306.631 30.5417 306.316 30.2227 306.088 29.812C305.868 29.4013 305.758 28.91 305.758 28.338C305.758 27.7807 305.868 27.2967 306.088 26.886C306.308 26.468 306.609 26.1417 306.99 25.907C307.379 25.6723 307.826 25.555 308.332 25.555C308.692 25.555 309.014 25.6173 309.3 25.742C309.586 25.8593 309.828 26.0317 310.026 26.259C310.232 26.4863 310.386 26.7613 310.488 27.084C310.598 27.4067 310.653 27.7697 310.653 28.173C310.653 28.2903 310.62 28.3783 310.554 28.437C310.488 28.4883 310.393 28.514 310.268 28.514H306.44V27.931H310.059L309.883 28.074C309.883 27.678 309.825 27.3443 309.707 27.073C309.59 26.7943 309.418 26.5817 309.19 26.435C308.97 26.2883 308.692 26.215 308.354 26.215C307.98 26.215 307.661 26.303 307.397 26.479C307.141 26.6477 306.946 26.886 306.814 27.194C306.682 27.4947 306.616 27.8467 306.616 28.25V28.316C306.616 28.9907 306.778 29.504 307.1 29.856C307.43 30.208 307.896 30.384 308.497 30.384C308.747 30.384 308.992 30.351 309.234 30.285C309.484 30.219 309.726 30.109 309.96 29.955C310.063 29.889 310.155 29.8597 310.235 29.867C310.323 29.867 310.393 29.8927 310.444 29.944C310.496 29.988 310.529 30.0467 310.543 30.12C310.565 30.186 310.558 30.2593 310.521 30.34C310.492 30.4207 310.43 30.4903 310.334 30.549C310.092 30.725 309.806 30.8607 309.476 30.956C309.146 31.0513 308.82 31.099 308.497 31.099ZM312.394 31.077C312.247 31.077 312.133 31.0367 312.053 30.956C311.979 30.8753 311.943 30.7617 311.943 30.615V26.028C311.943 25.8813 311.979 25.7713 312.053 25.698C312.126 25.6173 312.232 25.577 312.372 25.577C312.511 25.577 312.617 25.6173 312.691 25.698C312.771 25.7713 312.812 25.8813 312.812 26.028V26.919H312.702C312.819 26.4863 313.043 26.1527 313.373 25.918C313.703 25.6833 314.11 25.5587 314.594 25.544C314.704 25.5367 314.792 25.5623 314.858 25.621C314.924 25.6723 314.96 25.764 314.968 25.896C314.975 26.0207 314.946 26.1197 314.88 26.193C314.814 26.2663 314.711 26.3103 314.572 26.325L314.396 26.347C313.897 26.391 313.512 26.5523 313.241 26.831C312.977 27.1023 312.845 27.4763 312.845 27.953V30.615C312.845 30.7617 312.804 30.8753 312.724 30.956C312.65 31.0367 312.54 31.077 312.394 31.077ZM317.514 31.099C317.148 31.099 316.818 31.0293 316.524 30.89C316.238 30.7433 316.011 30.5453 315.842 30.296C315.674 30.0467 315.589 29.768 315.589 29.46C315.589 29.064 315.688 28.7523 315.886 28.525C316.092 28.2977 316.425 28.1363 316.887 28.041C317.357 27.9457 317.995 27.898 318.801 27.898H319.296V28.481H318.812C318.218 28.481 317.749 28.5103 317.404 28.569C317.067 28.6203 316.829 28.712 316.689 28.844C316.557 28.976 316.491 29.163 316.491 29.405C316.491 29.7057 316.594 29.9513 316.799 30.142C317.012 30.3327 317.298 30.428 317.657 30.428C317.951 30.428 318.207 30.3583 318.427 30.219C318.655 30.0797 318.831 29.889 318.955 29.647C319.087 29.405 319.153 29.1263 319.153 28.811V27.557C319.153 27.1023 319.062 26.776 318.878 26.578C318.695 26.3727 318.394 26.27 317.976 26.27C317.72 26.27 317.463 26.303 317.206 26.369C316.95 26.435 316.678 26.5413 316.392 26.688C316.29 26.7393 316.202 26.7577 316.128 26.743C316.055 26.721 315.996 26.6807 315.952 26.622C315.908 26.5633 315.883 26.4973 315.875 26.424C315.868 26.3433 315.883 26.2663 315.919 26.193C315.963 26.1197 316.029 26.061 316.117 26.017C316.44 25.8557 316.759 25.7383 317.074 25.665C317.39 25.5917 317.69 25.555 317.976 25.555C318.438 25.555 318.82 25.632 319.12 25.786C319.421 25.9327 319.645 26.16 319.791 26.468C319.938 26.7687 320.011 27.1573 320.011 27.634V30.615C320.011 30.7617 319.975 30.8753 319.901 30.956C319.835 31.0367 319.736 31.077 319.604 31.077C319.465 31.077 319.359 31.0367 319.285 30.956C319.212 30.8753 319.175 30.7617 319.175 30.615V29.757H319.274C319.216 30.0357 319.102 30.274 318.933 30.472C318.772 30.67 318.57 30.824 318.328 30.934C318.086 31.044 317.815 31.099 317.514 31.099ZM323.809 31.099C323.391 31.099 323.039 31.0257 322.753 30.879C322.475 30.725 322.266 30.505 322.126 30.219C321.987 29.9257 321.917 29.57 321.917 29.152V26.347H321.18C321.056 26.347 320.96 26.3177 320.894 26.259C320.828 26.193 320.795 26.105 320.795 25.995C320.795 25.885 320.828 25.8007 320.894 25.742C320.96 25.6833 321.056 25.654 321.18 25.654H321.917V24.389C321.917 24.2423 321.958 24.1323 322.038 24.059C322.119 23.9783 322.229 23.938 322.368 23.938C322.508 23.938 322.614 23.9783 322.687 24.059C322.768 24.1323 322.808 24.2423 322.808 24.389V25.654H324.194C324.319 25.654 324.414 25.6833 324.48 25.742C324.546 25.8007 324.579 25.885 324.579 25.995C324.579 26.105 324.546 26.193 324.48 26.259C324.414 26.3177 324.319 26.347 324.194 26.347H322.808V29.064C322.808 29.482 322.896 29.801 323.072 30.021C323.248 30.2337 323.534 30.34 323.93 30.34C324.07 30.34 324.187 30.3253 324.282 30.296C324.385 30.2667 324.469 30.252 324.535 30.252C324.601 30.2447 324.656 30.2667 324.7 30.318C324.744 30.3693 324.766 30.4573 324.766 30.582C324.766 30.67 324.748 30.7507 324.711 30.824C324.682 30.8973 324.627 30.9487 324.546 30.978C324.458 31.0073 324.341 31.033 324.194 31.055C324.055 31.0843 323.927 31.099 323.809 31.099ZM326.015 31.055C325.868 31.055 325.758 31.0147 325.685 30.934C325.611 30.846 325.575 30.725 325.575 30.571V26.072C325.575 25.918 325.611 25.8007 325.685 25.72C325.758 25.6393 325.868 25.599 326.015 25.599C326.154 25.599 326.264 25.6393 326.345 25.72C326.425 25.8007 326.466 25.918 326.466 26.072V30.571C326.466 30.725 326.425 30.846 326.345 30.934C326.271 31.0147 326.161 31.055 326.015 31.055ZM326.015 24.367C325.831 24.367 325.688 24.3193 325.586 24.224C325.483 24.1213 325.432 23.9857 325.432 23.817C325.432 23.641 325.483 23.509 325.586 23.421C325.688 23.3257 325.831 23.278 326.015 23.278C326.205 23.278 326.348 23.3257 326.444 23.421C326.546 23.509 326.598 23.641 326.598 23.817C326.598 23.9857 326.546 24.1213 326.444 24.224C326.348 24.3193 326.205 24.367 326.015 24.367ZM330.353 31.099C329.833 31.099 329.382 30.9853 329 30.758C328.619 30.5307 328.322 30.2117 328.109 29.801C327.904 29.383 327.801 28.8917 327.801 28.327C327.801 27.9017 327.86 27.5203 327.977 27.183C328.095 26.8383 328.267 26.545 328.494 26.303C328.722 26.061 328.989 25.8777 329.297 25.753C329.613 25.621 329.965 25.555 330.353 25.555C330.874 25.555 331.325 25.6687 331.706 25.896C332.088 26.1233 332.381 26.446 332.586 26.864C332.799 27.2747 332.905 27.7623 332.905 28.327C332.905 28.7523 332.847 29.1337 332.729 29.471C332.612 29.8083 332.44 30.1017 332.212 30.351C331.985 30.593 331.714 30.78 331.398 30.912C331.09 31.0367 330.742 31.099 330.353 31.099ZM330.353 30.384C330.683 30.384 330.973 30.3033 331.222 30.142C331.472 29.9807 331.662 29.746 331.794 29.438C331.934 29.13 332.003 28.7597 332.003 28.327C332.003 27.6597 331.853 27.15 331.552 26.798C331.259 26.446 330.859 26.27 330.353 26.27C330.016 26.27 329.723 26.3507 329.473 26.512C329.231 26.666 329.041 26.897 328.901 27.205C328.769 27.5057 328.703 27.8797 328.703 28.327C328.703 28.987 328.854 29.4967 329.154 29.856C329.455 30.208 329.855 30.384 330.353 30.384ZM334.684 31.077C334.537 31.077 334.427 31.0367 334.354 30.956C334.28 30.8753 334.244 30.7617 334.244 30.615V26.028C334.244 25.8813 334.28 25.7713 334.354 25.698C334.427 25.6173 334.533 25.577 334.673 25.577C334.812 25.577 334.918 25.6173 334.992 25.698C335.072 25.7713 335.113 25.8813 335.113 26.028V26.974L334.992 26.842C335.146 26.4167 335.395 26.0977 335.74 25.885C336.092 25.665 336.495 25.555 336.95 25.555C337.375 25.555 337.727 25.632 338.006 25.786C338.292 25.94 338.504 26.1747 338.644 26.49C338.783 26.798 338.853 27.1903 338.853 27.667V30.615C338.853 30.7617 338.812 30.8753 338.732 30.956C338.658 31.0367 338.552 31.077 338.413 31.077C338.266 31.077 338.152 31.0367 338.072 30.956C337.998 30.8753 337.962 30.7617 337.962 30.615V27.722C337.962 27.2233 337.863 26.8603 337.665 26.633C337.474 26.3983 337.166 26.281 336.741 26.281C336.249 26.281 335.857 26.435 335.564 26.743C335.278 27.0437 335.135 27.447 335.135 27.953V30.615C335.135 30.923 334.984 31.077 334.684 31.077Z" fill="black"/>
<rect x="144.5" y="67.5" width="128.288" height="40.4362" stroke="black"/>
<path d="M165.822 84.5062C165.682 84.5062 165.572 84.4696 165.492 84.3962C165.419 84.3162 165.382 84.2029 165.382 84.0562V77.8362C165.382 77.6896 165.419 77.5796 165.492 77.5062C165.572 77.4262 165.686 77.3862 165.832 77.3862H169.462C169.576 77.3862 169.662 77.4162 169.722 77.4762C169.782 77.5362 169.812 77.6196 169.812 77.7262C169.812 77.8396 169.782 77.9262 169.722 77.9862C169.662 78.0462 169.576 78.0762 169.462 78.0762H166.202V80.5362H169.252C169.366 80.5362 169.452 80.5662 169.512 80.6262C169.579 80.6862 169.612 80.7696 169.612 80.8762C169.612 80.9896 169.579 81.0762 169.512 81.1362C169.452 81.1962 169.366 81.2262 169.252 81.2262H166.202V84.0562C166.202 84.3562 166.076 84.5062 165.822 84.5062ZM171.336 84.4862C171.203 84.4862 171.103 84.4496 171.036 84.3762C170.97 84.2962 170.936 84.1862 170.936 84.0462V79.9562C170.936 79.8162 170.97 79.7096 171.036 79.6362C171.103 79.5629 171.203 79.5262 171.336 79.5262C171.463 79.5262 171.563 79.5629 171.636 79.6362C171.71 79.7096 171.746 79.8162 171.746 79.9562V84.0462C171.746 84.1862 171.71 84.2962 171.636 84.3762C171.57 84.4496 171.47 84.4862 171.336 84.4862ZM171.336 78.4062C171.17 78.4062 171.04 78.3629 170.946 78.2762C170.853 78.1829 170.806 78.0596 170.806 77.9062C170.806 77.7462 170.853 77.6262 170.946 77.5462C171.04 77.4596 171.17 77.4162 171.336 77.4162C171.51 77.4162 171.64 77.4596 171.726 77.5462C171.82 77.6262 171.866 77.7462 171.866 77.9062C171.866 78.0596 171.82 78.1829 171.726 78.2762C171.64 78.3629 171.51 78.4062 171.336 78.4062ZM173.66 84.5062C173.527 84.5062 173.427 84.4696 173.36 84.3962C173.294 84.3229 173.26 84.2196 173.26 84.0862V79.9162C173.26 79.7829 173.294 79.6829 173.36 79.6162C173.427 79.5429 173.524 79.5062 173.65 79.5062C173.777 79.5062 173.874 79.5429 173.94 79.6162C174.014 79.6829 174.05 79.7829 174.05 79.9162V80.7762L173.94 80.6562C174.08 80.2696 174.307 79.9796 174.62 79.7862C174.94 79.5862 175.307 79.4862 175.72 79.4862C176.107 79.4862 176.427 79.5562 176.68 79.6962C176.94 79.8362 177.134 80.0496 177.26 80.3362C177.387 80.6162 177.45 80.9729 177.45 81.4062V84.0862C177.45 84.2196 177.414 84.3229 177.34 84.3962C177.274 84.4696 177.177 84.5062 177.05 84.5062C176.917 84.5062 176.814 84.4696 176.74 84.3962C176.674 84.3229 176.64 84.2196 176.64 84.0862V81.4562C176.64 81.0029 176.55 80.6729 176.37 80.4662C176.197 80.2529 175.917 80.1462 175.53 80.1462C175.084 80.1462 174.727 80.2862 174.46 80.5662C174.2 80.8396 174.07 81.2062 174.07 81.6662V84.0862C174.07 84.3662 173.934 84.5062 173.66 84.5062ZM179.344 84.4862C179.211 84.4862 179.111 84.4496 179.044 84.3762C178.977 84.2962 178.944 84.1862 178.944 84.0462V79.9562C178.944 79.8162 178.977 79.7096 179.044 79.6362C179.111 79.5629 179.211 79.5262 179.344 79.5262C179.471 79.5262 179.571 79.5629 179.644 79.6362C179.717 79.7096 179.754 79.8162 179.754 79.9562V84.0462C179.754 84.1862 179.717 84.2962 179.644 84.3762C179.577 84.4496 179.477 84.4862 179.344 84.4862ZM179.344 78.4062C179.177 78.4062 179.047 78.3629 178.954 78.2762C178.861 78.1829 178.814 78.0596 178.814 77.9062C178.814 77.7462 178.861 77.6262 178.954 77.5462C179.047 77.4596 179.177 77.4162 179.344 77.4162C179.517 77.4162 179.647 77.4596 179.734 77.5462C179.827 77.6262 179.874 77.7462 179.874 77.9062C179.874 78.0596 179.827 78.1829 179.734 78.2762C179.647 78.3629 179.517 78.4062 179.344 78.4062ZM183.218 84.5262C182.838 84.5262 182.518 84.4596 182.258 84.3262C182.005 84.1862 181.815 83.9862 181.688 83.7262C181.562 83.4596 181.498 83.1362 181.498 82.7562V80.2062H180.828C180.715 80.2062 180.628 80.1796 180.568 80.1262C180.508 80.0662 180.478 79.9862 180.478 79.8862C180.478 79.7862 180.508 79.7096 180.568 79.6562C180.628 79.6029 180.715 79.5762 180.828 79.5762H181.498V78.4262C181.498 78.2929 181.535 78.1929 181.608 78.1262C181.682 78.0529 181.782 78.0162 181.908 78.0162C182.035 78.0162 182.132 78.0529 182.198 78.1262C182.272 78.1929 182.308 78.2929 182.308 78.4262V79.5762H183.568C183.682 79.5762 183.768 79.6029 183.828 79.6562C183.888 79.7096 183.918 79.7862 183.918 79.8862C183.918 79.9862 183.888 80.0662 183.828 80.1262C183.768 80.1796 183.682 80.2062 183.568 80.2062H182.308V82.6762C182.308 83.0562 182.388 83.3462 182.548 83.5462C182.708 83.7396 182.968 83.8362 183.328 83.8362C183.455 83.8362 183.562 83.8229 183.648 83.7962C183.742 83.7696 183.818 83.7562 183.878 83.7562C183.938 83.7496 183.988 83.7696 184.028 83.8162C184.068 83.8629 184.088 83.9429 184.088 84.0562C184.088 84.1362 184.072 84.2096 184.038 84.2762C184.012 84.3429 183.962 84.3896 183.888 84.4162C183.808 84.4429 183.702 84.4662 183.568 84.4862C183.442 84.5129 183.325 84.5262 183.218 84.5262ZM186.906 84.5262C186.392 84.5262 185.949 84.4262 185.576 84.2262C185.209 84.0196 184.922 83.7296 184.716 83.3562C184.516 82.9829 184.416 82.5362 184.416 82.0162C184.416 81.5096 184.516 81.0696 184.716 80.6962C184.916 80.3162 185.189 80.0196 185.536 79.8062C185.889 79.5929 186.296 79.4862 186.756 79.4862C187.082 79.4862 187.376 79.5429 187.636 79.6562C187.896 79.7629 188.116 79.9196 188.296 80.1262C188.482 80.3329 188.622 80.5829 188.716 80.8762C188.816 81.1696 188.866 81.4996 188.866 81.8662C188.866 81.9729 188.836 82.0529 188.776 82.1062C188.716 82.1529 188.629 82.1762 188.516 82.1762H185.036V81.6462H188.326L188.166 81.7762C188.166 81.4162 188.112 81.1129 188.006 80.8662C187.899 80.6129 187.742 80.4196 187.536 80.2862C187.336 80.1529 187.082 80.0862 186.776 80.0862C186.436 80.0862 186.146 80.1662 185.906 80.3262C185.672 80.4796 185.496 80.6962 185.376 80.9762C185.256 81.2496 185.196 81.5696 185.196 81.9362V81.9962C185.196 82.6096 185.342 83.0762 185.636 83.3962C185.936 83.7162 186.359 83.8762 186.906 83.8762C187.132 83.8762 187.356 83.8462 187.576 83.7862C187.802 83.7262 188.022 83.6262 188.236 83.4862C188.329 83.4262 188.412 83.3996 188.486 83.4062C188.566 83.4062 188.629 83.4296 188.676 83.4762C188.722 83.5162 188.752 83.5696 188.766 83.6362C188.786 83.6962 188.779 83.7629 188.746 83.8362C188.719 83.9096 188.662 83.9729 188.576 84.0262C188.356 84.1862 188.096 84.3096 187.796 84.3962C187.496 84.4829 187.199 84.5262 186.906 84.5262ZM192.576 84.5062C192.469 84.5062 192.383 84.4829 192.316 84.4362C192.256 84.3829 192.219 84.3162 192.206 84.2362C192.199 84.1496 192.219 84.0529 192.266 83.9462L195.016 77.6862C195.076 77.5529 195.146 77.4596 195.226 77.4062C195.313 77.3462 195.406 77.3162 195.506 77.3162C195.606 77.3162 195.696 77.3462 195.776 77.4062C195.863 77.4596 195.933 77.5529 195.986 77.6862L198.746 83.9462C198.799 84.0529 198.819 84.1496 198.806 84.2362C198.799 84.3229 198.766 84.3896 198.706 84.4362C198.646 84.4829 198.563 84.5062 198.456 84.5062C198.336 84.5062 198.239 84.4762 198.166 84.4162C198.093 84.3496 198.033 84.2562 197.986 84.1362L197.246 82.4262L197.646 82.6362H193.346L193.756 82.4262L193.026 84.1362C192.966 84.2629 192.903 84.3562 192.836 84.4162C192.769 84.4762 192.683 84.5062 192.576 84.5062ZM195.496 78.3462L193.886 82.1362L193.646 81.9462H197.346L197.126 82.1362L195.516 78.3462H195.496ZM201.621 84.5262C201.228 84.5262 200.901 84.4562 200.641 84.3162C200.388 84.1696 200.194 83.9529 200.061 83.6662C199.934 83.3796 199.871 83.0229 199.871 82.5962V79.9162C199.871 79.7762 199.904 79.6729 199.971 79.6062C200.044 79.5396 200.144 79.5062 200.271 79.5062C200.404 79.5062 200.504 79.5396 200.571 79.6062C200.644 79.6729 200.681 79.7762 200.681 79.9162V82.5862C200.681 83.0129 200.768 83.3329 200.941 83.5462C201.121 83.7529 201.401 83.8562 201.781 83.8562C202.194 83.8562 202.531 83.7162 202.791 83.4362C203.051 83.1562 203.181 82.7896 203.181 82.3362V79.9162C203.181 79.7762 203.214 79.6729 203.281 79.6062C203.354 79.5396 203.458 79.5062 203.591 79.5062C203.718 79.5062 203.814 79.5396 203.881 79.6062C203.954 79.6729 203.991 79.7762 203.991 79.9162V84.0862C203.991 84.3662 203.861 84.5062 203.601 84.5062C203.474 84.5062 203.374 84.4696 203.301 84.3962C203.234 84.3229 203.201 84.2196 203.201 84.0862V83.1762L203.331 83.3162C203.198 83.7096 202.978 84.0096 202.671 84.2162C202.371 84.4229 202.021 84.5262 201.621 84.5262ZM207.457 84.5262C207.077 84.5262 206.757 84.4596 206.497 84.3262C206.243 84.1862 206.053 83.9862 205.927 83.7262C205.8 83.4596 205.737 83.1362 205.737 82.7562V80.2062H205.067C204.953 80.2062 204.867 80.1796 204.807 80.1262C204.747 80.0662 204.717 79.9862 204.717 79.8862C204.717 79.7862 204.747 79.7096 204.807 79.6562C204.867 79.6029 204.953 79.5762 205.067 79.5762H205.737V78.4262C205.737 78.2929 205.773 78.1929 205.847 78.1262C205.92 78.0529 206.02 78.0162 206.147 78.0162C206.273 78.0162 206.37 78.0529 206.437 78.1262C206.51 78.1929 206.547 78.2929 206.547 78.4262V79.5762H207.807C207.92 79.5762 208.007 79.6029 208.067 79.6562C208.127 79.7096 208.157 79.7862 208.157 79.8862C208.157 79.9862 208.127 80.0662 208.067 80.1262C208.007 80.1796 207.92 80.2062 207.807 80.2062H206.547V82.6762C206.547 83.0562 206.627 83.3462 206.787 83.5462C206.947 83.7396 207.207 83.8362 207.567 83.8362C207.693 83.8362 207.8 83.8229 207.887 83.7962C207.98 83.7696 208.057 83.7562 208.117 83.7562C208.177 83.7496 208.227 83.7696 208.267 83.8162C208.307 83.8629 208.327 83.9429 208.327 84.0562C208.327 84.1362 208.31 84.2096 208.277 84.2762C208.25 84.3429 208.2 84.3896 208.127 84.4162C208.047 84.4429 207.94 84.4662 207.807 84.4862C207.68 84.5129 207.563 84.5262 207.457 84.5262ZM210.974 84.5262C210.501 84.5262 210.091 84.4229 209.744 84.2162C209.397 84.0096 209.127 83.7196 208.934 83.3462C208.747 82.9662 208.654 82.5196 208.654 82.0062C208.654 81.6196 208.707 81.2729 208.814 80.9662C208.921 80.6529 209.077 80.3862 209.284 80.1662C209.491 79.9462 209.734 79.7796 210.014 79.6662C210.301 79.5462 210.621 79.4862 210.974 79.4862C211.447 79.4862 211.857 79.5896 212.204 79.7962C212.551 80.0029 212.817 80.2962 213.004 80.6762C213.197 81.0496 213.294 81.4929 213.294 82.0062C213.294 82.3929 213.241 82.7396 213.134 83.0462C213.027 83.3529 212.871 83.6196 212.664 83.8462C212.457 84.0662 212.211 84.2362 211.924 84.3562C211.644 84.4696 211.327 84.5262 210.974 84.5262ZM210.974 83.8762C211.274 83.8762 211.537 83.8029 211.764 83.6562C211.991 83.5096 212.164 83.2962 212.284 83.0162C212.411 82.7362 212.474 82.3996 212.474 82.0062C212.474 81.3996 212.337 80.9362 212.064 80.6162C211.797 80.2962 211.434 80.1362 210.974 80.1362C210.667 80.1362 210.401 80.2096 210.174 80.3562C209.954 80.4962 209.781 80.7062 209.654 80.9862C209.534 81.2596 209.474 81.5996 209.474 82.0062C209.474 82.6062 209.611 83.0696 209.884 83.3962C210.157 83.7162 210.521 83.8762 210.974 83.8762ZM214.93 84.5062C214.797 84.5062 214.697 84.4696 214.63 84.3962C214.564 84.3229 214.53 84.2196 214.53 84.0862V79.9162C214.53 79.7829 214.564 79.6829 214.63 79.6162C214.697 79.5429 214.794 79.5062 214.92 79.5062C215.047 79.5062 215.144 79.5429 215.21 79.6162C215.284 79.6829 215.32 79.7829 215.32 79.9162V80.7962L215.21 80.6562C215.337 80.2829 215.54 79.9962 215.82 79.7962C216.107 79.5896 216.447 79.4862 216.84 79.4862C217.254 79.4862 217.587 79.5862 217.84 79.7862C218.1 79.9796 218.274 80.2829 218.36 80.6962H218.21C218.33 80.3229 218.544 80.0296 218.85 79.8162C219.164 79.5962 219.527 79.4862 219.94 79.4862C220.307 79.4862 220.607 79.5562 220.84 79.6962C221.08 79.8362 221.26 80.0496 221.38 80.3362C221.5 80.6162 221.56 80.9729 221.56 81.4062V84.0862C221.56 84.2196 221.524 84.3229 221.45 84.3962C221.384 84.4696 221.284 84.5062 221.15 84.5062C221.024 84.5062 220.924 84.4696 220.85 84.3962C220.784 84.3229 220.75 84.2196 220.75 84.0862V81.4462C220.75 80.9996 220.674 80.6729 220.52 80.4662C220.367 80.2529 220.107 80.1462 219.74 80.1462C219.34 80.1462 219.024 80.2862 218.79 80.5662C218.564 80.8396 218.45 81.2129 218.45 81.6862V84.0862C218.45 84.2196 218.414 84.3229 218.34 84.3962C218.274 84.4696 218.174 84.5062 218.04 84.5062C217.914 84.5062 217.814 84.4696 217.74 84.3962C217.674 84.3229 217.64 84.2196 217.64 84.0862V81.4462C217.64 80.9996 217.56 80.6729 217.4 80.4662C217.247 80.2529 216.99 80.1462 216.63 80.1462C216.23 80.1462 215.914 80.2862 215.68 80.5662C215.454 80.8396 215.34 81.2129 215.34 81.6862V84.0862C215.34 84.3662 215.204 84.5062 214.93 84.5062ZM224.605 84.5262C224.272 84.5262 223.972 84.4629 223.705 84.3362C223.445 84.2029 223.238 84.0229 223.085 83.7962C222.932 83.5696 222.855 83.3162 222.855 83.0362C222.855 82.6762 222.945 82.3929 223.125 82.1862C223.312 81.9796 223.615 81.8329 224.035 81.7462C224.462 81.6596 225.042 81.6162 225.775 81.6162H226.225V82.1462H225.785C225.245 82.1462 224.818 82.1729 224.505 82.2262C224.198 82.2729 223.982 82.3562 223.855 82.4762C223.735 82.5962 223.675 82.7662 223.675 82.9862C223.675 83.2596 223.768 83.4829 223.955 83.6562C224.148 83.8296 224.408 83.9162 224.735 83.9162C225.002 83.9162 225.235 83.8529 225.435 83.7262C225.642 83.5996 225.802 83.4262 225.915 83.2062C226.035 82.9862 226.095 82.7329 226.095 82.4462V81.3062C226.095 80.8929 226.012 80.5962 225.845 80.4162C225.678 80.2296 225.405 80.1362 225.025 80.1362C224.792 80.1362 224.558 80.1662 224.325 80.2262C224.092 80.2862 223.845 80.3829 223.585 80.5162C223.492 80.5629 223.412 80.5796 223.345 80.5662C223.278 80.5462 223.225 80.5096 223.185 80.4562C223.145 80.4029 223.122 80.3429 223.115 80.2762C223.108 80.2029 223.122 80.1329 223.155 80.0662C223.195 79.9996 223.255 79.9462 223.335 79.9062C223.628 79.7596 223.918 79.6529 224.205 79.5862C224.492 79.5196 224.765 79.4862 225.025 79.4862C225.445 79.4862 225.792 79.5562 226.065 79.6962C226.338 79.8296 226.542 80.0362 226.675 80.3162C226.808 80.5896 226.875 80.9429 226.875 81.3762V84.0862C226.875 84.2196 226.842 84.3229 226.775 84.3962C226.715 84.4696 226.625 84.5062 226.505 84.5062C226.378 84.5062 226.282 84.4696 226.215 84.3962C226.148 84.3229 226.115 84.2196 226.115 84.0862V83.3062H226.205C226.152 83.5596 226.048 83.7762 225.895 83.9562C225.748 84.1362 225.565 84.2762 225.345 84.3762C225.125 84.4762 224.878 84.5262 224.605 84.5262ZM230.328 84.5262C229.948 84.5262 229.628 84.4596 229.368 84.3262C229.114 84.1862 228.924 83.9862 228.798 83.7262C228.671 83.4596 228.608 83.1362 228.608 82.7562V80.2062H227.938C227.824 80.2062 227.738 80.1796 227.678 80.1262C227.618 80.0662 227.588 79.9862 227.588 79.8862C227.588 79.7862 227.618 79.7096 227.678 79.6562C227.738 79.6029 227.824 79.5762 227.938 79.5762H228.608V78.4262C228.608 78.2929 228.644 78.1929 228.718 78.1262C228.791 78.0529 228.891 78.0162 229.018 78.0162C229.144 78.0162 229.241 78.0529 229.308 78.1262C229.381 78.1929 229.418 78.2929 229.418 78.4262V79.5762H230.678C230.791 79.5762 230.878 79.6029 230.938 79.6562C230.998 79.7096 231.028 79.7862 231.028 79.8862C231.028 79.9862 230.998 80.0662 230.938 80.1262C230.878 80.1796 230.791 80.2062 230.678 80.2062H229.418V82.6762C229.418 83.0562 229.498 83.3462 229.658 83.5462C229.818 83.7396 230.078 83.8362 230.438 83.8362C230.564 83.8362 230.671 83.8229 230.758 83.7962C230.851 83.7696 230.928 83.7562 230.988 83.7562C231.048 83.7496 231.098 83.7696 231.138 83.8162C231.178 83.8629 231.198 83.9429 231.198 84.0562C231.198 84.1362 231.181 84.2096 231.148 84.2762C231.121 84.3429 231.071 84.3896 230.998 84.4162C230.918 84.4429 230.811 84.4662 230.678 84.4862C230.551 84.5129 230.434 84.5262 230.328 84.5262ZM232.332 84.4862C232.199 84.4862 232.099 84.4496 232.032 84.3762C231.966 84.2962 231.932 84.1862 231.932 84.0462V79.9562C231.932 79.8162 231.966 79.7096 232.032 79.6362C232.099 79.5629 232.199 79.5262 232.332 79.5262C232.459 79.5262 232.559 79.5629 232.632 79.6362C232.706 79.7096 232.742 79.8162 232.742 79.9562V84.0462C232.742 84.1862 232.706 84.2962 232.632 84.3762C232.566 84.4496 232.466 84.4862 232.332 84.4862ZM232.332 78.4062C232.166 78.4062 232.036 78.3629 231.942 78.2762C231.849 78.1829 231.802 78.0596 231.802 77.9062C231.802 77.7462 231.849 77.6262 231.942 77.5462C232.036 77.4596 232.166 77.4162 232.332 77.4162C232.506 77.4162 232.636 77.4596 232.722 77.5462C232.816 77.6262 232.862 77.7462 232.862 77.9062C232.862 78.0596 232.816 78.1829 232.722 78.2762C232.636 78.3629 232.506 78.4062 232.332 78.4062ZM236.277 84.5262C235.803 84.5262 235.393 84.4229 235.047 84.2162C234.7 84.0096 234.43 83.7196 234.237 83.3462C234.05 82.9662 233.957 82.5196 233.957 82.0062C233.957 81.6196 234.01 81.2729 234.117 80.9662C234.223 80.6529 234.38 80.3862 234.587 80.1662C234.793 79.9462 235.037 79.7796 235.317 79.6662C235.603 79.5462 235.923 79.4862 236.277 79.4862C236.75 79.4862 237.16 79.5896 237.507 79.7962C237.853 80.0029 238.12 80.2962 238.307 80.6762C238.5 81.0496 238.597 81.4929 238.597 82.0062C238.597 82.3929 238.543 82.7396 238.437 83.0462C238.33 83.3529 238.173 83.6196 237.967 83.8462C237.76 84.0662 237.513 84.2362 237.227 84.3562C236.947 84.4696 236.63 84.5262 236.277 84.5262ZM236.277 83.8762C236.577 83.8762 236.84 83.8029 237.067 83.6562C237.293 83.5096 237.467 83.2962 237.587 83.0162C237.713 82.7362 237.777 82.3996 237.777 82.0062C237.777 81.3996 237.64 80.9362 237.367 80.6162C237.1 80.2962 236.737 80.1362 236.277 80.1362C235.97 80.1362 235.703 80.2096 235.477 80.3562C235.257 80.4962 235.083 80.7062 234.957 80.9862C234.837 81.2596 234.777 81.5996 234.777 82.0062C234.777 82.6062 234.913 83.0696 235.187 83.3962C235.46 83.7162 235.823 83.8762 236.277 83.8762ZM240.213 84.5062C240.08 84.5062 239.98 84.4696 239.913 84.3962C239.847 84.3229 239.813 84.2196 239.813 84.0862V79.9162C239.813 79.7829 239.847 79.6829 239.913 79.6162C239.98 79.5429 240.077 79.5062 240.203 79.5062C240.33 79.5062 240.427 79.5429 240.493 79.6162C240.567 79.6829 240.603 79.7829 240.603 79.9162V80.7762L240.493 80.6562C240.633 80.2696 240.86 79.9796 241.173 79.7862C241.493 79.5862 241.86 79.4862 242.273 79.4862C242.66 79.4862 242.98 79.5562 243.233 79.6962C243.493 79.8362 243.687 80.0496 243.813 80.3362C243.94 80.6162 244.003 80.9729 244.003 81.4062V84.0862C244.003 84.2196 243.967 84.3229 243.893 84.3962C243.827 84.4696 243.73 84.5062 243.603 84.5062C243.47 84.5062 243.367 84.4696 243.293 84.3962C243.227 84.3229 243.193 84.2196 243.193 84.0862V81.4562C243.193 81.0029 243.103 80.6729 242.923 80.4662C242.75 80.2529 242.47 80.1462 242.083 80.1462C241.637 80.1462 241.28 80.2862 241.013 80.5662C240.753 80.8396 240.623 81.2062 240.623 81.6662V84.0862C240.623 84.3662 240.487 84.5062 240.213 84.5062ZM250.315 84.1062C250.208 84.1062 250.128 84.0762 250.075 84.0162C250.022 83.9562 249.995 83.8762 249.995 83.7762V81.8762H248.125C248.025 81.8762 247.945 81.8496 247.885 81.7962C247.832 81.7429 247.805 81.6662 247.805 81.5662C247.805 81.4662 247.832 81.3896 247.885 81.3362C247.945 81.2829 248.025 81.2562 248.125 81.2562H249.995V79.4162C249.995 79.3096 250.022 79.2296 250.075 79.1762C250.128 79.1162 250.208 79.0862 250.315 79.0862C250.422 79.0862 250.502 79.1162 250.555 79.1762C250.608 79.2296 250.635 79.3096 250.635 79.4162V81.2562H252.505C252.605 81.2562 252.682 81.2829 252.735 81.3362C252.795 81.3896 252.825 81.4662 252.825 81.5662C252.825 81.6662 252.795 81.7429 252.735 81.7962C252.682 81.8496 252.605 81.8762 252.505 81.8762H250.635V83.7762C250.635 83.8762 250.608 83.9562 250.555 84.0162C250.502 84.0762 250.422 84.1062 250.315 84.1062ZM168.869 98.4362C168.723 98.4362 168.609 98.3996 168.529 98.3262C168.456 98.2462 168.419 98.1329 168.419 97.9862V91.8362C168.419 91.6896 168.456 91.5796 168.529 91.5062C168.609 91.4262 168.723 91.3862 168.869 91.3862H170.799C171.939 91.3862 172.819 91.6862 173.439 92.2862C174.059 92.8862 174.369 93.7596 174.369 94.9062C174.369 95.4796 174.289 95.9862 174.129 96.4262C173.976 96.8596 173.746 97.2262 173.439 97.5262C173.133 97.8262 172.759 98.0529 172.319 98.2062C171.879 98.3596 171.373 98.4362 170.799 98.4362H168.869ZM169.239 97.7362H170.739C171.206 97.7362 171.609 97.6762 171.949 97.5562C172.296 97.4362 172.583 97.2596 172.809 97.0262C173.043 96.7929 173.216 96.4996 173.329 96.1462C173.443 95.7862 173.499 95.3729 173.499 94.9062C173.499 93.9662 173.269 93.2629 172.809 92.7962C172.349 92.3229 171.659 92.0862 170.739 92.0862H169.239V97.7362ZM176.131 98.4862C175.998 98.4862 175.898 98.4496 175.831 98.3762C175.765 98.2962 175.731 98.1862 175.731 98.0462V93.9562C175.731 93.8162 175.765 93.7096 175.831 93.6362C175.898 93.5629 175.998 93.5262 176.131 93.5262C176.258 93.5262 176.358 93.5629 176.431 93.6362C176.505 93.7096 176.541 93.8162 176.541 93.9562V98.0462C176.541 98.1862 176.505 98.2962 176.431 98.3762C176.365 98.4496 176.265 98.4862 176.131 98.4862ZM176.131 92.4062C175.965 92.4062 175.835 92.3629 175.741 92.2762C175.648 92.1829 175.601 92.0596 175.601 91.9062C175.601 91.7462 175.648 91.6262 175.741 91.5462C175.835 91.4596 175.965 91.4162 176.131 91.4162C176.305 91.4162 176.435 91.4596 176.521 91.5462C176.615 91.6262 176.661 91.7462 176.661 91.9062C176.661 92.0596 176.615 92.1829 176.521 92.2762C176.435 92.3629 176.305 92.4062 176.131 92.4062ZM178.465 98.5062C178.332 98.5062 178.229 98.4696 178.155 98.3962C178.089 98.3229 178.055 98.2196 178.055 98.0862V93.9162C178.055 93.7829 178.089 93.6829 178.155 93.6162C178.222 93.5429 178.319 93.5062 178.445 93.5062C178.572 93.5062 178.669 93.5429 178.735 93.6162C178.809 93.6829 178.845 93.7829 178.845 93.9162V94.7262H178.745C178.852 94.3329 179.055 94.0296 179.355 93.8162C179.655 93.6029 180.025 93.4896 180.465 93.4762C180.565 93.4696 180.645 93.4929 180.705 93.5462C180.765 93.5929 180.799 93.6762 180.805 93.7962C180.812 93.9096 180.785 93.9996 180.725 94.0662C180.665 94.1329 180.572 94.1729 180.445 94.1862L180.285 94.2062C179.832 94.2462 179.482 94.3929 179.235 94.6462C178.995 94.8929 178.875 95.2329 178.875 95.6662V98.0862C178.875 98.2196 178.839 98.3229 178.765 98.3962C178.699 98.4696 178.599 98.5062 178.465 98.5062ZM183.771 98.5262C183.257 98.5262 182.814 98.4262 182.441 98.2262C182.074 98.0196 181.787 97.7296 181.581 97.3562C181.381 96.9829 181.281 96.5362 181.281 96.0162C181.281 95.5096 181.381 95.0696 181.581 94.6962C181.781 94.3162 182.054 94.0196 182.401 93.8062C182.754 93.5929 183.161 93.4862 183.621 93.4862C183.947 93.4862 184.241 93.5429 184.501 93.6562C184.761 93.7629 184.981 93.9196 185.161 94.1262C185.347 94.3329 185.487 94.5829 185.581 94.8762C185.681 95.1696 185.731 95.4996 185.731 95.8662C185.731 95.9729 185.701 96.0529 185.641 96.1062C185.581 96.1529 185.494 96.1762 185.381 96.1762H181.901V95.6462H185.191L185.031 95.7762C185.031 95.4162 184.977 95.1129 184.871 94.8662C184.764 94.6129 184.607 94.4196 184.401 94.2862C184.201 94.1529 183.947 94.0862 183.641 94.0862C183.301 94.0862 183.011 94.1662 182.771 94.3262C182.537 94.4796 182.361 94.6962 182.241 94.9762C182.121 95.2496 182.061 95.5696 182.061 95.9362V95.9962C182.061 96.6096 182.207 97.0762 182.501 97.3962C182.801 97.7162 183.224 97.8762 183.771 97.8762C183.997 97.8762 184.221 97.8462 184.441 97.7862C184.667 97.7262 184.887 97.6262 185.101 97.4862C185.194 97.4262 185.277 97.3996 185.351 97.4062C185.431 97.4062 185.494 97.4296 185.541 97.4762C185.587 97.5162 185.617 97.5696 185.631 97.6362C185.651 97.6962 185.644 97.7629 185.611 97.8362C185.584 97.9096 185.527 97.9729 185.441 98.0262C185.221 98.1862 184.961 98.3096 184.661 98.3962C184.361 98.4829 184.064 98.5262 183.771 98.5262ZM188.963 98.5262C188.476 98.5262 188.056 98.4196 187.703 98.2062C187.35 97.9929 187.076 97.6962 186.883 97.3162C186.696 96.9296 186.603 96.4829 186.603 95.9762C186.603 95.5896 186.656 95.2429 186.763 94.9362C186.87 94.6296 187.026 94.3696 187.233 94.1562C187.44 93.9362 187.686 93.7696 187.973 93.6562C188.266 93.5429 188.596 93.4862 188.963 93.4862C189.203 93.4862 189.453 93.5229 189.713 93.5962C189.973 93.6696 190.21 93.7962 190.423 93.9762C190.49 94.0229 190.533 94.0796 190.553 94.1462C190.573 94.2129 190.573 94.2796 190.553 94.3462C190.533 94.4062 190.5 94.4596 190.453 94.5062C190.406 94.5462 190.346 94.5696 190.273 94.5762C190.206 94.5829 190.136 94.5596 190.063 94.5062C189.89 94.3729 189.713 94.2796 189.533 94.2262C189.353 94.1729 189.18 94.1462 189.013 94.1462C188.753 94.1462 188.526 94.1896 188.333 94.2762C188.14 94.3562 187.976 94.4729 187.843 94.6262C187.71 94.7796 187.606 94.9696 187.533 95.1962C187.466 95.4229 187.433 95.6862 187.433 95.9862C187.433 96.5662 187.57 97.0262 187.843 97.3662C188.116 97.6996 188.506 97.8662 189.013 97.8662C189.18 97.8662 189.35 97.8396 189.523 97.7862C189.703 97.7329 189.883 97.6396 190.063 97.5062C190.136 97.4529 190.206 97.4296 190.273 97.4362C190.34 97.4429 190.396 97.4696 190.443 97.5162C190.49 97.5562 190.52 97.6096 190.533 97.6762C190.553 97.7429 190.553 97.8096 190.533 97.8762C190.513 97.9362 190.47 97.9896 190.403 98.0362C190.19 98.2096 189.956 98.3362 189.703 98.4162C189.45 98.4896 189.203 98.5262 188.963 98.5262ZM193.482 98.5262C193.102 98.5262 192.782 98.4596 192.522 98.3262C192.269 98.1862 192.079 97.9862 191.952 97.7262C191.825 97.4596 191.762 97.1362 191.762 96.7562V94.2062H191.092C190.979 94.2062 190.892 94.1796 190.832 94.1262C190.772 94.0662 190.742 93.9862 190.742 93.8862C190.742 93.7862 190.772 93.7096 190.832 93.6562C190.892 93.6029 190.979 93.5762 191.092 93.5762H191.762V92.4262C191.762 92.2929 191.799 92.1929 191.872 92.1262C191.945 92.0529 192.045 92.0162 192.172 92.0162C192.299 92.0162 192.395 92.0529 192.462 92.1262C192.535 92.1929 192.572 92.2929 192.572 92.4262V93.5762H193.832C193.945 93.5762 194.032 93.6029 194.092 93.6562C194.152 93.7096 194.182 93.7862 194.182 93.8862C194.182 93.9862 194.152 94.0662 194.092 94.1262C194.032 94.1796 193.945 94.2062 193.832 94.2062H192.572V96.6762C192.572 97.0562 192.652 97.3462 192.812 97.5462C192.972 97.7396 193.232 97.8362 193.592 97.8362C193.719 97.8362 193.825 97.8229 193.912 97.7962C194.005 97.7696 194.082 97.7562 194.142 97.7562C194.202 97.7496 194.252 97.7696 194.292 97.8162C194.332 97.8629 194.352 97.9429 194.352 98.0562C194.352 98.1362 194.335 98.2096 194.302 98.2762C194.275 98.3429 194.225 98.3896 194.152 98.4162C194.072 98.4429 193.965 98.4662 193.832 98.4862C193.705 98.5129 193.589 98.5262 193.482 98.5262ZM195.17 96.1062C195.07 96.1062 194.987 96.0762 194.92 96.0162C194.854 95.9496 194.82 95.8696 194.82 95.7762C194.82 95.6762 194.854 95.5962 194.92 95.5362C194.987 95.4696 195.07 95.4362 195.17 95.4362H197.42C197.514 95.4362 197.594 95.4696 197.66 95.5362C197.727 95.5962 197.76 95.6762 197.76 95.7762C197.76 95.8696 197.727 95.9496 197.66 96.0162C197.594 96.0762 197.514 96.1062 197.42 96.1062H195.17ZM202.329 98.5262C201.635 98.5262 201.042 98.3796 200.549 98.0862C200.055 97.7929 199.675 97.3762 199.409 96.8362C199.149 96.2962 199.019 95.6529 199.019 94.9062C199.019 94.3462 199.092 93.8462 199.239 93.4062C199.392 92.9596 199.609 92.5829 199.889 92.2762C200.175 91.9629 200.525 91.7229 200.939 91.5562C201.352 91.3829 201.815 91.2962 202.329 91.2962C202.742 91.2962 203.135 91.3562 203.509 91.4762C203.882 91.5896 204.205 91.7596 204.479 91.9862C204.565 92.0529 204.622 92.1296 204.649 92.2162C204.682 92.2962 204.685 92.3762 204.659 92.4562C204.639 92.5296 204.599 92.5929 204.539 92.6462C204.485 92.6929 204.419 92.7162 204.339 92.7162C204.259 92.7162 204.169 92.6829 204.069 92.6162C203.829 92.4229 203.565 92.2796 203.279 92.1862C202.992 92.0929 202.682 92.0462 202.349 92.0462C201.822 92.0462 201.375 92.1596 201.009 92.3862C200.642 92.6062 200.365 92.9296 200.179 93.3562C199.992 93.7829 199.899 94.2996 199.899 94.9062C199.899 95.5129 199.992 96.0329 200.179 96.4662C200.365 96.8929 200.642 97.2196 201.009 97.4462C201.375 97.6662 201.822 97.7762 202.349 97.7762C202.675 97.7762 202.985 97.7296 203.279 97.6362C203.572 97.5362 203.842 97.3896 204.089 97.1962C204.189 97.1296 204.279 97.0996 204.359 97.1062C204.439 97.1062 204.505 97.1296 204.559 97.1762C204.612 97.2229 204.649 97.2829 204.669 97.3562C204.695 97.4296 204.695 97.5062 204.669 97.5862C204.649 97.6662 204.599 97.7362 204.519 97.7962C204.239 98.0362 203.909 98.2196 203.529 98.3462C203.155 98.4662 202.755 98.5262 202.329 98.5262ZM207.566 98.5262C207.092 98.5262 206.682 98.4229 206.336 98.2162C205.989 98.0096 205.719 97.7196 205.526 97.3462C205.339 96.9662 205.246 96.5196 205.246 96.0062C205.246 95.6196 205.299 95.2729 205.406 94.9662C205.512 94.6529 205.669 94.3862 205.876 94.1662C206.082 93.9462 206.326 93.7796 206.606 93.6662C206.892 93.5462 207.212 93.4862 207.566 93.4862C208.039 93.4862 208.449 93.5896 208.796 93.7962C209.142 94.0029 209.409 94.2962 209.596 94.6762C209.789 95.0496 209.886 95.4929 209.886 96.0062C209.886 96.3929 209.832 96.7396 209.726 97.0462C209.619 97.3529 209.462 97.6196 209.256 97.8462C209.049 98.0662 208.802 98.2362 208.516 98.3562C208.236 98.4696 207.919 98.5262 207.566 98.5262ZM207.566 97.8762C207.866 97.8762 208.129 97.8029 208.356 97.6562C208.582 97.5096 208.756 97.2962 208.876 97.0162C209.002 96.7362 209.066 96.3996 209.066 96.0062C209.066 95.3996 208.929 94.9362 208.656 94.6162C208.389 94.2962 208.026 94.1362 207.566 94.1362C207.259 94.1362 206.992 94.2096 206.766 94.3562C206.546 94.4962 206.372 94.7062 206.246 94.9862C206.126 95.2596 206.066 95.5996 206.066 96.0062C206.066 96.6062 206.202 97.0696 206.476 97.3962C206.749 97.7162 207.112 97.8762 207.566 97.8762ZM212.952 98.5262C212.519 98.5262 212.139 98.4229 211.812 98.2162C211.492 98.0096 211.242 97.7196 211.062 97.3462C210.889 96.9662 210.802 96.5196 210.802 96.0062C210.802 95.4862 210.889 95.0396 211.062 94.6662C211.242 94.2862 211.492 93.9962 211.812 93.7962C212.139 93.5896 212.519 93.4862 212.952 93.4862C213.392 93.4862 213.769 93.5962 214.082 93.8162C214.396 94.0362 214.606 94.3329 214.712 94.7062H214.602V91.7262C214.602 91.5929 214.636 91.4929 214.702 91.4262C214.776 91.3529 214.879 91.3162 215.012 91.3162C215.139 91.3162 215.236 91.3529 215.302 91.4262C215.376 91.4929 215.412 91.5929 215.412 91.7262V98.0862C215.412 98.2196 215.379 98.3229 215.312 98.3962C215.246 98.4696 215.146 98.5062 215.012 98.5062C214.886 98.5062 214.786 98.4696 214.712 98.3962C214.646 98.3229 214.612 98.2196 214.612 98.0862V97.1362L214.722 97.2762C214.616 97.6562 214.402 97.9596 214.082 98.1862C213.769 98.4129 213.392 98.5262 212.952 98.5262ZM213.122 97.8762C213.422 97.8762 213.686 97.8029 213.912 97.6562C214.139 97.5096 214.312 97.2962 214.432 97.0162C214.559 96.7362 214.622 96.3996 214.622 96.0062C214.622 95.3996 214.486 94.9362 214.212 94.6162C213.946 94.2962 213.582 94.1362 213.122 94.1362C212.816 94.1362 212.549 94.2096 212.322 94.3562C212.102 94.4962 211.929 94.7062 211.802 94.9862C211.682 95.2596 211.622 95.5996 211.622 96.0062C211.622 96.6062 211.759 97.0696 212.032 97.3962C212.306 97.7162 212.669 97.8762 213.122 97.8762ZM219.122 98.5262C218.609 98.5262 218.166 98.4262 217.792 98.2262C217.426 98.0196 217.139 97.7296 216.932 97.3562C216.732 96.9829 216.632 96.5362 216.632 96.0162C216.632 95.5096 216.732 95.0696 216.932 94.6962C217.132 94.3162 217.406 94.0196 217.752 93.8062C218.106 93.5929 218.512 93.4862 218.972 93.4862C219.299 93.4862 219.592 93.5429 219.852 93.6562C220.112 93.7629 220.332 93.9196 220.512 94.1262C220.699 94.3329 220.839 94.5829 220.932 94.8762C221.032 95.1696 221.082 95.4996 221.082 95.8662C221.082 95.9729 221.052 96.0529 220.992 96.1062C220.932 96.1529 220.846 96.1762 220.732 96.1762H217.252V95.6462H220.542L220.382 95.7762C220.382 95.4162 220.329 95.1129 220.222 94.8662C220.116 94.6129 219.959 94.4196 219.752 94.2862C219.552 94.1529 219.299 94.0862 218.992 94.0862C218.652 94.0862 218.362 94.1662 218.122 94.3262C217.889 94.4796 217.712 94.6962 217.592 94.9762C217.472 95.2496 217.412 95.5696 217.412 95.9362V95.9962C217.412 96.6096 217.559 97.0762 217.852 97.3962C218.152 97.7162 218.576 97.8762 219.122 97.8762C219.349 97.8762 219.572 97.8462 219.792 97.7862C220.019 97.7262 220.239 97.6262 220.452 97.4862C220.546 97.4262 220.629 97.3996 220.702 97.4062C220.782 97.4062 220.846 97.4296 220.892 97.4762C220.939 97.5162 220.969 97.5696 220.982 97.6362C221.002 97.6962 220.996 97.7629 220.962 97.8362C220.936 97.9096 220.879 97.9729 220.792 98.0262C220.572 98.1862 220.312 98.3096 220.012 98.3962C219.712 98.4829 219.416 98.5262 219.122 98.5262ZM224.105 98.5262C223.671 98.5262 223.291 98.4229 222.965 98.2162C222.645 98.0096 222.395 97.7196 222.215 97.3462C222.041 96.9662 221.955 96.5196 221.955 96.0062C221.955 95.4862 222.041 95.0396 222.215 94.6662C222.395 94.2862 222.645 93.9962 222.965 93.7962C223.291 93.5896 223.671 93.4862 224.105 93.4862C224.545 93.4862 224.921 93.5962 225.235 93.8162C225.548 94.0362 225.758 94.3329 225.865 94.7062H225.755V91.7262C225.755 91.5929 225.788 91.4929 225.855 91.4262C225.928 91.3529 226.031 91.3162 226.165 91.3162C226.291 91.3162 226.388 91.3529 226.455 91.4262C226.528 91.4929 226.565 91.5929 226.565 91.7262V98.0862C226.565 98.2196 226.531 98.3229 226.465 98.3962C226.398 98.4696 226.298 98.5062 226.165 98.5062C226.038 98.5062 225.938 98.4696 225.865 98.3962C225.798 98.3229 225.765 98.2196 225.765 98.0862V97.1362L225.875 97.2762C225.768 97.6562 225.555 97.9596 225.235 98.1862C224.921 98.4129 224.545 98.5262 224.105 98.5262ZM224.275 97.8762C224.575 97.8762 224.838 97.8029 225.065 97.6562C225.291 97.5096 225.465 97.2962 225.585 97.0162C225.711 96.7362 225.775 96.3996 225.775 96.0062C225.775 95.3996 225.638 94.9362 225.365 94.6162C225.098 94.2962 224.735 94.1362 224.275 94.1362C223.968 94.1362 223.701 94.2096 223.475 94.3562C223.255 94.4962 223.081 94.7062 222.955 94.9862C222.835 95.2596 222.775 95.5996 222.775 96.0062C222.775 96.6062 222.911 97.0696 223.185 97.3962C223.458 97.7162 223.821 97.8762 224.275 97.8762ZM231.063 100.306C230.929 100.306 230.829 100.27 230.763 100.196C230.696 100.13 230.663 100.03 230.663 99.8962V93.9162C230.663 93.7829 230.696 93.6829 230.763 93.6162C230.829 93.5429 230.926 93.5062 231.053 93.5062C231.186 93.5062 231.286 93.5429 231.353 93.6162C231.426 93.6829 231.463 93.7829 231.463 93.9162V94.8662L231.353 94.7262C231.459 94.3462 231.669 94.0462 231.983 93.8262C232.303 93.5996 232.683 93.4862 233.123 93.4862C233.556 93.4862 233.933 93.5896 234.253 93.7962C234.579 93.9962 234.829 94.2862 235.003 94.6662C235.183 95.0396 235.273 95.4862 235.273 96.0062C235.273 96.5196 235.183 96.9662 235.003 97.3462C234.829 97.7196 234.583 98.0096 234.263 98.2162C233.943 98.4229 233.563 98.5262 233.123 98.5262C232.683 98.5262 232.306 98.4162 231.993 98.1962C231.679 97.9696 231.466 97.6696 231.353 97.2962H231.473V99.8962C231.473 100.03 231.436 100.13 231.363 100.196C231.289 100.27 231.189 100.306 231.063 100.306ZM232.953 97.8762C233.259 97.8762 233.523 97.8029 233.743 97.6562C233.969 97.5096 234.143 97.2962 234.263 97.0162C234.389 96.7362 234.453 96.3996 234.453 96.0062C234.453 95.3996 234.316 94.9362 234.043 94.6162C233.776 94.2962 233.413 94.1362 232.953 94.1362C232.653 94.1362 232.389 94.2096 232.163 94.3562C231.936 94.4962 231.759 94.7062 231.633 94.9862C231.513 95.2596 231.453 95.5996 231.453 96.0062C231.453 96.6062 231.589 97.0696 231.863 97.3962C232.136 97.7162 232.499 97.8762 232.953 97.8762ZM238.023 98.5262C237.69 98.5262 237.39 98.4629 237.123 98.3362C236.863 98.2029 236.656 98.0229 236.503 97.7962C236.35 97.5696 236.273 97.3162 236.273 97.0362C236.273 96.6762 236.363 96.3929 236.543 96.1862C236.73 95.9796 237.033 95.8329 237.453 95.7462C237.88 95.6596 238.46 95.6162 239.193 95.6162H239.643V96.1462H239.203C238.663 96.1462 238.236 96.1729 237.923 96.2262C237.616 96.2729 237.4 96.3562 237.273 96.4762C237.153 96.5962 237.093 96.7662 237.093 96.9862C237.093 97.2596 237.186 97.4829 237.373 97.6562C237.566 97.8296 237.826 97.9162 238.153 97.9162C238.42 97.9162 238.653 97.8529 238.853 97.7262C239.06 97.5996 239.22 97.4262 239.333 97.2062C239.453 96.9862 239.513 96.7329 239.513 96.4462V95.3062C239.513 94.8929 239.43 94.5962 239.263 94.4162C239.096 94.2296 238.823 94.1362 238.443 94.1362C238.21 94.1362 237.976 94.1662 237.743 94.2262C237.51 94.2862 237.263 94.3829 237.003 94.5162C236.91 94.5629 236.83 94.5796 236.763 94.5662C236.696 94.5462 236.643 94.5096 236.603 94.4562C236.563 94.4029 236.54 94.3429 236.533 94.2762C236.526 94.2029 236.54 94.1329 236.573 94.0662C236.613 93.9996 236.673 93.9462 236.753 93.9062C237.046 93.7596 237.336 93.6529 237.623 93.5862C237.91 93.5196 238.183 93.4862 238.443 93.4862C238.863 93.4862 239.21 93.5562 239.483 93.6962C239.756 93.8296 239.96 94.0362 240.093 94.3162C240.226 94.5896 240.293 94.9429 240.293 95.3762V98.0862C240.293 98.2196 240.26 98.3229 240.193 98.3962C240.133 98.4696 240.043 98.5062 239.923 98.5062C239.796 98.5062 239.7 98.4696 239.633 98.3962C239.566 98.3229 239.533 98.2196 239.533 98.0862V97.3062H239.623C239.57 97.5596 239.466 97.7762 239.313 97.9562C239.166 98.1362 238.983 98.2762 238.763 98.3762C238.543 98.4762 238.296 98.5262 238.023 98.5262ZM243.746 98.5262C243.366 98.5262 243.046 98.4596 242.786 98.3262C242.532 98.1862 242.342 97.9862 242.216 97.7262C242.089 97.4596 242.026 97.1362 242.026 96.7562V94.2062H241.356C241.242 94.2062 241.156 94.1796 241.096 94.1262C241.036 94.0662 241.006 93.9862 241.006 93.8862C241.006 93.7862 241.036 93.7096 241.096 93.6562C241.156 93.6029 241.242 93.5762 241.356 93.5762H242.026V92.4262C242.026 92.2929 242.062 92.1929 242.136 92.1262C242.209 92.0529 242.309 92.0162 242.436 92.0162C242.562 92.0162 242.659 92.0529 242.726 92.1262C242.799 92.1929 242.836 92.2929 242.836 92.4262V93.5762H244.096C244.209 93.5762 244.296 93.6029 244.356 93.6562C244.416 93.7096 244.446 93.7862 244.446 93.8862C244.446 93.9862 244.416 94.0662 244.356 94.1262C244.296 94.1796 244.209 94.2062 244.096 94.2062H242.836V96.6762C242.836 97.0562 242.916 97.3462 243.076 97.5462C243.236 97.7396 243.496 97.8362 243.856 97.8362C243.982 97.8362 244.089 97.8229 244.176 97.7962C244.269 97.7696 244.346 97.7562 244.406 97.7562C244.466 97.7496 244.516 97.7696 244.556 97.8162C244.596 97.8629 244.616 97.9429 244.616 98.0562C244.616 98.1362 244.599 98.2096 244.566 98.2762C244.539 98.3429 244.489 98.3896 244.416 98.4162C244.336 98.4429 244.229 98.4662 244.096 98.4862C243.969 98.5129 243.852 98.5262 243.746 98.5262ZM245.75 98.5062C245.617 98.5062 245.517 98.4696 245.45 98.3962C245.384 98.3229 245.35 98.2196 245.35 98.0862V91.7262C245.35 91.5929 245.384 91.4929 245.45 91.4262C245.517 91.3529 245.617 91.3162 245.75 91.3162C245.877 91.3162 245.977 91.3529 246.05 91.4262C246.124 91.4929 246.16 91.5929 246.16 91.7262V94.6562H246.03C246.17 94.2696 246.397 93.9796 246.71 93.7862C247.03 93.5862 247.397 93.4862 247.81 93.4862C248.197 93.4862 248.517 93.5562 248.77 93.6962C249.03 93.8362 249.224 94.0496 249.35 94.3362C249.477 94.6162 249.54 94.9729 249.54 95.4062V98.0862C249.54 98.2196 249.504 98.3229 249.43 98.3962C249.364 98.4696 249.267 98.5062 249.14 98.5062C249.007 98.5062 248.904 98.4696 248.83 98.3962C248.764 98.3229 248.73 98.2196 248.73 98.0862V95.4562C248.73 95.0029 248.64 94.6729 248.46 94.4662C248.287 94.2529 248.007 94.1462 247.62 94.1462C247.174 94.1462 246.817 94.2862 246.55 94.5662C246.29 94.8396 246.16 95.2062 246.16 95.6662V98.0862C246.16 98.3662 246.024 98.5062 245.75 98.5062Z" fill="black"/>
<path d="M14.9148 18.108C14.5388 18.108 14.1708 18.076 13.8108 18.012C13.4508 17.948 13.1148 17.856 12.8028 17.736C12.4988 17.616 12.2228 17.464 11.9748 17.28C11.8788 17.208 11.8108 17.128 11.7708 17.04C11.7388 16.944 11.7308 16.852 11.7468 16.764C11.7708 16.668 11.8108 16.588 11.8668 16.524C11.9308 16.46 12.0068 16.424 12.0948 16.416C12.1828 16.408 12.2788 16.436 12.3828 16.5C12.7428 16.756 13.1268 16.944 13.5348 17.064C13.9428 17.176 14.4028 17.232 14.9148 17.232C15.6348 17.232 16.1668 17.1 16.5108 16.836C16.8628 16.564 17.0388 16.208 17.0388 15.768C17.0388 15.408 16.9108 15.128 16.6548 14.928C16.4068 14.72 15.9868 14.556 15.3948 14.436L14.1468 14.184C13.3948 14.024 12.8308 13.764 12.4548 13.404C12.0868 13.036 11.9028 12.548 11.9028 11.94C11.9028 11.564 11.9788 11.224 12.1308 10.92C12.2828 10.608 12.4948 10.344 12.7668 10.128C13.0388 9.904 13.3628 9.732 13.7388 9.612C14.1148 9.492 14.5308 9.432 14.9868 9.432C15.4908 9.432 15.9588 9.504 16.3908 9.648C16.8308 9.784 17.2268 9.992 17.5788 10.272C17.6668 10.344 17.7268 10.428 17.7588 10.524C17.7908 10.612 17.7948 10.7 17.7708 10.788C17.7468 10.868 17.7028 10.936 17.6388 10.992C17.5828 11.048 17.5068 11.08 17.4108 11.088C17.3228 11.096 17.2228 11.064 17.1108 10.992C16.7908 10.752 16.4588 10.58 16.1148 10.476C15.7708 10.364 15.3908 10.308 14.9748 10.308C14.5508 10.308 14.1828 10.372 13.8708 10.5C13.5668 10.628 13.3268 10.816 13.1508 11.064C12.9828 11.304 12.8988 11.584 12.8988 11.904C12.8988 12.288 13.0148 12.592 13.2468 12.816C13.4868 13.04 13.8748 13.204 14.4108 13.308L15.6588 13.572C16.4668 13.74 17.0628 13.996 17.4468 14.34C17.8388 14.676 18.0348 15.136 18.0348 15.72C18.0348 16.072 17.9628 16.396 17.8188 16.692C17.6748 16.988 17.4668 17.244 17.1948 17.46C16.9228 17.668 16.5948 17.828 16.2108 17.94C15.8268 18.052 15.3948 18.108 14.9148 18.108ZM21.7461 18.108C21.2901 18.108 20.9061 18.028 20.5941 17.868C20.2901 17.7 20.0621 17.46 19.9101 17.148C19.7581 16.828 19.6821 16.44 19.6821 15.984V12.924H18.8781C18.7421 12.924 18.6381 12.892 18.5661 12.828C18.4941 12.756 18.4581 12.66 18.4581 12.54C18.4581 12.42 18.4941 12.328 18.5661 12.264C18.6381 12.2 18.7421 12.168 18.8781 12.168H19.6821V10.788C19.6821 10.628 19.7261 10.508 19.8141 10.428C19.9021 10.34 20.0221 10.296 20.1741 10.296C20.3261 10.296 20.4421 10.34 20.5221 10.428C20.6101 10.508 20.6541 10.628 20.6541 10.788V12.168H22.1661C22.3021 12.168 22.4061 12.2 22.4781 12.264C22.5501 12.328 22.5861 12.42 22.5861 12.54C22.5861 12.66 22.5501 12.756 22.4781 12.828C22.4061 12.892 22.3021 12.924 22.1661 12.924H20.6541V15.888C20.6541 16.344 20.7501 16.692 20.9421 16.932C21.1341 17.164 21.4461 17.28 21.8781 17.28C22.0301 17.28 22.1581 17.264 22.2621 17.232C22.3741 17.2 22.4661 17.184 22.5381 17.184C22.6101 17.176 22.6701 17.2 22.7181 17.256C22.7661 17.312 22.7901 17.408 22.7901 17.544C22.7901 17.64 22.7701 17.728 22.7301 17.808C22.6981 17.888 22.6381 17.944 22.5501 17.976C22.4541 18.008 22.3261 18.036 22.1661 18.06C22.0141 18.092 21.8741 18.108 21.7461 18.108ZM25.4375 18.108C25.0375 18.108 24.6775 18.032 24.3575 17.88C24.0455 17.72 23.7975 17.504 23.6135 17.232C23.4295 16.96 23.3375 16.656 23.3375 16.32C23.3375 15.888 23.4455 15.548 23.6615 15.3C23.8855 15.052 24.2495 14.876 24.7535 14.772C25.2655 14.668 25.9615 14.616 26.8415 14.616H27.3815V15.252H26.8535C26.2055 15.252 25.6935 15.284 25.3175 15.348C24.9495 15.404 24.6895 15.504 24.5375 15.648C24.3935 15.792 24.3215 15.996 24.3215 16.26C24.3215 16.588 24.4335 16.856 24.6575 17.064C24.8895 17.272 25.2015 17.376 25.5935 17.376C25.9135 17.376 26.1935 17.3 26.4335 17.148C26.6815 16.996 26.8735 16.788 27.0095 16.524C27.1535 16.26 27.2255 15.956 27.2255 15.612V14.244C27.2255 13.748 27.1255 13.392 26.9255 13.176C26.7255 12.952 26.3975 12.84 25.9415 12.84C25.6615 12.84 25.3815 12.876 25.1015 12.948C24.8215 13.02 24.5255 13.136 24.2135 13.296C24.1015 13.352 24.0055 13.372 23.9255 13.356C23.8455 13.332 23.7815 13.288 23.7335 13.224C23.6855 13.16 23.6575 13.088 23.6495 13.008C23.6415 12.92 23.6575 12.836 23.6975 12.756C23.7455 12.676 23.8175 12.612 23.9135 12.564C24.2655 12.388 24.6135 12.26 24.9575 12.18C25.3015 12.1 25.6295 12.06 25.9415 12.06C26.4455 12.06 26.8615 12.144 27.1895 12.312C27.5175 12.472 27.7615 12.72 27.9215 13.056C28.0815 13.384 28.1615 13.808 28.1615 14.328V17.58C28.1615 17.74 28.1215 17.864 28.0415 17.952C27.9695 18.04 27.8615 18.084 27.7175 18.084C27.5655 18.084 27.4495 18.04 27.3695 17.952C27.2895 17.864 27.2495 17.74 27.2495 17.58V16.644H27.3575C27.2935 16.948 27.1695 17.208 26.9855 17.424C26.8095 17.64 26.5895 17.808 26.3255 17.928C26.0615 18.048 25.7655 18.108 25.4375 18.108ZM30.4567 18.084C30.2967 18.084 30.1727 18.04 30.0847 17.952C30.0047 17.864 29.9647 17.74 29.9647 17.58V12.576C29.9647 12.416 30.0047 12.296 30.0847 12.216C30.1647 12.128 30.2807 12.084 30.4327 12.084C30.5847 12.084 30.7007 12.128 30.7807 12.216C30.8687 12.296 30.9127 12.416 30.9127 12.576V13.548H30.7927C30.9207 13.076 31.1647 12.712 31.5247 12.456C31.8847 12.2 32.3287 12.064 32.8567 12.048C32.9767 12.04 33.0727 12.068 33.1447 12.132C33.2167 12.188 33.2567 12.288 33.2647 12.432C33.2727 12.568 33.2407 12.676 33.1687 12.756C33.0967 12.836 32.9847 12.884 32.8327 12.9L32.6407 12.924C32.0967 12.972 31.6767 13.148 31.3807 13.452C31.0927 13.748 30.9487 14.156 30.9487 14.676V17.58C30.9487 17.74 30.9047 17.864 30.8167 17.952C30.7367 18.04 30.6167 18.084 30.4567 18.084ZM36.9219 18.108C36.4659 18.108 36.0819 18.028 35.7699 17.868C35.4659 17.7 35.2379 17.46 35.0859 17.148C34.9339 16.828 34.8579 16.44 34.8579 15.984V12.924H34.0539C33.9179 12.924 33.8139 12.892 33.7419 12.828C33.6699 12.756 33.6339 12.66 33.6339 12.54C33.6339 12.42 33.6699 12.328 33.7419 12.264C33.8139 12.2 33.9179 12.168 34.0539 12.168H34.8579V10.788C34.8579 10.628 34.9019 10.508 34.9899 10.428C35.0779 10.34 35.1979 10.296 35.3499 10.296C35.5019 10.296 35.6179 10.34 35.6979 10.428C35.7859 10.508 35.8299 10.628 35.8299 10.788V12.168H37.3419C37.4779 12.168 37.5819 12.2 37.6539 12.264C37.7259 12.328 37.7619 12.42 37.7619 12.54C37.7619 12.66 37.7259 12.756 37.6539 12.828C37.5819 12.892 37.4779 12.924 37.3419 12.924H35.8299V15.888C35.8299 16.344 35.9259 16.692 36.1179 16.932C36.3099 17.164 36.6219 17.28 37.0539 17.28C37.2059 17.28 37.3339 17.264 37.4379 17.232C37.5499 17.2 37.6419 17.184 37.7139 17.184C37.7859 17.176 37.8459 17.2 37.8939 17.256C37.9419 17.312 37.9659 17.408 37.9659 17.544C37.9659 17.64 37.9459 17.728 37.9059 17.808C37.8739 17.888 37.8139 17.944 37.7259 17.976C37.6299 18.008 37.5019 18.036 37.3419 18.06C37.1899 18.092 37.0499 18.108 36.9219 18.108Z" fill="black"/>
</svg>
